<svg id="Layer_1" xmlns="http://www.w3.org/2000/svg" viewBox="0 0 477.3 226.1"><style>.st0{fill:#f7403a}</style><path class="st0" d="M350.9 113.3c0 6.7 3.6 10.9 9.5 10.9s9.5-4.1 9.5-10.9c0-6.7-3.6-11-9.5-11s-9.5 4.2-9.5 11z"/><path class="st0" d="M39.3 76.2C47.6 82 52 91.1 52 102.9c4-8.3 12.6-14 23-14 8.1 0 15.2 3.5 19.8 8.9v-7.4h9.8V76.8h15.8v13.6h9.8v7.1c4.5-5.3 11.3-8.6 19.6-8.6 7.8 0 14.2 2.8 18.4 7.9l-2.9-6.4h17.1l7.7 20.1c.6 1.8 1.7 4.1 2.1 7.1.5-3 1.6-5.3 2.2-7.1l7.7-20.1h16.7l-3 6.6c4.5-5 11.1-8.1 19.2-8.1 11.7 0 20.1 6.2 23.1 17.1V90.4h15.1v10.7c2.9-7.6 8.6-11 15.6-11 1.1 0 2.6.1 4.5.3h16.4l6.4 16.4c.6 1.5 1.5 3.8 2.1 7.2.7-3.6 1.6-5.8 2.1-7.2l6.5-16.4H344l-3.1 7.1c4.6-5.2 11.5-8.6 19.4-8.6 11.6 0 21 7 24.2 16.8V90.4h14.7v9.2c4.3-7.5 9.5-10.7 17.4-10.7 5.9 0 10.7 2 13.5 5.5 2.2 2.8 3 6.2 3.2 10.4 3.4-9.3 12.1-15.9 23.8-15.9 8.3 0 14.9 3.1 19.2 8.8C468.9 42.6 421.6 0 364.3 0c-31.9 0-60.7 13.2-81.3 34.5-16.7-12.8-37.5-20.3-60.1-20.3-32.8 0-61.9 16-79.9 40.6-15.4-16.3-37.3-26.4-61.5-26.4-31.1 0-58.2 16.7-73 41.7 12.4-.2 22.2 0 30.8 6.1zM457.2 127.3c4.9 0 8.2-1.8 10-5.4l9.5 3.9c.3-3.1.6-6.2.7-9.4H447c0 7 3.7 10.9 10.2 10.9z"/><path class="st0" d="M456.6 98.7c-5.2 0-8.4 2.9-9.3 8.6h18.4c-.5-5.3-4.3-8.6-9.1-8.6zM225.2 107.3h18.4c-.6-5.3-4.3-8.6-9.1-8.6-5.1 0-8.4 2.8-9.3 8.6zM10.4 84.7v36.4h3c13.7 0 20.3-5.3 20.3-18.2 0-13.1-6.7-18.3-20.3-18.3h-3zM139.9 107.3h18.4c-.6-5.3-4.3-8.6-9.1-8.6-5.2 0-8.4 2.8-9.3 8.6z"/><path class="st0" d="M458.1 137.6c-12.6 0-21.2-5.9-24.6-14.8v13h-16v-24.3c0-7.1-2.1-10.4-7.5-10.4-7.2 0-9.6 5.4-9.6 15.7v19.1h-15.8v-15.1c-3.2 9.8-12.7 16.8-24.2 16.8-14.5 0-25.4-11-25.4-24.3 0-.8 0-1.7.1-2.5L315.4 156h-17.9l12.8-27-17.2-36.2-1.3 12.2c-1.9-.6-3.7-.9-5.5-.9-7.6 0-12.2 3.9-12.2 13v18.8h-15.9v-19.5h-33.4c.1 7.1 3.8 11 10.2 11 4.9 0 8.2-1.8 10-5.4l12.1 4.9c-2.9 6.8-10.3 10.9-21.1 10.9-16.6 0-26.3-10.2-26.3-24 0-1.2.1-2.4.2-3.6L198.2 136h-12.5l-12.3-27.3c.4 2.2.6 4.5.6 7v.7h-34.6c.1 7.1 3.8 11 10.2 11 4.9 0 8.2-1.8 10-5.4l12.1 4.9c-2.9 6.8-10.3 10.9-21.1 10.9-16.6 0-26.3-10.2-26.3-24 0-4.3 1-8.4 2.9-11.9h-6.9V136h-15.8v-34.1h-7.1c1.9 3.4 3 7.4 3 11.5 0 13.5-11.1 24.3-25.4 24.3-13.5 0-23.9-9.5-25.2-21.7-2.1 5.6-5.6 10.2-10.5 13.7-8.2 5.8-17.3 6.2-28.3 6.2H0c10 35.8 42.7 62 81.7 62 24.2 0 46-10.2 61.5-26.4 18 24.6 47.1 40.6 79.9 40.6 22.6 0 43.4-7.6 60.1-20.3 20.6 21.3 49.3 34.5 81.3 34.5 56.1 0 102.7-40.9 111.5-94.5-4 3.6-10.1 5.8-17.9 5.8z"/><path class="st0" d="M65.5 113.3c0 6.7 3.6 10.9 9.5 10.9s9.5-4.1 9.5-10.9c0-6.7-3.6-11-9.5-11s-9.5 4.2-9.5 11z"/></svg>