<?xml version="1.0" encoding="UTF-8"?>
<svg width="377px" height="144px" viewBox="0 0 377 144" version="1.1" xmlns="http://www.w3.org/2000/svg" xmlns:xlink="http://www.w3.org/1999/xlink">
    <!-- Generator: Sketch 39.1 (31720) - http://www.bohemiancoding.com/sketch -->
    <title>Group</title>
    <desc>Created with Sketch.</desc>
    <defs>
        <polygon id="path-1" points="0 143.94 124.957 143.94 124.957 0.233 0 0.233"></polygon>
    </defs>
    <g id="Page-1" stroke="none" stroke-width="1" fill="none" fill-rule="evenodd">
        <g id="Group">
            <polygon id="Path-2" fill="#FFFFFF" points="4.02252906 37.7709932 62.1520471 4.00753641 122.050698 38.9089356 120.783819 105.941092 62.6977797 140.118346 3.39283759 105.491312"></polygon>
            <g id="hacksmiths-sticker-white">
                <g id="Group-3">
                    <mask id="mask-2" fill="white">
                        <use xlink:href="#path-1"></use>
                    </mask>
                    <g id="Clip-2"></g>
                    <path d="M103.382,94.97 C103.015,95.184 102.586,95.24 102.174,95.127 C101.764,95.017 101.421,94.752 101.209,94.384 L101.209,94.383 C100.998,94.015 100.941,93.585 101.052,93.175 C101.163,92.765 101.427,92.422 101.795,92.21 C102.045,92.067 102.318,91.998 102.587,91.998 C103.139,91.998 103.676,92.286 103.97,92.796 C104.182,93.165 104.238,93.594 104.126,94.005 C104.016,94.415 103.751,94.758 103.382,94.97 L103.382,94.97 Z M101.223,84.576 C101.223,85.453 100.508,86.168 99.63,86.168 C98.752,86.168 98.038,85.453 98.038,84.576 C98.038,83.698 98.752,82.983 99.63,82.983 C100.508,82.983 101.223,83.698 101.223,84.576 L101.223,84.576 Z M90.35,76.004 C90.35,76.882 89.636,77.597 88.758,77.597 C87.88,77.597 87.165,76.882 87.165,76.004 C87.165,75.126 87.88,74.412 88.758,74.412 C89.636,74.412 90.35,75.126 90.35,76.004 L90.35,76.004 Z M101.223,66.917 C101.223,67.795 100.508,68.51 99.63,68.51 C98.752,68.51 98.038,67.795 98.038,66.917 C98.038,66.039 98.752,65.325 99.63,65.325 C100.508,65.325 101.223,66.039 101.223,66.917 L101.223,66.917 Z M85.391,43.819 C85.391,44.697 84.677,45.411 83.799,45.411 C82.921,45.411 82.206,44.697 82.206,43.819 C82.206,42.941 82.921,42.226 83.799,42.226 C84.677,42.226 85.391,42.941 85.391,43.819 L85.391,43.819 Z M91.35,33.169 C92.228,33.169 92.943,33.884 92.943,34.762 C92.943,35.64 92.228,36.354 91.35,36.354 C90.472,36.354 89.758,35.64 89.758,34.762 C89.758,33.884 90.472,33.169 91.35,33.169 L91.35,33.169 Z M74.122,33.169 C75,33.169 75.715,33.884 75.715,34.762 C75.715,35.64 75,36.354 74.122,36.354 C73.245,36.354 72.531,35.64 72.531,34.762 C72.531,33.884 73.245,33.169 74.122,33.169 L74.122,33.169 Z M45.419,43.943 C45.419,44.821 44.706,45.536 43.828,45.536 C42.95,45.536 42.235,44.821 42.235,43.943 C42.235,43.065 42.95,42.351 43.828,42.351 C44.706,42.351 45.419,43.065 45.419,43.943 L45.419,43.943 Z M34.026,44.819 C34.904,44.819 35.619,45.533 35.619,46.411 C35.619,47.289 34.904,48.003 34.026,48.003 C33.148,48.003 32.434,47.289 32.434,46.411 C32.434,45.533 33.148,44.819 34.026,44.819 L34.026,44.819 Z M14.57,69.263 C14.82,69.12 15.091,69.052 15.361,69.052 C15.913,69.052 16.45,69.338 16.744,69.85 C17.181,70.611 16.917,71.586 16.157,72.024 C15.396,72.462 14.42,72.198 13.983,71.437 C13.545,70.676 13.809,69.7 14.57,69.263 L14.57,69.263 Z M32.387,79.6 C32.498,79.189 32.762,78.846 33.13,78.634 C33.375,78.493 33.647,78.421 33.921,78.421 C34.061,78.421 34.201,78.44 34.339,78.477 C34.75,78.588 35.092,78.852 35.304,79.222 C35.516,79.59 35.573,80.019 35.461,80.43 C35.351,80.84 35.086,81.183 34.718,81.395 C34.348,81.607 33.916,81.662 33.509,81.552 C33.099,81.441 32.756,81.177 32.544,80.808 C32.333,80.439 32.276,80.01 32.387,79.6 L32.387,79.6 Z M24.289,87.943 C24.534,87.802 24.805,87.73 25.08,87.73 C25.219,87.73 25.36,87.748 25.498,87.786 C25.908,87.897 26.25,88.161 26.462,88.53 C26.9,89.291 26.637,90.266 25.876,90.703 C25.118,91.142 24.139,90.878 23.702,90.117 C23.264,89.355 23.528,88.38 24.289,87.943 L24.289,87.943 Z M32.387,98.222 C32.498,97.812 32.762,97.469 33.13,97.257 L33.131,97.257 C33.375,97.116 33.647,97.044 33.922,97.044 C34.061,97.044 34.202,97.063 34.339,97.1 C34.75,97.21 35.092,97.475 35.304,97.844 C35.743,98.605 35.479,99.58 34.718,100.018 C34.349,100.23 33.92,100.287 33.509,100.174 C33.099,100.064 32.756,99.799 32.544,99.43 C32.333,99.062 32.276,98.632 32.387,98.222 L32.387,98.222 Z M42.863,107.444 C43.155,107.213 43.503,107.101 43.849,107.101 C44.32,107.101 44.786,107.307 45.1,107.703 C45.645,108.391 45.529,109.395 44.84,109.94 C44.152,110.485 43.148,110.368 42.604,109.681 C42.059,108.993 42.175,107.99 42.863,107.444 L42.863,107.444 Z M51.593,118.409 C51.704,117.997 51.968,117.655 52.337,117.443 C53.097,117.004 54.074,117.268 54.511,118.03 C54.949,118.79 54.685,119.766 53.923,120.203 C53.554,120.415 53.125,120.469 52.715,120.361 C52.305,120.249 51.962,119.986 51.75,119.616 C51.539,119.247 51.482,118.819 51.593,118.409 L51.593,118.409 Z M68.966,103.885 C68.633,104.149 68.218,104.266 67.793,104.219 C67.371,104.17 66.993,103.959 66.729,103.626 C66.183,102.938 66.299,101.934 66.988,101.389 C67.28,101.158 67.628,101.045 67.975,101.045 C68.445,101.045 68.911,101.252 69.225,101.648 C69.489,101.982 69.608,102.398 69.559,102.82 C69.51,103.243 69.299,103.62 68.966,103.885 L68.966,103.885 Z M90.097,109.805 C90.097,110.683 89.383,111.397 88.505,111.397 C87.627,111.397 86.913,110.683 86.913,109.805 C86.913,108.927 87.627,108.212 88.505,108.212 C89.383,108.212 90.097,108.927 90.097,109.805 L90.097,109.805 Z M112.147,108.388 L91.803,108.388 C91.252,107.11 89.982,106.212 88.505,106.212 C86.524,106.212 84.912,107.824 84.912,109.805 C84.912,111.785 86.524,113.397 88.505,113.397 C89.982,113.397 91.252,112.499 91.803,111.222 L107.165,111.222 L79.519,126.952 L79.519,113.116 C80.796,112.565 81.694,111.295 81.694,109.818 C81.694,107.836 80.083,106.225 78.101,106.225 C76.121,106.225 74.509,107.836 74.509,109.818 C74.509,111.295 75.407,112.565 76.684,113.116 L76.684,128.565 L62.191,136.812 L49.858,129.603 L69.333,129.603 L69.333,105.951 C69.639,105.826 69.936,105.667 70.208,105.452 C71.761,104.221 72.022,101.957 70.792,100.406 C69.561,98.853 67.295,98.591 65.746,99.822 C64.194,101.052 63.931,103.316 65.162,104.868 C65.558,105.369 66.067,105.72 66.621,105.945 L66.621,126.768 L45.008,126.768 L33.841,120.241 L49.848,120.241 C49.902,120.365 49.947,120.493 50.016,120.613 C50.494,121.445 51.267,122.04 52.194,122.291 C52.505,122.375 52.822,122.417 53.136,122.417 C53.756,122.417 54.369,122.255 54.921,121.938 C56.637,120.951 57.232,118.75 56.245,117.033 C55.258,115.316 53.058,114.721 51.341,115.708 C50.659,116.1 50.148,116.697 49.844,117.406 L28.992,117.406 L23.082,113.952 L23.082,110.11 L40.567,110.11 C40.689,110.393 40.836,110.67 41.037,110.923 C41.745,111.817 42.795,112.283 43.855,112.283 C44.637,112.283 45.424,112.03 46.083,111.507 C47.635,110.277 47.897,108.013 46.666,106.461 C45.437,104.91 43.173,104.646 41.62,105.877 C41.139,106.259 40.797,106.746 40.57,107.275 L20.248,107.275 L20.248,112.295 L6.248,104.112 L6.266,100.055 L30.642,100.055 C30.696,100.18 30.741,100.307 30.81,100.427 C31.288,101.259 32.061,101.855 32.988,102.105 C33.299,102.19 33.616,102.231 33.93,102.231 C34.55,102.231 35.162,102.069 35.715,101.752 C36.546,101.274 37.142,100.499 37.392,99.574 C37.642,98.647 37.517,97.678 37.039,96.847 C36.561,96.015 35.788,95.419 34.861,95.169 C33.935,94.92 32.966,95.045 32.133,95.523 C31.453,95.915 30.942,96.511 30.638,97.22 L6.279,97.22 L6.307,90.74 L21.8,90.74 C21.854,90.865 21.898,90.993 21.967,91.114 C22.631,92.268 23.843,92.914 25.089,92.914 C25.696,92.914 26.31,92.761 26.874,92.438 C28.59,91.45 29.184,89.25 28.197,87.533 C27.719,86.701 26.946,86.105 26.019,85.855 C25.094,85.606 24.125,85.731 23.292,86.208 C22.594,86.61 22.093,87.217 21.797,87.906 L6.32,87.906 L6.349,81.432 L30.642,81.432 C30.696,81.557 30.741,81.685 30.81,81.805 C31.288,82.637 32.061,83.233 32.988,83.483 C33.299,83.567 33.616,83.608 33.93,83.608 C34.55,83.608 35.162,83.446 35.714,83.129 C36.546,82.651 37.142,81.877 37.392,80.951 C37.642,80.025 37.517,79.057 37.039,78.225 C36.561,77.393 35.788,76.797 34.861,76.546 C33.935,76.297 32.966,76.423 32.134,76.9 C31.453,77.292 30.942,77.888 30.638,78.597 L6.361,78.597 L6.39,72.061 L12.082,72.061 C12.136,72.185 12.179,72.313 12.249,72.433 C12.913,73.588 14.125,74.235 15.37,74.235 C15.976,74.235 16.59,74.081 17.153,73.758 C18.871,72.771 19.464,70.571 18.478,68.853 C17.491,67.137 15.291,66.542 13.574,67.529 C12.875,67.93 12.374,68.537 12.078,69.226 L6.403,69.226 L6.535,39.415 L15.726,34.186 L15.726,43.237 C14.449,43.788 13.551,45.058 13.551,46.536 C13.551,48.516 15.163,50.128 17.143,50.128 C19.125,50.128 20.736,48.516 20.736,46.536 C20.736,45.058 19.838,43.788 18.561,43.237 L18.561,32.573 L24.172,29.38 L24.172,43.112 C22.894,43.664 21.996,44.934 21.996,46.411 C21.996,48.392 23.608,50.003 25.589,50.003 C27.57,50.003 29.181,48.392 29.181,46.411 C29.181,44.934 28.284,43.664 27.006,43.113 L27.006,27.767 L29.471,26.365 L32.609,28.169 L32.609,43.113 C31.331,43.664 30.434,44.934 30.434,46.411 C30.434,48.392 32.045,50.003 34.026,50.003 C36.007,50.003 37.619,48.392 37.619,46.411 C37.619,44.934 36.721,43.664 35.443,43.113 L35.443,26.529 L32.329,24.739 L34.751,23.361 L61.115,38.522 L61.115,42.706 L47.186,42.706 C46.68,41.336 45.372,40.351 43.828,40.351 C41.846,40.351 40.235,41.962 40.235,43.943 C40.235,45.924 41.846,47.536 43.828,47.536 C45.232,47.536 46.437,46.718 47.028,45.541 L63.95,45.541 L63.95,36.897 L63.941,36.897 L63.95,36.882 L37.609,21.735 L43.474,18.398 L70.614,34.005 C70.562,34.249 70.531,34.502 70.531,34.762 C70.531,36.743 72.142,38.354 74.122,38.354 C76.104,38.354 77.715,36.743 77.715,34.762 C77.715,32.781 76.104,31.169 74.122,31.169 C73.447,31.169 72.822,31.368 72.281,31.694 L46.332,16.772 L52.272,13.392 L87.884,33.87 C87.81,34.157 87.758,34.452 87.758,34.762 C87.758,36.743 89.37,38.354 91.35,38.354 C93.331,38.354 94.943,36.743 94.943,34.762 C94.943,32.781 93.331,31.169 91.35,31.169 C90.732,31.169 90.159,31.34 89.651,31.617 L55.13,11.766 L62.766,7.421 L118.709,40.121 L118.699,42.402 L87.098,42.402 C86.547,41.124 85.276,40.226 83.799,40.226 C81.818,40.226 80.206,41.838 80.206,43.819 C80.206,45.8 81.818,47.411 83.799,47.411 C85.276,47.411 86.546,46.514 87.097,45.236 L118.686,45.236 L118.597,65.5 L102.929,65.5 C102.378,64.223 101.108,63.325 99.63,63.325 C97.65,63.325 96.038,64.936 96.038,66.917 C96.038,68.898 97.65,70.51 99.63,70.51 C101.108,70.51 102.378,69.612 102.929,68.335 L118.584,68.335 L118.557,74.587 L92.056,74.587 C91.505,73.31 90.236,72.412 88.758,72.412 C86.777,72.412 85.165,74.023 85.165,76.004 C85.165,77.985 86.777,79.597 88.758,79.597 C90.235,79.597 91.505,78.699 92.056,77.422 L118.544,77.422 L118.519,83.158 L102.929,83.158 C102.378,81.881 101.108,80.983 99.63,80.983 C97.65,80.983 96.038,82.595 96.038,84.576 C96.038,86.557 97.65,88.168 99.63,88.168 C101.108,88.168 102.378,87.27 102.929,85.993 L118.506,85.993 L118.442,100.478 L104.007,100.475 L104.007,96.888 C104.134,96.833 104.258,96.774 104.379,96.704 C105.211,96.227 105.807,95.453 106.057,94.527 C106.308,93.6 106.182,92.632 105.705,91.799 C104.717,90.084 102.517,89.488 100.799,90.476 C99.967,90.953 99.371,91.727 99.121,92.654 C98.872,93.58 98.996,94.549 99.475,95.381 C99.867,96.062 100.463,96.573 101.173,96.877 L101.171,103.313 L104.006,103.313 L104.006,103.31 L118.43,103.313 L118.423,104.817 L112.147,108.388 L112.147,108.388 Z M78.101,111.41 C77.223,111.41 76.509,110.696 76.509,109.818 C76.509,108.94 77.223,108.225 78.101,108.225 C78.979,108.225 79.694,108.94 79.694,109.818 C79.694,110.696 78.979,111.41 78.101,111.41 L78.101,111.41 Z M17.143,44.943 C18.021,44.943 18.736,45.658 18.736,46.536 C18.736,47.413 18.021,48.128 17.143,48.128 C16.265,48.128 15.551,47.413 15.551,46.536 C15.551,45.658 16.265,44.943 17.143,44.943 L17.143,44.943 Z M25.589,44.819 C26.467,44.819 27.181,45.533 27.181,46.411 C27.181,47.289 26.467,48.003 25.589,48.003 C24.711,48.003 23.997,47.289 23.997,46.411 C23.997,45.533 24.711,44.819 25.589,44.819 L25.589,44.819 Z M62.797,0.233 L0,35.692 L0,107.666 L62.16,144 L124.957,108.269 L124.957,36.567 L62.797,0.233 L62.797,0.233 Z" id="Fill-1" fill="#404041" mask="url(#mask-2)"></path>
                </g>
                <path d="M90.857,86.901 C88.283,85.015 80.303,80.519 80.303,80.519 L80.303,73.048 L95.757,59.209 L112.11,59.193 L112.11,50.543 L51.182,50.543 L51.125,53.58 L12.847,53.537 L14.879,56.364 C16.91,59.191 20.486,63.351 29.168,67.535 C38.465,72.014 55.606,73.011 55.606,73.011 C55.606,73.011 55.751,80.518 55.642,80.518 C55.534,80.518 54.839,80.657 51.653,82.368 C46.213,85.288 41.861,89.657 41.861,89.657 L41.897,97.273 C41.897,97.273 57.057,97.397 59.458,97.302 C60.856,94.881 64.224,93.174 68.159,93.174 C71.901,93.174 75.131,94.717 76.642,96.95 C76.829,97.15 76.931,97.273 76.931,97.273 L94.665,97.273 L94.52,90.419 C94.52,90.419 93.433,88.787 90.857,86.901" id="Fill-4" fill="#404041"></path>
            </g>
            <path d="M168.023438,65.7929688 L163.49707,65.7929688 L163.49707,56.5498047 L155.015625,56.5498047 L155.015625,65.7929688 L150.474609,65.7929688 L150.474609,44.3769531 L155.015625,44.3769531 L155.015625,52.7705078 L163.49707,52.7705078 L163.49707,44.3769531 L168.023438,44.3769531 L168.023438,65.7929688 Z M183.702539,65.7929688 L182.838281,63.5664062 L182.721094,63.5664062 C181.969137,64.5136766 181.195219,65.1704083 180.399316,65.5366211 C179.603414,65.9028339 178.565827,66.0859375 177.286523,66.0859375 C175.71425,66.0859375 174.476469,65.6367232 173.573145,64.7382812 C172.66982,63.8398393 172.218164,62.5605552 172.218164,60.9003906 C172.218164,59.1621007 172.826068,57.8803752 174.041895,57.0551758 C175.257721,56.2299763 177.091199,55.7734379 179.542383,55.6855469 L182.38418,55.5976562 L182.38418,54.8798828 C182.38418,53.2197183 181.534579,52.3896484 179.835352,52.3896484 C178.526751,52.3896484 176.988681,52.7851523 175.221094,53.5761719 L173.741602,50.5585938 C175.626377,49.5722607 177.716199,49.0791016 180.011133,49.0791016 C182.208409,49.0791016 183.892963,49.5576124 185.064844,50.5146484 C186.236725,51.4716845 186.822656,52.926748 186.822656,54.8798828 L186.822656,65.7929688 L183.702539,65.7929688 Z M182.38418,58.2050781 L180.655664,58.2636719 C179.356829,58.3027346 178.390042,58.5371072 177.755273,58.9667969 C177.120505,59.3964865 176.803125,60.0507769 176.803125,60.9296875 C176.803125,62.1894594 177.525774,62.8193359 178.971094,62.8193359 C180.006255,62.8193359 180.833884,62.5214874 181.454004,61.9257812 C182.074124,61.3300751 182.38418,60.5390674 182.38418,59.5527344 L182.38418,58.2050781 Z M198.297656,66.0859375 C193.199974,66.0859375 190.651172,63.2881139 190.651172,57.6923828 C190.651172,54.9091658 191.344524,52.7827222 192.73125,51.3129883 C194.117976,49.8432544 196.10526,49.1083984 198.693164,49.1083984 C200.587705,49.1083984 202.286907,49.4794885 203.79082,50.2216797 L202.472461,53.6787109 C201.769332,53.3955064 201.115042,53.1635751 200.50957,52.9829102 C199.904099,52.8022452 199.298636,52.7119141 198.693164,52.7119141 C196.368934,52.7119141 195.206836,54.3622882 195.206836,57.6630859 C195.206836,60.866227 196.368934,62.4677734 198.693164,62.4677734 C199.552543,62.4677734 200.348434,62.3530285 201.080859,62.1235352 C201.813285,61.8940418 202.545699,61.5351587 203.278125,61.046875 L203.278125,64.8701172 C202.555465,65.3291039 201.825492,65.6464835 201.088184,65.8222656 C200.350875,65.9980478 199.420709,66.0859375 198.297656,66.0859375 L198.297656,66.0859375 Z M211.589062,56.8867188 L213.537305,54.3964844 L218.122266,49.4160156 L223.161328,49.4160156 L216.657422,56.5205078 L223.556836,65.7929688 L218.400586,65.7929688 L213.683789,59.1572266 L211.764844,60.6953125 L211.764844,65.7929688 L207.29707,65.7929688 L207.29707,43 L211.764844,43 L211.764844,53.1660156 L211.530469,56.8867188 L211.589062,56.8867188 Z M237.551367,60.9296875 C237.551367,62.6093834 236.967877,63.8886675 235.800879,64.7675781 C234.633881,65.6464888 232.888293,66.0859375 230.564062,66.0859375 C229.37265,66.0859375 228.357035,66.0053719 227.517187,65.8442383 C226.67734,65.6831047 225.891215,65.4462906 225.158789,65.1337891 L225.158789,61.4423828 C225.988871,61.8330098 226.923921,62.1601549 227.963965,62.4238281 C229.004009,62.6875013 229.919527,62.8193359 230.710547,62.8193359 C232.331649,62.8193359 233.142187,62.3505906 233.142187,61.4130859 C233.142187,61.0615217 233.034767,60.77588 232.819922,60.5561523 C232.605077,60.3364247 232.233987,60.0874037 231.706641,59.809082 C231.179294,59.5307603 230.476176,59.2060565 229.597266,58.8349609 C228.337494,58.3076146 227.41221,57.8193382 226.821387,57.3701172 C226.230563,56.9208962 225.80088,56.4057646 225.532324,55.824707 C225.263768,55.2436494 225.129492,54.5283246 225.129492,53.6787109 C225.129492,52.2236255 225.693451,51.0981485 226.821387,50.3022461 C227.949322,49.5063437 229.548427,49.1083984 231.61875,49.1083984 C233.591416,49.1083984 235.510342,49.5380816 237.375586,50.3974609 L236.02793,53.6201172 C235.207613,53.2685529 234.441019,52.9804699 233.728125,52.7558594 C233.015231,52.5312489 232.287699,52.4189453 231.545508,52.4189453 C230.227142,52.4189453 229.567969,52.7753871 229.567969,53.4882812 C229.567969,53.8886739 229.780369,54.2353501 230.205176,54.5283203 C230.629983,54.8212905 231.560149,55.2558565 232.995703,55.8320312 C234.275006,56.349612 235.212497,56.8330056 235.808203,57.2822266 C236.403909,57.7314476 236.843358,58.2490205 237.126562,58.8349609 C237.409767,59.4209014 237.551367,60.1191366 237.551367,60.9296875 L237.551367,60.9296875 Z M255.925781,65.7929688 L251.458008,65.7929688 L251.458008,56.2275391 C251.458008,55.0458925 251.260256,54.1596709 250.864746,53.5688477 C250.469236,52.9780244 249.846684,52.6826172 248.99707,52.6826172 C247.854486,52.6826172 247.024417,53.1025349 246.506836,53.9423828 C245.989255,54.7822308 245.730469,56.1640529 245.730469,58.0878906 L245.730469,65.7929688 L241.262695,65.7929688 L241.262695,49.4160156 L244.675781,49.4160156 L245.276367,51.5107422 L245.525391,51.5107422 C245.964846,50.7587853 246.599605,50.1704123 247.429687,49.7456055 C248.25977,49.3207987 249.211909,49.1083984 250.286133,49.1083984 C252.737317,49.1083984 254.397457,49.9091717 255.266602,51.5107422 L255.662109,51.5107422 C256.101565,50.7490196 256.748531,50.1582052 257.603027,49.7382812 C258.457524,49.3183573 259.42187,49.1083984 260.496094,49.1083984 C262.351572,49.1083984 263.755366,49.5844679 264.70752,50.5366211 C265.659673,51.4887743 266.135742,53.0146379 266.135742,55.1142578 L266.135742,65.7929688 L261.65332,65.7929688 L261.65332,56.2275391 C261.65332,55.0458925 261.455568,54.1596709 261.060059,53.5688477 C260.664549,52.9780244 260.041996,52.6826172 259.192383,52.6826172 C258.098627,52.6826172 257.280764,53.0732383 256.73877,53.8544922 C256.196775,54.6357461 255.925781,55.8759681 255.925781,57.5751953 L255.925781,65.7929688 Z M270.755273,45.1826172 C270.755273,43.7275318 271.565812,43 273.186914,43 C274.808016,43 275.618555,43.7275318 275.618555,45.1826172 C275.618555,45.87598 275.41592,46.4155254 275.010644,46.8012695 C274.605369,47.1870136 273.997465,47.3798828 273.186914,47.3798828 C271.565812,47.3798828 270.755273,46.6474683 270.755273,45.1826172 L270.755273,45.1826172 Z M275.413477,65.7929688 L270.945703,65.7929688 L270.945703,49.4160156 L275.413477,49.4160156 L275.413477,65.7929688 Z M287.225391,62.5263672 C288.006644,62.5263672 288.944135,62.3554705 290.037891,62.0136719 L290.037891,65.3388672 C288.924604,65.8369166 287.55743,66.0859375 285.936328,66.0859375 C284.14921,66.0859375 282.847953,65.6342819 282.032519,64.730957 C281.217086,63.8276322 280.809375,62.4726653 280.809375,60.6660156 L280.809375,52.7705078 L278.670703,52.7705078 L278.670703,50.8808594 L281.131641,49.3867188 L282.420703,45.9296875 L285.277148,45.9296875 L285.277148,49.4160156 L289.862109,49.4160156 L289.862109,52.7705078 L285.277148,52.7705078 L285.277148,60.6660156 C285.277148,61.3007844 285.455369,61.7695297 285.811816,62.0722656 C286.168263,62.3750015 286.63945,62.5263672 287.225391,62.5263672 L287.225391,62.5263672 Z M308.690625,65.7929688 L304.222852,65.7929688 L304.222852,56.2275391 C304.222852,53.864246 303.343954,52.6826172 301.586133,52.6826172 C300.336127,52.6826172 299.432815,53.1074176 298.876172,53.9570312 C298.319528,54.8066449 298.041211,56.1835842 298.041211,58.0878906 L298.041211,65.7929688 L293.573437,65.7929688 L293.573437,43 L298.041211,43 L298.041211,47.6435547 C298.041211,48.0048846 298.007032,48.8544855 297.938672,50.1923828 L297.836133,51.5107422 L298.070508,51.5107422 C299.066606,49.9091717 300.648622,49.1083984 302.816602,49.1083984 C304.740439,49.1083984 306.200386,49.6259714 307.196484,50.6611328 C308.192583,51.6962942 308.690625,53.1806544 308.690625,55.1142578 L308.690625,65.7929688 Z M324.941016,60.9296875 C324.941016,62.6093834 324.357525,63.8886675 323.190527,64.7675781 C322.023529,65.6464888 320.277941,66.0859375 317.953711,66.0859375 C316.762299,66.0859375 315.746684,66.0053719 314.906836,65.8442383 C314.066988,65.6831047 313.280863,65.4462906 312.548437,65.1337891 L312.548437,61.4423828 C313.37852,61.8330098 314.313569,62.1601549 315.353613,62.4238281 C316.393657,62.6875013 317.309176,62.8193359 318.100195,62.8193359 C319.721297,62.8193359 320.531836,62.3505906 320.531836,61.4130859 C320.531836,61.0615217 320.424415,60.77588 320.20957,60.5561523 C319.994725,60.3364247 319.623635,60.0874037 319.096289,59.809082 C318.568943,59.5307603 317.865825,59.2060565 316.986914,58.8349609 C315.727142,58.3076146 314.801858,57.8193382 314.211035,57.3701172 C313.620212,56.9208962 313.190529,56.4057646 312.921973,55.824707 C312.653417,55.2436494 312.519141,54.5283246 312.519141,53.6787109 C312.519141,52.2236255 313.0831,51.0981485 314.211035,50.3022461 C315.33897,49.5063437 316.938076,49.1083984 319.008398,49.1083984 C320.981064,49.1083984 322.899991,49.5380816 324.765234,50.3974609 L323.417578,53.6201172 C322.597261,53.2685529 321.830668,52.9804699 321.117773,52.7558594 C320.404879,52.5312489 319.677347,52.4189453 318.935156,52.4189453 C317.61679,52.4189453 316.957617,52.7753871 316.957617,53.4882812 C316.957617,53.8886739 317.170017,54.2353501 317.594824,54.5283203 C318.019631,54.8212905 318.949797,55.2558565 320.385352,55.8320312 C321.664655,56.349612 322.602145,56.8330056 323.197852,57.2822266 C323.793558,57.7314476 324.233006,58.2490205 324.516211,58.8349609 C324.799415,59.4209014 324.941016,60.1191366 324.941016,60.9296875 L324.941016,60.9296875 Z M156.021484,88.3125 L160.875,88.3125 L160.875,95.2558594 C160.119788,95.496746 159.351566,95.6790358 158.570312,95.8027344 C157.789059,95.9264329 156.88412,95.9882812 155.855469,95.9882812 C153.694,95.9882812 152.011074,95.345384 150.806641,94.0595703 C149.602208,92.7737566 149,90.9720168 149,88.6542969 C149,87.1699145 149.297849,85.8694717 149.893555,84.7529297 C150.489261,83.6363876 151.347,82.7835316 152.466797,82.1943359 C153.586594,81.6051403 154.89843,81.3105469 156.402344,81.3105469 C157.925789,81.3105469 159.345046,81.590492 160.660156,82.1503906 L160.015625,83.6152344 C158.726556,83.0683566 157.486334,82.7949219 156.294922,82.7949219 C154.556632,82.7949219 153.199224,83.3124948 152.222656,84.3476562 C151.246089,85.3828177 150.757812,86.8183502 150.757812,88.6542969 C150.757812,90.5813898 151.228185,92.0429638 152.168945,93.0390625 C153.109705,94.0351612 154.491527,94.5332031 156.314453,94.5332031 C157.304041,94.5332031 158.270829,94.419272 159.214844,94.1914062 L159.214844,89.796875 L156.021484,89.796875 L156.021484,88.3125 Z M173.446875,90.4316406 C173.446875,92.176441 173.007426,93.5387321 172.128516,94.5185547 C171.249605,95.4983773 170.035424,95.9882812 168.485937,95.9882812 C167.528901,95.9882812 166.679301,95.7636741 165.937109,95.3144531 C165.194918,94.8652321 164.622007,94.2207073 164.218359,93.3808594 C163.814712,92.5410114 163.612891,91.5579483 163.612891,90.4316406 C163.612891,88.6868402 164.049084,87.3278043 164.921484,86.3544922 C165.793885,85.38118 167.00481,84.8945312 168.554297,84.8945312 C170.0517,84.8945312 171.241467,85.3925731 172.123633,86.3886719 C173.005799,87.3847706 173.446875,88.7324134 173.446875,90.4316406 L173.446875,90.4316406 Z M165.292578,90.4316406 C165.292578,91.798835 165.566013,92.8404912 166.112891,93.5566406 C166.659768,94.27279 167.463797,94.6308594 168.525,94.6308594 C169.586203,94.6308594 170.391859,94.2744176 170.941992,93.5615234 C171.492125,92.8486292 171.767187,91.8053454 171.767187,90.4316406 C171.767187,89.0709567 171.492125,88.0374384 170.941992,87.3310547 C170.391859,86.6246709 169.579693,86.2714844 168.505469,86.2714844 C167.444266,86.2714844 166.643492,86.6197882 166.103125,87.3164062 C165.562758,88.0130243 165.292578,89.0514254 165.292578,90.4316406 L165.292578,90.4316406 Z M178.059766,95.7929688 L176.438672,95.7929688 L176.438672,80.5976562 L178.059766,80.5976562 L178.059766,95.7929688 Z M188.932422,94.3574219 L188.844531,94.3574219 C188.09583,95.4446669 186.976049,95.9882812 185.485156,95.9882812 C184.08541,95.9882812 182.996553,95.5097704 182.218555,94.5527344 C181.440556,93.5956983 181.051562,92.2350349 181.051562,90.4707031 C181.051562,88.7063714 181.442184,87.3359424 182.223437,86.359375 C183.004691,85.3828076 184.09192,84.8945312 185.485156,84.8945312 C186.936986,84.8945312 188.050257,85.4218697 188.825,86.4765625 L188.951953,86.4765625 L188.883594,85.7050781 L188.844531,84.953125 L188.844531,80.5976562 L190.465625,80.5976562 L190.465625,95.7929688 L189.147266,95.7929688 L188.932422,94.3574219 Z M185.690234,94.6308594 C186.797011,94.6308594 187.599412,94.3297556 188.097461,93.7275391 C188.59551,93.1253225 188.844531,92.1536525 188.844531,90.8125 L188.844531,90.4707031 C188.844531,88.9537685 188.592255,87.8714225 188.087695,87.2236328 C187.583135,86.5758431 186.777479,86.2519531 185.670703,86.2519531 C184.720178,86.2519531 183.992646,86.6214156 183.488086,87.3603516 C182.983526,88.0992875 182.73125,89.1425714 182.73125,90.4902344 C182.73125,91.8574287 182.981899,92.8893194 183.483203,93.5859375 C183.984508,94.2825556 184.720177,94.6308594 185.690234,94.6308594 L185.690234,94.6308594 Z M200.957422,92.8730469 C200.957422,93.8691456 200.586332,94.6373671 199.844141,95.1777344 C199.101949,95.7181017 198.060293,95.9882812 196.719141,95.9882812 C195.299863,95.9882812 194.193103,95.7636741 193.398828,95.3144531 L193.398828,93.8105469 C193.913154,94.0709648 194.464906,94.2760409 195.054102,94.4257812 C195.643297,94.5755216 196.211325,94.6503906 196.758203,94.6503906 C197.604561,94.6503906 198.255597,94.5153008 198.711328,94.2451172 C199.16706,93.9749335 199.394922,93.5631538 199.394922,93.0097656 C199.394922,92.5930969 199.21426,92.2366551 198.85293,91.9404297 C198.4916,91.6442042 197.786854,91.2942729 196.738672,90.890625 C195.742573,90.5195294 195.034572,90.1956394 194.614648,89.9189453 C194.194724,89.6422512 193.882228,89.3281268 193.677148,88.9765625 C193.472069,88.6249982 193.369531,88.2050806 193.369531,87.7167969 C193.369531,86.8443967 193.724345,86.155927 194.433984,85.6513672 C195.143623,85.1468074 196.116921,84.8945312 197.353906,84.8945312 C198.506256,84.8945312 199.632547,85.1289039 200.732812,85.5976562 L200.156641,86.9160156 C199.082416,86.4733051 198.109119,86.2519531 197.236719,86.2519531 C196.468486,86.2519531 195.889064,86.3723946 195.498437,86.6132812 C195.107811,86.8541679 194.9125,87.1861958 194.9125,87.609375 C194.9125,87.8958348 194.985741,88.1399729 195.132227,88.3417969 C195.278712,88.5436208 195.514712,88.7356762 195.840234,88.9179688 C196.165757,89.1002613 196.790751,89.3639306 197.715234,89.7089844 C198.984772,90.1712263 199.842511,90.6367164 200.288477,91.1054688 C200.734442,91.5742211 200.957422,92.1634079 200.957422,92.8730469 L200.957422,92.8730469 Z M217.386719,95.7929688 L217.386719,88.8300781 C217.386719,87.9772093 217.204429,87.3375672 216.839844,86.9111328 C216.475259,86.4846984 215.908858,86.2714844 215.140625,86.2714844 C214.131505,86.2714844 213.38607,86.561195 212.904297,87.140625 C212.422524,87.720055 212.181641,88.6119731 212.181641,89.8164062 L212.181641,95.7929688 L210.560547,95.7929688 L210.560547,88.8300781 C210.560547,87.9772093 210.378257,87.3375672 210.013672,86.9111328 C209.649087,86.4846984 209.079431,86.2714844 208.304687,86.2714844 C207.289057,86.2714844 206.54525,86.5758433 206.073242,87.1845703 C205.601235,87.7932973 205.365234,88.7910087 205.365234,90.1777344 L205.365234,95.7929688 L203.744141,95.7929688 L203.744141,85.0898438 L205.0625,85.0898438 L205.326172,86.5546875 L205.404297,86.5546875 C205.710288,86.0338516 206.141599,85.6269546 206.698242,85.3339844 C207.254886,85.0410142 207.878252,84.8945312 208.568359,84.8945312 C210.241545,84.8945312 211.335284,85.4999939 211.849609,86.7109375 L211.927734,86.7109375 C212.246746,86.1510389 212.708981,85.708335 213.314453,85.3828125 C213.919925,85.05729 214.610022,84.8945312 215.384766,84.8945312 C216.595709,84.8945312 217.502276,85.2054005 218.104492,85.8271484 C218.706709,86.4488963 219.007812,87.4433525 219.007812,88.8105469 L219.007812,95.7929688 L217.386719,95.7929688 Z M224.11875,95.7929688 L222.497656,95.7929688 L222.497656,85.0898438 L224.11875,85.0898438 L224.11875,95.7929688 Z M222.360937,82.1894531 C222.360937,81.8183575 222.452082,81.5465503 222.634375,81.3740234 C222.816668,81.2014965 223.04453,81.1152344 223.317969,81.1152344 C223.578387,81.1152344 223.802994,81.2031241 223.991797,81.3789062 C224.1806,81.5546884 224.275,81.824868 224.275,82.1894531 C224.275,82.5540383 224.1806,82.8258455 223.991797,83.0048828 C223.802994,83.1839202 223.578387,83.2734375 223.317969,83.2734375 C223.04453,83.2734375 222.816668,83.1839202 222.634375,83.0048828 C222.452082,82.8258455 222.360937,82.5540383 222.360937,82.1894531 L222.360937,82.1894531 Z M231.163281,94.6503906 C231.449741,94.6503906 231.726431,94.629232 231.993359,94.5869141 C232.260288,94.5445961 232.471874,94.5006513 232.628125,94.4550781 L232.628125,95.6953125 C232.452343,95.7799483 232.193556,95.8499346 231.851758,95.9052734 C231.509959,95.9606123 231.202345,95.9882812 230.928906,95.9882812 C228.858583,95.9882812 227.823437,94.8977974 227.823437,92.7167969 L227.823437,86.3496094 L226.290234,86.3496094 L226.290234,85.5683594 L227.823437,84.8945312 L228.507031,82.609375 L229.444531,82.609375 L229.444531,85.0898438 L232.55,85.0898438 L232.55,86.3496094 L229.444531,86.3496094 L229.444531,92.6484375 C229.444531,93.292972 229.597524,93.7877587 229.903516,94.1328125 C230.209507,94.4778663 230.629424,94.6503906 231.163281,94.6503906 L231.163281,94.6503906 Z M242.241016,95.7929688 L242.241016,88.8691406 C242.241016,87.9967404 242.04245,87.3457053 241.645312,86.9160156 C241.248175,86.486326 240.626436,86.2714844 239.780078,86.2714844 C238.65377,86.2714844 237.831838,86.5774709 237.314258,87.1894531 C236.796677,87.8014354 236.537891,88.8040295 236.537891,90.1972656 L236.537891,95.7929688 L234.916797,95.7929688 L234.916797,80.5976562 L236.537891,80.5976562 L236.537891,85.1972656 C236.537891,85.7506538 236.511849,86.2096336 236.459766,86.5742188 L236.557422,86.5742188 C236.876434,86.0598933 237.330531,85.6546239 237.919726,85.3583984 C238.508922,85.062173 239.181116,84.9140625 239.936328,84.9140625 C241.244928,84.9140625 242.226364,85.2249318 242.880664,85.8466797 C243.534964,86.4684276 243.862109,87.4563734 243.862109,88.8105469 L243.862109,95.7929688 L242.241016,95.7929688 Z M254.246484,92.8730469 C254.246484,93.8691456 253.875394,94.6373671 253.133203,95.1777344 C252.391012,95.7181017 251.349356,95.9882812 250.008203,95.9882812 C248.588925,95.9882812 247.482165,95.7636741 246.687891,95.3144531 L246.687891,93.8105469 C247.202216,94.0709648 247.753968,94.2760409 248.343164,94.4257812 C248.93236,94.5755216 249.500388,94.6503906 250.047266,94.6503906 C250.893624,94.6503906 251.544659,94.5153008 252.000391,94.2451172 C252.456122,93.9749335 252.683984,93.5631538 252.683984,93.0097656 C252.683984,92.5930969 252.503322,92.2366551 252.141992,91.9404297 C251.780662,91.6442042 251.075917,91.2942729 250.027734,90.890625 C249.031636,90.5195294 248.323635,90.1956394 247.903711,89.9189453 C247.483787,89.6422512 247.17129,89.3281268 246.966211,88.9765625 C246.761132,88.6249982 246.658594,88.2050806 246.658594,87.7167969 C246.658594,86.8443967 247.013408,86.155927 247.723047,85.6513672 C248.432686,85.1468074 249.405983,84.8945312 250.642969,84.8945312 C251.795318,84.8945312 252.921609,85.1289039 254.021875,85.5976562 L253.445703,86.9160156 C252.371479,86.4733051 251.398181,86.2519531 250.525781,86.2519531 C249.757548,86.2519531 249.178127,86.3723946 248.7875,86.6132812 C248.396873,86.8541679 248.201562,87.1861958 248.201562,87.609375 C248.201562,87.8958348 248.274804,88.1399729 248.421289,88.3417969 C248.567774,88.5436208 248.803774,88.7356762 249.129297,88.9179688 C249.454819,89.1002613 250.079813,89.3639306 251.004297,89.7089844 C252.273834,90.1712263 253.131573,90.6367164 253.577539,91.1054688 C254.023505,91.5742211 254.246484,92.1634079 254.246484,92.8730469 L254.246484,92.8730469 Z M267.017187,95.7929688 L265.357031,95.7929688 L265.357031,82.9902344 L260.835547,82.9902344 L260.835547,81.515625 L271.538672,81.515625 L271.538672,82.9902344 L267.017187,82.9902344 L267.017187,95.7929688 Z M276.717969,95.9882812 C275.135929,95.9882812 273.88757,95.5065152 272.972851,94.5429688 C272.058133,93.5794223 271.600781,92.241545 271.600781,90.5292969 C271.600781,88.8040278 272.025582,87.4335988 272.875195,86.4179688 C273.724809,85.4023387 274.865748,84.8945312 276.298047,84.8945312 C277.639199,84.8945312 278.700387,85.3356076 279.481641,86.2177734 C280.262894,87.0999393 280.653516,88.2636646 280.653516,89.7089844 L280.653516,90.734375 L273.280469,90.734375 C273.313021,91.9908917 273.630401,92.9446582 274.232617,93.5957031 C274.834834,94.246748 275.682807,94.5722656 276.776562,94.5722656 C277.928912,94.5722656 279.068223,94.3313826 280.194531,93.8496094 L280.194531,95.2949219 C279.621612,95.5423189 279.079625,95.719726 278.568555,95.8271484 C278.057484,95.9345708 277.440629,95.9882812 276.717969,95.9882812 L276.717969,95.9882812 Z M276.278516,86.2519531 C275.419136,86.2519531 274.733922,86.5318982 274.222851,87.0917969 C273.711781,87.6516955 273.410677,88.4264273 273.319531,89.4160156 L278.915234,89.4160156 C278.915234,88.3938751 278.687372,87.6110053 278.231641,87.0673828 C277.775909,86.5237603 277.124874,86.2519531 276.278516,86.2519531 L276.278516,86.2519531 Z M287.844531,95.9882812 C286.295044,95.9882812 285.095512,95.511398 284.245898,94.5576172 C283.396285,93.6038364 282.971484,92.254566 282.971484,90.5097656 C282.971484,88.7193921 283.402795,87.3359424 284.26543,86.359375 C285.128064,85.3828076 286.356893,84.8945312 287.951953,84.8945312 C288.466278,84.8945312 288.980596,84.9498692 289.494922,85.0605469 C290.009247,85.1712245 290.412889,85.3014315 290.705859,85.4511719 L290.207812,86.828125 C289.849738,86.6848951 289.459117,86.5660812 289.035937,86.4716797 C288.612758,86.3772782 288.238413,86.3300781 287.912891,86.3300781 C285.7384,86.3300781 284.651172,87.716783 284.651172,90.4902344 C284.651172,91.8053451 284.916469,92.8144496 285.44707,93.5175781 C285.977672,94.2207066 286.763797,94.5722656 287.805469,94.5722656 C288.6974,94.5722656 289.612105,94.3802103 290.549609,93.9960938 L290.549609,95.4316406 C289.83346,95.8027362 288.931776,95.9882812 287.844531,95.9882812 L287.844531,95.9882812 Z M300.56289,95.7929688 L300.56289,88.8691406 C300.56289,87.9967404 300.364325,87.3457053 299.967187,86.9160156 C299.57005,86.486326 298.948311,86.2714844 298.101953,86.2714844 C296.975645,86.2714844 296.153713,86.5774709 295.636133,87.1894531 C295.118552,87.8014354 294.859765,88.8040295 294.859765,90.1972656 L294.859765,95.7929688 L293.238672,95.7929688 L293.238672,80.5976562 L294.859765,80.5976562 L294.859765,85.1972656 C294.859765,85.7506538 294.833724,86.2096336 294.78164,86.5742188 L294.879297,86.5742188 C295.198309,86.0598933 295.652406,85.6546239 296.241601,85.3583984 C296.830797,85.062173 297.502991,84.9140625 298.258203,84.9140625 C299.566803,84.9140625 300.548239,85.2249318 301.202539,85.8466797 C301.856839,86.4684276 302.183984,87.4563734 302.183984,88.8105469 L302.183984,95.7929688 L300.56289,95.7929688 Z M319.310156,91.9941406 C319.310156,93.2506573 318.854431,94.2304652 317.942969,94.9335938 C317.031506,95.6367223 315.794539,95.9882812 314.232031,95.9882812 C312.539314,95.9882812 311.237244,95.7701845 310.325781,95.3339844 L310.325781,93.7324219 C310.911722,93.9798189 311.549736,94.1751295 312.239844,94.3183594 C312.929951,94.4615893 313.613538,94.5332031 314.290625,94.5332031 C315.397401,94.5332031 316.230726,94.3232443 316.790625,93.9033203 C317.350523,93.4833963 317.630469,92.8990923 317.630469,92.1503906 C317.630469,91.6555965 317.531186,91.2503271 317.332617,90.9345703 C317.134048,90.6188135 316.80202,90.3274753 316.336523,90.0605469 C315.871026,89.7936185 315.163025,89.4908871 314.2125,89.1523438 C312.884368,88.677081 311.935484,88.1139355 311.36582,87.4628906 C310.796156,86.8118457 310.511328,85.9622448 310.511328,84.9140625 C310.511328,83.8137966 310.924735,82.9381543 311.751562,82.2871094 C312.578389,81.6360645 313.672128,81.3105469 315.032812,81.3105469 C316.45209,81.3105469 317.757416,81.5709609 318.948828,82.0917969 L318.43125,83.5371094 C317.252859,83.0423152 316.107037,82.7949219 314.99375,82.7949219 C314.114839,82.7949219 313.427997,82.9837221 312.933203,83.3613281 C312.438409,83.7389342 312.191015,84.2630175 312.191015,84.9335938 C312.191015,85.4283879 312.28216,85.8336573 312.464453,86.1494141 C312.646746,86.4651708 312.95436,86.7548815 313.387305,87.0185547 C313.820249,87.2822279 314.482678,87.5735661 315.374609,87.8925781 C316.872013,88.426435 317.902276,88.9993459 318.46543,89.6113281 C319.028583,90.2233104 319.310156,91.0175732 319.310156,91.9941406 L319.310156,91.9941406 Z M331.374219,90.4316406 C331.374219,92.176441 330.93477,93.5387321 330.055859,94.5185547 C329.176949,95.4983773 327.962768,95.9882812 326.413281,95.9882812 C325.456245,95.9882812 324.606644,95.7636741 323.864453,95.3144531 C323.122262,94.8652321 322.549351,94.2207073 322.145703,93.3808594 C321.742055,92.5410114 321.540234,91.5579483 321.540234,90.4316406 C321.540234,88.6868402 321.976428,87.3278043 322.848828,86.3544922 C323.721228,85.38118 324.932154,84.8945312 326.48164,84.8945312 C327.979044,84.8945312 329.168811,85.3925731 330.050976,86.3886719 C330.933142,87.3847706 331.374219,88.7324134 331.374219,90.4316406 L331.374219,90.4316406 Z M323.219922,90.4316406 C323.219922,91.798835 323.493356,92.8404912 324.040234,93.5566406 C324.587112,94.27279 325.39114,94.6308594 326.452344,94.6308594 C327.513547,94.6308594 328.319203,94.2744176 328.869336,93.5615234 C329.419469,92.8486292 329.694531,91.8053454 329.694531,90.4316406 C329.694531,89.0709567 329.419469,88.0374384 328.869336,87.3310547 C328.319203,86.6246709 327.507036,86.2714844 326.432812,86.2714844 C325.371609,86.2714844 324.570836,86.6197882 324.030469,87.3164062 C323.490101,88.0130243 323.219922,89.0514254 323.219922,90.4316406 L323.219922,90.4316406 Z M338.643359,95.9882812 C337.093872,95.9882812 335.89434,95.511398 335.044726,94.5576172 C334.195113,93.6038364 333.770312,92.254566 333.770312,90.5097656 C333.770312,88.7193921 334.201623,87.3359424 335.064258,86.359375 C335.926892,85.3828076 337.155721,84.8945312 338.750781,84.8945312 C339.265107,84.8945312 339.779424,84.9498692 340.29375,85.0605469 C340.808075,85.1712245 341.211717,85.3014315 341.504687,85.4511719 L341.00664,86.828125 C340.648566,86.6848951 340.257945,86.5660812 339.834765,86.4716797 C339.411586,86.3772782 339.037241,86.3300781 338.711719,86.3300781 C336.537229,86.3300781 335.45,87.716783 335.45,90.4902344 C335.45,91.8053451 335.715297,92.8144496 336.245898,93.5175781 C336.7765,94.2207066 337.562625,94.5722656 338.604297,94.5722656 C339.496228,94.5722656 340.410933,94.3802103 341.348437,93.9960938 L341.348437,95.4316406 C340.632288,95.8027362 339.730604,95.9882812 338.643359,95.9882812 L338.643359,95.9882812 Z M345.658594,95.7929688 L344.0375,95.7929688 L344.0375,85.0898438 L345.658594,85.0898438 L345.658594,95.7929688 Z M343.900781,82.1894531 C343.900781,81.8183575 343.991926,81.5465503 344.174219,81.3740234 C344.356511,81.2014965 344.584373,81.1152344 344.857812,81.1152344 C345.11823,81.1152344 345.342837,81.2031241 345.53164,81.3789062 C345.720443,81.5546884 345.814844,81.824868 345.814844,82.1894531 C345.814844,82.5540383 345.720443,82.8258455 345.53164,83.0048828 C345.342837,83.1839202 345.11823,83.2734375 344.857812,83.2734375 C344.584373,83.2734375 344.356511,83.1839202 344.174219,83.0048828 C343.991926,82.8258455 343.900781,82.5540383 343.900781,82.1894531 L343.900781,82.1894531 Z M353.767578,95.9882812 C352.185539,95.9882812 350.937179,95.5065152 350.022461,94.5429688 C349.107743,93.5794223 348.65039,92.241545 348.65039,90.5292969 C348.65039,88.8040278 349.075191,87.4335988 349.924805,86.4179688 C350.774418,85.4023387 351.915357,84.8945312 353.347656,84.8945312 C354.688809,84.8945312 355.749996,85.3356076 356.53125,86.2177734 C357.312504,87.0999393 357.703125,88.2636646 357.703125,89.7089844 L357.703125,90.734375 L350.330078,90.734375 C350.36263,91.9908917 350.68001,92.9446582 351.282226,93.5957031 C351.884443,94.246748 352.732416,94.5722656 353.826172,94.5722656 C354.978521,94.5722656 356.117833,94.3313826 357.24414,93.8496094 L357.24414,95.2949219 C356.671221,95.5423189 356.129234,95.719726 355.618164,95.8271484 C355.107094,95.9345708 354.490238,95.9882812 353.767578,95.9882812 L353.767578,95.9882812 Z M353.328125,86.2519531 C352.468746,86.2519531 351.783531,86.5318982 351.272461,87.0917969 C350.76139,87.6516955 350.460287,88.4264273 350.36914,89.4160156 L355.964844,89.4160156 C355.964844,88.3938751 355.736981,87.6110053 355.28125,87.0673828 C354.825518,86.5237603 354.174483,86.2519531 353.328125,86.2519531 L353.328125,86.2519531 Z M364.073828,94.6503906 C364.360288,94.6503906 364.636978,94.629232 364.903906,94.5869141 C365.170834,94.5445961 365.382421,94.5006513 365.538672,94.4550781 L365.538672,95.6953125 C365.36289,95.7799483 365.104103,95.8499346 364.762304,95.9052734 C364.420506,95.9606123 364.112892,95.9882812 363.839453,95.9882812 C361.76913,95.9882812 360.733984,94.8977974 360.733984,92.7167969 L360.733984,86.3496094 L359.200781,86.3496094 L359.200781,85.5683594 L360.733984,84.8945312 L361.417578,82.609375 L362.355078,82.609375 L362.355078,85.0898438 L365.460547,85.0898438 L365.460547,86.3496094 L362.355078,86.3496094 L362.355078,92.6484375 C362.355078,93.292972 362.508071,93.7877587 362.814062,94.1328125 C363.120053,94.4778663 363.539971,94.6503906 364.073828,94.6503906 L364.073828,94.6503906 Z M366.128125,85.0898438 L367.866406,85.0898438 L370.210156,91.1933594 C370.724482,92.5865955 371.043489,93.5924448 371.167187,94.2109375 L371.245312,94.2109375 C371.329948,93.8789046 371.507355,93.3108764 371.777539,92.5068359 C372.047723,91.7027955 372.931503,89.2304895 374.428906,85.0898438 L376.167187,85.0898438 L371.567578,97.2773438 C371.111846,98.4817769 370.579625,99.3362605 369.970898,99.8408203 C369.362171,100.34538 368.615108,100.597656 367.729687,100.597656 C367.234893,100.597656 366.746617,100.542318 366.264844,100.431641 L366.264844,99.1328125 C366.622918,99.2109379 367.023305,99.25 367.466015,99.25 C368.579302,99.25 369.373565,98.6250062 369.848828,97.375 L370.444531,95.8515625 L366.128125,85.0898438 Z" id="Hacksmiths-Goldsmith" fill="#404041"></path>
        </g>
    </g>
</svg>