<?xml version="1.0" encoding="UTF-8"?>
<svg width="746px" height="141px" viewBox="0 0 746 141" version="1.1" xmlns="http://www.w3.org/2000/svg" xmlns:xlink="http://www.w3.org/1999/xlink">
    <!-- Generator: Sketch 39.1 (31720) - http://www.bohemiancoding.com/sketch -->
    <title>Logo Horizontal Black on White</title>
    <desc>Created with Sketch.</desc>
    <defs></defs>
    <g id="Page-1" stroke="none" stroke-width="1" fill="none" fill-rule="evenodd">
        <g id="Logo-Horizontal-Black-on-White">
            <polygon id="Fill-1" fill="#00A189" points="95.0987 137.24229 88.8507 137.24229 88.8507 30.9063 49.2977 56.6433 45.8897 51.4083 95.0987 19.3833"></polygon>
            <polygon id="Fill-2" fill="#00A189" points="139.4806 137.24232 133.2316 137.24232 133.2316 31.5293 4.87357 112.14932 1.55057 106.85732 139.4806 20.2243"></polygon>
            <polygon id="Fill-3" fill="#00A189" points="49.24938 139.89241 45.93838 134.59241 183.8624 48.3894 183.8624 137.24241 177.6134 137.24241 177.6134 59.6614"></polygon>
            <path d="M50.71799,140.3655 L0.08799,140.3655 L0.08799,0.6345 L50.71799,0.6345 L50.71799,140.3655 Z M6.33599,134.1185 L44.46899,134.1185 L44.46899,6.8805 L6.33599,6.8805 L6.33599,134.1185 Z" id="Fill-4" fill="#00A189"></path>
            <path d="M183.862,140.36549 L0.088,140.36549 L0.088,106.38049 L183.862,106.38049 L183.862,140.36549 Z M6.336,134.11849 L177.613,134.11849 L177.613,112.62649 L6.336,112.62649 L6.336,134.11849 Z" id="Fill-5" fill="#00A189"></path>
            <polygon id="Fill-6" fill="#000000" points="225.3342 49.8699 225.3342 55.6149 231.0192 55.6149 231.0192 91.34191 237.3612 91.34191 237.3612 55.6149 243.0492 55.6149 243.0492 49.8699"></polygon>
            <polygon id="Fill-7" fill="#000000" points="261.4232 49.8699 261.4232 67.3469 255.3172 67.3469 255.3172 49.8699 248.9772 49.8699 248.9772 91.34191 255.3172 91.34191 255.3172 73.0949 261.4232 73.0949 261.4232 91.34191 267.7592 91.34191 267.7592 49.8699"></polygon>
            <polygon id="Fill-8" fill="#000000" points="273.718 49.8699 273.718 91.34191 287.933 91.34191 287.933 85.59391 280.053 85.59391 280.053 73.0949 283.57 73.0949 283.57 67.3469 280.053 67.3469 280.053 55.6149 287.815 55.6149 287.815 49.8699"></polygon>
            <path d="M339.6879,87.92661 L339.6879,97.29861 C339.6879,104.45061 336.1529,107.98161 329.0009,107.98161 L325.1399,107.98161 C317.9889,107.98161 314.5339,104.45061 314.5339,97.37961 L314.5339,85.21361 L323.0839,85.21361 L323.0839,97.04861 C323.0839,99.26961 324.1519,100.33761 326.4549,100.33761 L327.6029,100.33761 C329.9039,100.33761 330.9719,99.26961 330.9719,97.04861 L330.9719,89.16061 C330.9719,86.77861 330.1549,85.70461 328.5109,84.47661 L319.6329,77.9826 C315.6879,75.1836 314.5339,72.4766 314.5339,68.0336 L314.5339,60.1456 C314.5339,52.9936 318.0689,49.4586 325.2199,49.4586 L328.9209,49.4586 C335.9869,49.4586 339.5219,52.9936 339.5219,60.0636 L339.5219,70.5006 L330.8919,70.5006 L330.8919,60.3916 C330.8919,58.1736 329.8239,57.1046 327.6029,57.1046 L326.5349,57.1046 C324.3169,57.1046 323.2499,58.1736 323.2499,60.3916 L323.2499,66.8056 C323.2499,69.1866 324.0719,70.3346 325.7119,71.4886 L334.5929,77.9826 C338.4539,80.7746 339.6879,83.24361 339.6879,87.92661" id="Fill-9" fill="#000000"></path>
            <path d="M378.2211,83.9001 L378.2211,97.2991 C378.2211,104.4511 374.6861,107.9801 367.5341,107.9801 L363.1771,107.9801 C356.0311,107.9801 352.4961,104.4511 352.4961,97.2991 L352.4961,60.1441 C352.4961,52.9941 356.0311,49.4571 363.1771,49.4571 L367.4541,49.4571 C374.6061,49.4571 378.0551,52.9121 378.0551,60.0641 L378.0551,71.8151 L369.4251,71.8151 L369.4251,60.5561 C369.4251,58.2541 368.3571,57.1851 366.1401,57.1851 L364.6621,57.1851 C362.3591,57.1851 361.2911,58.2541 361.2911,60.5561 L361.2911,96.8871 C361.2911,99.1901 362.3591,100.2581 364.6621,100.2581 L366.3021,100.2581 C368.5231,100.2581 369.5911,99.1901 369.5911,96.8871 L369.5911,83.9001 L378.2211,83.9001 Z" id="Fill-10" fill="#000000"></path>
            <path d="M403.1039,61.8707 L406.6399,90.64072 L399.4889,90.64072 L403.1039,61.8707 Z M397.5179,49.8697 L389.2989,107.49072 L397.4319,107.49072 L398.5009,98.44872 L407.6289,98.44872 L408.7769,107.49072 L417.4919,107.49072 L409.1869,49.8697 L397.5179,49.8697 Z" id="Fill-11" fill="#000000"></path>
            <polygon id="Fill-12" fill="#000000" points="429.3111 49.9538 429.3111 107.4898 447.8071 107.4898 447.8071 99.5158 438.1071 99.5158 438.1071 49.9538"></polygon>
            <polygon id="Fill-13" fill="#000000" points="460.0428 49.9538 460.0428 107.4898 479.7658 107.4898 479.7658 99.5158 468.8328 99.5158 468.8328 82.1758 475.2298 82.1758 475.2298 74.2018 468.8328 74.2018 468.8328 57.9218 479.5998 57.9218 479.5998 49.9538"></polygon>
            <polygon id="Fill-14" fill="#000000" points="225.334 107.49052 287.933 107.49052 287.933 101.44652 225.334 101.44652"></polygon>
            <polygon id="Fill-15" fill="#000000" points="505.6067 50.1924 505.6067 107.25641 514.3257 107.25641 514.3257 82.4714 524.1937 82.4714 524.1937 74.5624 514.3257 74.5624 514.3257 58.0954 524.6017 58.0954 524.6017 50.1924"></polygon>
            <path d="M547.2465,62.0091 L550.7525,90.5441 L543.6595,90.5441 L547.2465,62.0091 Z M541.7065,50.1081 L533.5545,107.2561 L541.6225,107.2561 L542.6815,98.2881 L551.7325,98.2881 L552.8725,107.2561 L561.5165,107.2561 L553.2805,50.1081 L541.7065,50.1081 Z" id="Fill-16" fill="#000000"></path>
            <path d="M598.193,83.85912 L598.193,97.14912 C598.193,104.24212 594.687,107.74412 587.593,107.74412 L583.276,107.74412 C576.184,107.74412 572.678,104.24212 572.678,97.14912 L572.678,60.2981 C572.678,53.2061 576.184,49.7001 583.276,49.7001 L587.514,49.7001 C594.607,49.7001 598.029,53.1261 598.029,60.2191 L598.029,71.8721 L589.469,71.8721 L589.469,60.7061 C589.469,58.4241 588.41,57.3641 586.211,57.3641 L584.744,57.3641 C582.461,57.3641 581.402,58.4241 581.402,60.7061 L581.402,96.74212 C581.402,99.02512 582.461,100.08312 584.744,100.08312 L586.37,100.08312 C588.573,100.08312 589.633,99.02512 589.633,96.74212 L589.633,83.85912 L598.193,83.85912 Z" id="Fill-17" fill="#000000"></path>
            <polygon id="Fill-18" fill="#000000" points="609.6059 50.1924 609.6059 58.0954 617.431 58.0954 617.431 107.25641 626.153 107.25641 626.153 58.0954 633.983 58.0954 633.983 50.1924"></polygon>
            <path d="M659.254,57.3646 L657.463,57.3646 C655.179,57.3646 654.122,58.4246 654.122,60.7076 L654.122,96.7416 C654.122,99.0246 655.179,100.0836 657.463,100.0836 L659.254,100.0836 C661.457,100.0836 662.516,99.0246 662.516,96.7416 L662.516,60.7076 C662.516,58.4246 661.457,57.3646 659.254,57.3646 M660.641,107.7436 L655.991,107.7436 C648.904,107.7436 645.397,104.2416 645.397,97.1496 L645.397,60.2996 C645.397,53.2056 648.904,49.6986 655.991,49.6986 L660.641,49.6986 C667.734,49.6986 671.24,53.2056 671.24,60.2996 L671.24,97.1496 C671.24,104.2416 667.734,107.7436 660.641,107.7436" id="Fill-19" fill="#000000"></path>
            <path d="M696.944,57.9361 L692.702,57.9361 L692.702,76.7671 L696.616,76.7671 C699.064,76.7671 700.201,75.6221 700.201,73.2611 L700.201,61.1931 C700.201,58.9951 699.143,57.9361 696.944,57.9361 M709.006,87.85312 L709.006,107.25712 L700.287,107.25712 L700.287,88.01712 C700.287,85.49112 699.143,84.34712 696.616,84.34712 L692.702,84.34712 L692.702,107.25712 L683.983,107.25712 L683.983,50.1921 L698.327,50.1921 C705.42,50.1921 708.926,53.6931 708.926,60.7861 L708.926,71.5501 C708.926,76.6021 707.13,79.0501 703.952,80.3531 C707.539,81.3331 709.006,83.53012 709.006,87.85312" id="Fill-20" fill="#000000"></path>
            <polygon id="Fill-21" fill="#000000" points="737.516 50.1924 732.381 74.2414 727.41 50.1924 718.443 50.1924 727.814 87.68841 727.814 107.25641 736.537 107.25641 736.537 87.28141 745.912 50.1924"></polygon>
        </g>
    </g>
</svg>