<?xml version="1.0" encoding="utf-8"?>
<!-- Generator: Adobe Illustrator 21.0.2, SVG Export Plug-In . SVG Version: 6.00 Build 0)  -->
<svg version="1.1" id="Layer_1" xmlns="http://www.w3.org/2000/svg" xmlns:xlink="http://www.w3.org/1999/xlink" x="0px" y="0px"
	 viewBox="0 0 2880 1800" style="enable-background:new 0 0 2880 1800;" xml:space="preserve">
<style type="text/css">
	.st0{fill:none;}
	.st1{fill:#D6B3D5;}
	.st2{fill:#B7BADE;}
	.st3{fill:#A8BFE3;}
	.st4{fill:#85C7ED;}
	.st5{fill:#79CAF1;}
	.st6{fill:#63C2E9;}
	.st7{fill:#EAC5DD;}
	.st8{fill:#E0BBD8;}
	.st9{fill:#98C2E7;}
	.st10{fill:#80C8EF;}
	.st11{fill:#79C3E9;}
	.st12{fill:#CEB3D6;}
	.st13{fill:#E4BFDA;}
	.st14{fill:#DBB7D6;}
	.st15{fill:#C8B3D6;}
	.st16{fill:#404041;}
</style>
<g>
	<polygon class="st0" points="1338.4,933.4 1458.4,891.7 1627.5,957.6 1627.5,957.5 1458.3,891.7 1338.3,933.3 1238.7,975 
		1194.5,975 1194.5,975 1238.8,975 	"/>
	<polygon class="st1" points="1369.8,712.5 1290.6,758.2 1407.2,797.4 	"/>
	<polygon class="st2" points="1442.6,707 1411,688.7 1369.8,712.5 1407.2,797.4 	"/>
	<polygon class="st3" points="1565.1,850.1 1529.3,757.1 1442.6,707 1407.2,797.4 	"/>
	<polygon class="st4" points="1576.9,784.5 1529.3,757.1 1565.1,850.1 	"/>
	<polygon class="st5" points="1591.6,793 1576.9,784.5 1565.1,850.1 	"/>
	<polygon class="st6" points="1627.5,821.7 1627.5,813.7 1591.6,793 1565.1,850.1 	"/>
	<polygon class="st7" points="1194.5,813.7 1194.5,879.1 1238.7,975 1282.2,763.1 	"/>
	<polygon class="st8" points="1290.6,758.2 1282.2,763.1 1238.7,975 1407.2,797.4 	"/>
	<polygon class="st8" points="1194.5,879.1 1194.5,975 1238.7,975 	"/>
	<polygon class="st2" points="1238.7,975 1338.3,933.3 1407.2,797.4 	"/>
	<polygon class="st3" points="1338.3,933.3 1458.3,891.7 1407.2,797.4 	"/>
	<polygon class="st9" points="1407.2,797.4 1458.3,891.7 1565.1,850.1 	"/>
	<polygon class="st10" points="1565.1,850.1 1458.3,891.7 1627.5,957.5 1627.5,922.9 	"/>
	<polygon class="st11" points="1627.5,922.9 1627.5,821.7 1565.1,850.1 	"/>
	<polygon class="st12" points="1286.5,1116.8 1383.2,1172.7 1411.4,1134 	"/>
	<polygon class="st2" points="1383.2,1172.7 1411,1188.7 1435.1,1174.8 1411.4,1134 	"/>
	<polygon class="st3" points="1411.4,1134 1435.1,1174.8 1524.2,1123.3 1565.2,1016.6 	"/>
	<polygon class="st4" points="1524.2,1123.3 1578.7,1091.9 1565.2,1016.6 	"/>
	<polygon class="st5" points="1578.7,1091.9 1595.7,1082.1 1565.2,1016.6 	"/>
	<polygon class="st6" points="1595.7,1082.1 1627.5,1063.7 1627.5,1045 1565.2,1016.6 	"/>
	<polygon class="st13" points="1238.8,975 1212.4,1074.1 1279.1,1112.6 	"/>
	<polygon class="st14" points="1238.8,975 1279.1,1112.6 1286.5,1116.8 1411.4,1134 	"/>
	<polygon class="st7" points="1212.4,1074.1 1238.8,975 1194.5,975 1194.5,1063.7 	"/>
	<polygon class="st15" points="1338.4,933.4 1238.8,975 1411.4,1134 	"/>
	<polygon class="st2" points="1458.4,891.7 1338.4,933.4 1411.4,1134 	"/>
	<polygon class="st9" points="1565.2,1016.6 1458.4,891.7 1411.4,1134 	"/>
	<polygon class="st11" points="1565.2,1016.6 1627.5,992.4 1627.5,957.6 1458.4,891.7 	"/>
	<polygon class="st11" points="1627.5,1045 1627.5,992.4 1565.2,1016.6 	"/>
	<path class="st16" d="M1322.3,861.4l2.9,14v142.2h-30.6l-2-9h-5.8l-3.2-16.2h-0.5v-1.8h-3.4l-1.8-9.2l-5.2-0.4l-3.4-15.8l-0.5-0.2
		v-1.6h-2v54.2H1237l-3.4-16.2h-0.5V858.3h30.9v3.1l1.1,5.9h6.5v3.1l2.9,14.9h4.3v3.1l1.1,6.3l6.1,0.2v2.9l2.9,14.9h1.8v-54.3h31.7
		V861.4z M1314,866.6h-14.9v90.5h-7v-17.6l-7.2-0.4v-18.5l-7.2-0.5v-17.5l-7.2-0.5v-8.5h-7.2v-18h-7.7v-9h-14v126.5h14v-90.5h7.2
		v17.6l7.2,0.5v18.4l7.2,0.5v17.5l7,0.5v8.5h7.2v18h7.7v9h14.9V866.6z"/>
	<path class="st16" d="M1431.5,934.2l2.9,14v51.3h-8.1v9h-7v9h-73.1l-3.4-16.2h-0.5V858.3h66.8v3.1l1.3,5.9h6.1v3.1l1.1,5.9h6.1v3.1
		l2.7,14v37.8h5.2V934.2z M1423.3,939.5h-8.1v-9h-7v-10.3h7v-35.6h-7v-9h-7.4v-9h-50v126.5h57.4v-9h7v-9h8.1V939.5z M1393.6,911.2v9
		h-28.4v-35.6h28.4v9h7.2v17.6H1393.6z M1400.8,966.1v9h-35.6v-35.6h35.6v9h7.4v17.6H1400.8z"/>
	<path class="st16" d="M1503.1,970l2.7,14.2v33.3h-58.5l-3.2-16.2h-0.5v-34.2h14.4v-12.6h-3.2l-3.4-16h-0.5v-35.3h7.2v-27h30.8v3.1
		l2.9,14v73.8h11.5V970z M1494.7,975.4h-14.2v-63.9h-21.2v18.7h7v45.2h-14.4v17.6h42.8V975.4z M1480.5,884.6h-14.2v17.6h14.2V884.6z
		"/>
	<path class="st16" d="M1586.8,861.4l2.9,14v33.3h-21.4v108.9h-29.9l-3.2-16.2h-0.5v-92.7h-18.5l-3.2-16h-0.7v-34.4h74.7V861.4z
		 M1578.5,866.6h-58.1v17.6h22.5v108.9h14.2V884.2h21.4V866.6z"/>
</g>
</svg>
