<?xml version="1.0" encoding="UTF-8"?>
<svg width="4894px" height="1800px" viewBox="0 0 4894 1800" version="1.1" xmlns="http://www.w3.org/2000/svg" xmlns:xlink="http://www.w3.org/1999/xlink">
    <!-- Generator: Sketch 39.1 (31720) - http://www.bohemiancoding.com/sketch -->
    <title>Group 2</title>
    <desc>Created with Sketch.</desc>
    <defs></defs>
    <g id="Page-1" stroke="none" stroke-width="1" fill="none" fill-rule="evenodd">
        <g id="Group-2">
            <g id="NBiT_Pixel_Logo_Large" fill="#231F20">
                <g id="Page-1">
                    <g>
                        <g id="NBiT_Pixel_Logo_Large">
                            <g id="Layer_2">
                                <g id="Group">
                                    <path d="M1448.6,380.6 L1448.6,316.6 L1448.2,316.6 L1388.3,316.6 L1387.9,316.6 L1328,316.6 L1328,254.3 L1327.6,254.3 L1267.7,254.3 L1267.5,254.3 L1267.3,254.3 L1267.1,254.3 L1207.2,254.3 L1207.2,191.1 L1206.8,191.1 C1206.8,191.1 1206.8,191.1 1206.7,191.1 L1206.7,190.3 L1086.4,190.3 L1086,190.3 L1026.2,190.3 L1026.2,128 L1025.8,128 L1025.7,128 L965.9,128 L965.7,128 L965.5,128 L965.3,128 L957.7,128 L905.5,128 L905.5,64 L905.1,64 L858.2,64 L845.2,64 L845,64 L844.8,64 L844.6,64 L785.3,64 L785.3,0 L784.9,0 L784.6,0 L784.2,0 L725,0 L724.6,0 L724.3,0 L723.9,0 L723.9,64 L664.6,64 L664.4,64 L664.2,64 L664,64 L661.4,64 L604.1,64 L603.7,64 L603.7,128 L543.9,128 L543.7,128 L543.5,128 L543.3,128 L483.4,128 L483,128 L483,190.3 L423.2,190.3 L422.8,190.3 L301.9,190.3 L301.9,191.1 L301.9,254.3 L242,254.3 L241.8,254.3 L241.6,254.3 L241.4,254.3 L181.5,254.3 L181.1,254.3 L181.1,316.6 L121.2,316.6 L120.8,316.6 L60.9,316.6 L60.5,316.6 L60.5,380.6 L0.6,380.6 L0.2,380.6 L0.2,392.1 L0,392.1 L0,1419.1 L60.3,1419.1 L60.3,1483.1 L60.7,1483.1 L120.6,1483.1 L121,1483.1 L180.9,1483.1 L180.9,1545.4 L181.3,1545.4 L241.2,1545.4 L241.4,1545.4 L241.6,1545.4 L241.8,1545.4 L301.7,1545.4 L301.7,1608.6 L302.1,1608.6 L302.2,1608.6 L302.2,1609.4 L422.5,1609.4 L422.9,1609.4 L482.7,1609.4 L482.7,1671.7 L483.1,1671.7 L483.2,1671.7 L543,1671.7 L543.2,1671.7 L543.4,1671.7 L543.6,1671.7 L551.2,1671.7 L603.4,1671.7 L603.4,1735.7 L603.8,1735.7 L650.7,1735.7 L663.7,1735.7 L663.9,1735.7 L664.1,1735.7 L664.3,1735.7 L723.6,1735.7 L723.6,1799.7 L724,1799.7 L724.3,1799.7 L724.7,1799.7 L783.9,1799.7 L784.3,1799.7 L784.6,1799.7 L785,1799.7 L785,1735.7 L844.3,1735.7 L844.5,1735.7 L844.7,1735.7 L844.9,1735.7 L847.5,1735.7 L904.8,1735.7 L905.2,1735.7 L905.2,1671.7 L965,1671.7 L965.2,1671.7 L965.4,1671.7 L965.6,1671.7 L1025.5,1671.7 L1025.9,1671.7 L1025.9,1609.4 L1085.7,1609.4 L1086.1,1609.4 L1206.8,1609.4 L1206.8,1608.6 L1206.8,1545.4 L1266.7,1545.4 L1266.9,1545.4 L1267.1,1545.4 L1267.3,1545.4 L1327.2,1545.4 L1327.6,1545.4 L1327.6,1483.1 L1387.5,1483.1 L1387.9,1483.1 L1447.8,1483.1 L1448.2,1483.1 L1448.2,1419.1 L1508.1,1419.1 L1508.5,1419.1 L1508.5,1407.6 L1508.7,1407.6 L1508.7,380.6 L1448.6,380.6 L1448.6,380.6 L1448.6,380.6 Z M1388,1355 L1387.6,1355 L1387.6,1419 L1327.7,1419 L1327.3,1419 L1267.4,1419 L1267,1419 L1267,1481.3 L1266.8,1481.3 L1206.9,1481.3 L1206.5,1481.3 L1146.6,1481.3 L1146.2,1481.3 L1146.2,1544.5 L1086.3,1544.5 L1085.9,1544.5 L965.6,1544.5 L965.6,1545.3 L965.2,1545.3 L965.2,1607.6 L965.1,1607.6 L905.2,1607.6 L904.8,1607.6 L844.9,1607.6 L844.5,1607.6 L844.5,1671.6 L844.4,1671.6 L785,1671.6 L784.6,1671.6 L784.5,1671.6 L784.1,1671.6 L724.7,1671.6 L724.3,1671.6 L724.2,1671.6 L723.8,1671.6 L664.4,1671.6 L664.3,1671.6 L664.3,1607.6 L663.9,1607.6 L604,1607.6 L603.6,1607.6 L551.3,1607.6 L543.7,1607.6 L543.6,1607.6 L543.6,1544.6 L422.7,1544.6 L422.3,1544.6 L362.4,1544.6 L362.4,1481.4 L362,1481.4 L302.1,1481.4 L301.7,1481.4 L241.8,1481.4 L241.6,1481.4 L241.6,1419.1 L241.2,1419.1 L181.3,1419.1 L180.9,1419.1 L121,1419.1 L121,1355.1 L120.6,1355.1 L60.7,1355.1 L60.7,444.6 L60.9,444.6 L120.8,444.6 L121.2,444.6 L121.2,380.6 L181.1,380.6 L181.5,380.6 L241.4,380.6 L241.8,380.6 L241.8,318.3 L242,318.3 L301.9,318.3 L302.3,318.3 L362.2,318.3 L362.6,318.3 L362.6,255.1 L422.5,255.1 L422.9,255.1 L543.2,255.1 L543.2,254.3 L543.6,254.3 L543.6,192 L543.7,192 L603.6,192 L604,192 L663.9,192 L664.3,192 L664.3,128 L664.4,128 L723.8,128 L724.2,128 L724.3,128 L724.7,128 L784.1,128 L784.5,128 L784.6,128 L785,128 L844.4,128 L844.5,128 L844.5,192 L844.9,192 L904.8,192 L905.2,192 L957.5,192 L965.1,192 L965.2,192 L965.2,255.2 L1086,255.2 L1086.4,255.2 L1146.3,255.2 L1146.3,318.4 L1146.7,318.4 L1206.6,318.4 L1207,318.4 L1266.9,318.4 L1267.1,318.4 L1267.1,380.6 L1267.5,380.6 L1327.4,380.6 L1327.8,380.6 L1387.7,380.6 L1387.7,444.6 L1388.1,444.6 L1448,444.6 L1448,1355 L1447.8,1355 L1388,1355 L1388,1355 L1388,1355 Z" id="Shape"></path>
                                    <g id="Shape" transform="translate(145.000000, 624.000000)">
                                        <path d="M305.1,11.1 L314.9,59.1 L314.9,544.8 L210.4,544.8 L203.6,514.1 L183.9,514.1 L172.8,458.8 L171,458.8 L171,452.7 L159.3,452.7 L153.2,421.3 L135.4,420.1 L123.7,365.9 L121.9,365.3 L121.9,359.8 L115.1,359.8 L115.1,544.9 L13.7,544.9 L2,489.6 L0.2,489.6 L0.2,0.7 L105.9,0.7 L105.9,11.2 L109.6,31.5 L131.7,31.5 L131.7,42 L141.5,93 L156.3,93 L156.3,103.5 L160,125 L180.9,125.6 L180.9,135.4 L190.7,186.4 L196.8,186.4 L196.8,0.7 L305,0.7 L305,11.1 L305.1,11.1 L305.1,11.1 L305.1,11.1 Z M276.8,28.9 L225.8,28.9 L225.8,338.1 L201.8,338.1 L201.8,277.8 L177.2,276.6 L177.2,213.3 L152.6,211.5 L152.6,151.9 L128,150.1 L128,121.2 L103.4,121.2 L103.4,59.7 L77,59.7 L77,29 L29,29 L29,461.2 L77,461.2 L77,151.9 L101.6,151.9 L101.6,212.2 L126.2,214 L126.2,276.7 L150.8,278.5 L150.8,338.1 L174.8,339.9 L174.8,368.8 L199.4,368.8 L199.4,430.3 L225.8,430.3 L225.8,461 L276.8,461 L276.8,28.9 L276.8,28.9 L276.8,28.9 Z"></path>
                                        <path d="M678.3,260.1 L688.1,308.1 L688.1,483.3 L660.4,483.3 L660.4,514 L636.4,514 L636.4,544.7 L386.8,544.7 L375.1,489.4 L373.3,489.4 L373.3,0.7 L601.4,0.7 L601.4,11.2 L605.7,31.5 L626.6,31.5 L626.6,42 L630.3,62.3 L651.2,62.3 L651.2,72.6 L660.4,120.6 L660.4,249.7 L678.2,249.7 L678.3,260.1 L678.3,260.1 L678.3,260.1 L678.3,260.1 Z M650,277.9 L622.3,277.9 L622.3,247.2 L598.3,247.2 L598.3,212.2 L622.3,212.2 L622.3,90.4 L598.3,90.4 L598.3,59.7 L573.1,59.7 L573.1,29 L402.2,29 L402.2,461.2 L598.3,461.2 L598.3,430.5 L622.3,430.5 L622.3,399.8 L650,399.8 L650,277.9 L650,277.9 L650,277.9 Z M548.5,181.4 L548.5,212.1 L451.4,212.1 L451.4,90.4 L548.5,90.4 L548.5,121.1 L573.1,121.1 L573.1,181.3 L548.5,181.4 L548.5,181.4 L548.5,181.4 L548.5,181.4 Z M573.1,368.9 L573.1,399.6 L451.4,399.6 L451.4,277.9 L573.1,277.9 L573.1,308.6 L598.3,308.6 L598.3,368.8 L573.1,368.9 L573.1,368.9 L573.1,368.9 L573.1,368.9 Z"></path>
                                        <path d="M922.9,382.4 L932.1,431 L932.1,544.7 L732.3,544.7 L721.2,489.4 L719.4,489.4 L719.4,372.6 L768.6,372.6 L768.6,329.6 L757.5,329.6 L745.8,274.9 L744,274.9 L744,154.4 L768.6,154.4 L768.6,62.2 L873.7,62.2 L873.7,72.6 L883.5,120.6 L883.5,372.6 L922.8,372.6 L922.8,382.4 L922.9,382.4 L922.9,382.4 L922.9,382.4 Z M894,400.9 L845.4,400.9 L845.4,182.6 L772.9,182.6 L772.9,246.6 L796.9,246.6 L796.9,400.9 L747.7,400.9 L747.7,461.1 L894,461.1 L894,400.9 L894,400.9 L894,400.9 Z M845.5,90.4 L796.9,90.4 L796.9,150.7 L845.5,150.7 L845.5,90.4 L845.5,90.4 L845.5,90.4 Z"></path>
                                        <path d="M1208.8,11.1 L1218.6,59.1 L1218.6,172.8 L1145.4,172.8 L1145.4,544.8 L1043.3,544.8 L1032.2,489.5 L1030.4,489.5 L1030.4,172.8 L967.1,172.8 L956,118.1 L953.5,118.1 L953.5,0.7 L1208.6,0.7 L1208.6,11.1 L1208.8,11.1 L1208.8,11.1 L1208.8,11.1 Z M1180.5,28.9 L981.9,28.9 L981.9,89.2 L1058.7,89.2 L1058.7,461.2 L1107.3,461.2 L1107.3,89.2 L1180.5,89.2 L1180.5,28.9 L1180.5,28.9 L1180.5,28.9 Z"></path>
                                    </g>
                                </g>
                            </g>
                        </g>
                    </g>
                </g>
            </g>
            <path d="M2010.23824,598.020307 L2015.90441,625.642893 L2015.90441,905.410106 L1955.70134,905.410106 L1951.80585,887.70332 L1940.4735,887.70332 L1934.09906,855.831106 L1933.03665,855.831106 L1933.03665,852.289749 L1926.30807,852.289749 L1922.76672,834.228827 L1912.49678,833.520556 L1905.7682,802.356613 L1904.7058,802.002477 L1904.7058,798.815256 L1900.8103,798.815256 L1900.8103,905.410106 L1842.37791,905.410106 L1835.64933,873.537891 L1834.58692,873.537891 L1834.58692,592 L1895.49827,592 L1895.49827,598.020307 L1897.62308,609.706786 L1910.37197,609.706786 L1910.37197,615.727093 L1916.03814,645.120357 L1924.5374,645.120357 L1924.5374,651.140664 L1926.66221,663.535414 L1938.70282,663.88955 L1938.70282,669.555721 L1944.369,698.948985 L1947.91035,698.948985 L1947.91035,592 L2010.23824,592 L2010.23824,598.020307 Z M1993.94799,608.290243 L1964.55473,608.290243 L1964.55473,786.420506 L1950.74344,786.420506 L1950.74344,751.715206 L1936.57801,751.006935 L1936.57801,714.530957 L1922.41258,713.468549 L1922.41258,679.117385 L1908.24715,678.054978 L1908.24715,661.4106 L1894.08172,661.4106 L1894.08172,625.997028 L1878.85389,625.997028 L1878.85389,608.290243 L1851.2313,608.290243 L1851.2313,857.247649 L1878.85389,857.247649 L1878.85389,679.117385 L1893.01932,679.117385 L1893.01932,713.822685 L1907.18475,714.885092 L1907.18475,751.006935 L1921.35017,752.069342 L1921.35017,786.420506 L1935.16147,787.482913 L1935.16147,804.127292 L1949.3269,804.127292 L1949.3269,839.540863 L1964.55473,839.540863 L1964.55473,857.247649 L1993.94799,857.247649 L1993.94799,608.290243 Z M2223.95914,723.738485 L2229.62531,751.361071 L2229.62531,869.996534 L2215.10575,869.996534 L2215.10575,887.70332 L2200.94032,887.70332 L2200.94032,905.410106 L2084.42967,905.410106 L2080.88831,887.70332 L2069.9101,887.70332 L2066.36875,869.996534 L2056.09881,869.996534 L2049.37023,838.12432 L2048.30783,838.12432 L2048.30783,717.718178 L2062.47325,717.718178 L2062.47325,698.240714 L2076.99282,698.240714 L2076.99282,680.533928 L2195.27415,680.533928 L2195.27415,686.2001 L2197.7531,698.240714 L2209.43958,698.240714 L2209.43958,703.906885 L2212.27266,717.718178 L2223.95914,717.718178 L2223.95914,723.738485 Z M2164.81848,804.127292 L2164.81848,821.834077 L2107.44849,821.834077 L2107.44849,804.127292 L2093.28306,804.127292 L2093.28306,751.715206 L2107.44849,751.715206 L2107.44849,734.008421 L2164.81848,734.008421 L2164.81848,751.715206 L2178.9839,751.715206 L2178.9839,804.127292 L2164.81848,804.127292 Z M2207.6689,734.008421 L2193.14933,734.008421 L2193.14933,714.530957 L2178.9839,714.530957 L2178.9839,696.824171 L2093.28306,696.824171 L2093.28306,714.530957 L2078.7635,714.530957 L2078.7635,734.008421 L2064.9522,734.008421 L2064.9522,821.834077 L2078.7635,821.834077 L2078.7635,839.540863 L2093.28306,839.540863 L2093.28306,857.247649 L2178.9839,857.247649 L2178.9839,839.540863 L2193.14933,839.540863 L2193.14933,821.834077 L2207.6689,821.834077 L2207.6689,734.008421 Z M2423.16048,724.800892 L2428.82665,752.423478 L2428.82665,905.410106 L2369.68599,905.410106 L2362.95741,873.537891 L2361.895,873.537891 L2361.895,799.169392 L2356.22883,799.169392 L2352.68747,782.170878 L2328.25211,782.170878 L2328.25211,905.410106 L2269.81971,905.410106 L2263.09114,873.537891 L2262.02873,873.537891 L2262.02873,680.533928 L2395.89203,680.533928 L2395.89203,686.2001 L2398.01684,698.240714 L2409.34918,698.240714 L2409.34918,704.261021 L2411.82813,718.426449 L2423.16048,718.780585 L2423.16048,724.800892 Z M2406.87024,734.008421 L2392.70481,733.300149 L2392.70481,714.530957 L2379.24765,714.530957 L2379.24765,696.824171 L2278.67311,696.824171 L2278.67311,857.247649 L2306.29569,857.247649 L2306.29569,734.008421 L2365.08222,734.008421 L2365.08222,751.006935 L2378.53938,751.006935 L2378.53938,857.247649 L2406.87024,857.247649 L2406.87024,734.008421 Z M2721.69688,741.445271 L2727.36305,769.067856 L2727.36305,869.996534 L2711.42695,869.996534 L2711.42695,887.70332 L2697.61565,887.70332 L2697.61565,905.410106 L2553.83656,905.410106 L2547.10798,873.537891 L2546.04557,873.537891 L2546.04557,592 L2677.42992,592 L2677.42992,598.020307 L2679.90887,609.706786 L2691.94948,609.706786 L2691.94948,615.727093 L2694.0743,627.413571 L2706.11491,627.413571 L2706.11491,633.433878 L2711.42695,661.056464 L2711.42695,735.424964 L2721.69688,735.424964 L2721.69688,741.445271 Z M2646.97425,696.115899 L2646.97425,713.822685 L2591.0208,713.822685 L2591.0208,643.703814 L2646.97425,643.703814 L2646.97425,661.4106 L2661.13968,661.4106 L2661.13968,696.115899 L2646.97425,696.115899 Z M2661.13968,804.127292 L2661.13968,821.834077 L2591.0208,821.834077 L2591.0208,751.715206 L2661.13968,751.715206 L2661.13968,769.421992 L2675.65924,769.421992 L2675.65924,804.127292 L2661.13968,804.127292 Z M2705.40664,751.715206 L2689.47053,751.715206 L2689.47053,734.008421 L2675.65924,734.008421 L2675.65924,713.822685 L2689.47053,713.822685 L2689.47053,643.703814 L2675.65924,643.703814 L2675.65924,625.997028 L2661.13968,625.997028 L2661.13968,608.290243 L2562.68995,608.290243 L2562.68995,857.247649 L2675.65924,857.247649 L2675.65924,839.540863 L2689.47053,839.540863 L2689.47053,821.834077 L2705.40664,821.834077 L2705.40664,751.715206 Z M2865.29891,811.918277 L2870.61095,839.894999 L2870.61095,905.410106 L2755.51684,905.410106 L2749.1424,873.537891 L2748.07999,873.537891 L2748.07999,806.252106 L2776.41085,806.252106 L2776.41085,781.462606 L2770.03641,781.462606 L2763.30783,749.944528 L2762.24542,749.944528 L2762.24542,680.533928 L2776.41085,680.533928 L2776.41085,627.413571 L2836.96806,627.413571 L2836.96806,633.433878 L2842.63423,661.056464 L2842.63423,806.252106 L2865.29891,806.252106 L2865.29891,811.918277 Z M2820.67781,643.703814 L2792.70109,643.703814 L2792.70109,678.409114 L2820.67781,678.409114 L2820.67781,643.703814 Z M2848.65454,822.542349 L2820.67781,822.542349 L2820.67781,696.824171 L2778.8898,696.824171 L2778.8898,733.654285 L2792.70109,733.654285 L2792.70109,822.542349 L2764.37024,822.542349 L2764.37024,857.247649 L2848.65454,857.247649 L2848.65454,822.542349 Z M3058.83408,724.800892 L3064.50025,752.423478 L3064.50025,905.410106 L3005.35959,905.410106 L2998.63101,873.537891 L2997.5686,873.537891 L2997.5686,799.169392 L2991.90243,799.169392 L2988.36107,782.170878 L2963.92571,782.170878 L2963.92571,905.410106 L2905.49332,905.410106 L2898.76474,873.537891 L2897.70233,873.537891 L2897.70233,680.533928 L3031.56563,680.533928 L3031.56563,686.2001 L3033.69044,698.240714 L3045.02279,698.240714 L3045.02279,704.261021 L3047.50174,718.426449 L3058.83408,718.780585 L3058.83408,724.800892 Z M3042.54384,734.008421 L3028.37841,733.300149 L3028.37841,714.530957 L3014.92125,714.530957 L3014.92125,696.824171 L2914.34671,696.824171 L2914.34671,857.247649 L2941.9693,857.247649 L2941.9693,734.008421 L3000.75582,734.008421 L3000.75582,751.006935 L3014.21298,751.006935 L3014.21298,857.247649 L3042.54384,857.247649 L3042.54384,734.008421 Z M3269.36776,703.906885 L3275.03393,731.883606 L3275.03393,905.410106 L3116.027,905.410106 L3112.1315,887.70332 L3101.86157,887.70332 L3095.48713,855.831106 L3094.42472,855.831106 L3094.42472,770.838535 L3108.23601,770.838535 L3108.23601,753.131749 L3110.00669,753.131749 L3109.29842,749.944528 L3108.23601,749.944528 L3108.23601,698.240714 L3122.40144,698.240714 L3122.40144,680.533928 L3255.20233,680.533928 L3255.20233,686.2001 L3257.68128,698.240714 L3269.36776,698.240714 L3269.36776,703.906885 Z M3138.69168,821.834077 L3138.69168,787.128778 L3224.74666,787.128778 L3224.74666,821.834077 L3138.69168,821.834077 Z M3253.07752,714.530957 L3238.91209,714.530957 L3238.91209,696.824171 L3138.69168,696.824171 L3138.69168,714.530957 L3124.88039,714.530957 L3124.88039,733.654285 L3225.1008,733.654285 L3225.1008,751.715206 L3138.69168,751.715206 L3138.69168,769.421992 L3124.88039,769.421992 L3124.88039,787.128778 L3110.71496,787.128778 L3110.71496,839.540863 L3124.88039,839.540863 L3124.88039,857.247649 L3253.07752,857.247649 L3253.07752,714.530957 Z M3472.46459,703.906885 L3478.13076,731.883606 L3478.13076,799.169392 L3419.69837,799.169392 L3415.80288,781.462606 L3393.84646,781.462606 L3393.84646,799.169392 L3378.97276,799.169392 L3378.97276,905.410106 L3319.12383,905.410106 L3312.39525,873.537891 L3311.33284,873.537891 L3311.33284,680.533928 L3458.6533,680.533928 L3458.6533,686.2001 L3460.77811,698.240714 L3472.46459,698.240714 L3472.46459,703.906885 Z M3456.17435,714.530957 L3442.00892,714.530957 L3442.00892,696.824171 L3371.18178,696.824171 L3371.18178,714.530957 L3357.37049,714.530957 L3357.37049,696.824171 L3327.97722,696.824171 L3327.97722,857.247649 L3357.01635,857.247649 L3357.01635,751.006935 L3372.24419,751.006935 L3372.24419,733.654285 L3428.55176,733.654285 L3428.55176,751.006935 L3456.17435,751.006935 L3456.17435,714.530957 Z M3639.08544,686.2001 L3644.39748,714.176821 L3644.39748,780.046063 L3630.23205,781.462606 L3630.23205,816.167906 L3615.35835,816.876177 L3615.35835,852.289749 L3601.19292,852.289749 L3601.19292,887.70332 L3586.31922,887.70332 L3586.31922,923.116891 L3572.50793,923.116891 L3572.50793,940.823677 L3513.7214,940.823677 L3506.99282,908.951463 L3505.93042,908.951463 L3505.93042,859.372463 L3519.38757,859.372463 L3519.38757,823.958892 L3521.15825,823.958892 L3520.44998,820.417535 L3519.38757,820.417535 L3519.38757,816.522042 L3513.7214,816.167906 L3506.99282,784.649828 L3505.93042,784.295692 L3505.93042,781.10847 L3499.55597,780.046063 L3493.18153,748.527985 L3492.11912,748.173849 L3492.11912,680.533928 L3553.3846,680.533928 L3553.3846,686.2001 L3559.05077,714.176821 L3559.05077,717.009906 L3575.69515,717.009906 L3575.69515,680.533928 L3639.08544,680.533928 L3639.08544,686.2001 Z M3622.7952,696.824171 L3592.33953,696.824171 L3592.33953,733.654285 L3578.1741,733.654285 L3578.1741,768.359585 L3550.55152,768.359585 L3550.55152,733.654285 L3537.09436,733.654285 L3537.09436,696.824171 L3508.40937,696.824171 L3508.40937,733.654285 L3522.5748,735.070828 L3522.5748,768.713721 L3536.03195,769.776128 L3536.03195,804.127292 L3549.48911,804.127292 L3549.48911,840.249134 L3536.03195,840.249134 L3536.03195,875.662706 L3522.5748,875.662706 L3522.5748,892.66122 L3550.55152,892.66122 L3550.55152,874.954434 L3564.36281,874.954434 L3564.36281,839.540863 L3579.59064,839.540863 L3579.59064,804.127292 L3593.40194,804.127292 L3593.40194,769.776128 L3608.27564,768.713721 L3608.27564,735.070828 L3622.7952,733.654285 L3622.7952,696.824171 Z M3857.23304,811.918277 L3862.54508,839.894999 L3862.54508,905.410106 L3747.45097,905.410106 L3741.07653,873.537891 L3740.01412,873.537891 L3740.01412,806.252106 L3768.34498,806.252106 L3768.34498,781.462606 L3761.97054,781.462606 L3755.24196,749.944528 L3754.17955,749.944528 L3754.17955,680.533928 L3768.34498,680.533928 L3768.34498,627.413571 L3828.90219,627.413571 L3828.90219,633.433878 L3834.56836,661.056464 L3834.56836,806.252106 L3857.23304,806.252106 L3857.23304,811.918277 Z M3812.61194,643.703814 L3784.63522,643.703814 L3784.63522,678.409114 L3812.61194,678.409114 L3812.61194,643.703814 Z M3840.58866,822.542349 L3812.61194,822.542349 L3812.61194,696.824171 L3770.82393,696.824171 L3770.82393,733.654285 L3784.63522,733.654285 L3784.63522,822.542349 L3756.30436,822.542349 L3756.30436,857.247649 L3840.58866,857.247649 L3840.58866,822.542349 Z M4050.76821,724.800892 L4056.43438,752.423478 L4056.43438,905.410106 L3997.29372,905.410106 L3990.56514,873.537891 L3989.50273,873.537891 L3989.50273,799.169392 L3983.83656,799.169392 L3980.2952,782.170878 L3955.85984,782.170878 L3955.85984,905.410106 L3897.42745,905.410106 L3890.69887,873.537891 L3889.63646,873.537891 L3889.63646,680.533928 L4023.49976,680.533928 L4023.49976,686.2001 L4025.62457,698.240714 L4036.95692,698.240714 L4036.95692,704.261021 L4039.43587,718.426449 L4050.76821,718.780585 L4050.76821,724.800892 Z M4034.47797,734.008421 L4020.31254,733.300149 L4020.31254,714.530957 L4006.85538,714.530957 L4006.85538,696.824171 L3906.28084,696.824171 L3906.28084,857.247649 L3933.90342,857.247649 L3933.90342,734.008421 L3992.68995,734.008421 L3992.68995,751.006935 L4006.14711,751.006935 L4006.14711,857.247649 L4034.47797,857.247649 L4034.47797,734.008421 Z M4308.57901,598.020307 L4314.24518,625.642893 L4314.24518,691.157999 L4272.10303,691.157999 L4272.10303,905.410106 L4213.3165,905.410106 L4206.94206,873.537891 L4205.87965,873.537891 L4205.87965,691.157999 L4169.40367,691.157999 L4163.02923,659.639921 L4161.61269,659.639921 L4161.61269,592 L4308.57901,592 L4308.57901,598.020307 Z M4292.28876,608.290243 L4177.90293,608.290243 L4177.90293,642.995543 L4222.16989,642.995543 L4222.16989,857.247649 L4250.14661,857.247649 L4250.14661,642.995543 L4292.28876,642.995543 L4292.28876,608.290243 Z M4491.4901,723.738485 L4497.15627,751.361071 L4497.15627,816.876177 L4482.99085,816.876177 L4482.99085,834.582963 L4481.92844,834.582963 L4482.99085,839.186727 L4482.99085,887.70332 L4468.82542,887.70332 L4468.82542,905.410106 L4351.25236,905.410106 L4347.711,887.70332 L4337.7952,887.70332 L4334.25385,869.642399 L4323.98391,868.934127 L4317.25533,837.770184 L4316.19292,837.416049 L4316.19292,717.718178 L4330.35835,717.718178 L4330.35835,698.240714 L4343.81551,698.240714 L4343.81551,680.533928 L4463.15925,680.533928 L4463.15925,686.2001 L4465.6382,698.240714 L4477.32467,698.240714 L4477.32467,703.906885 L4480.15776,717.718178 L4491.4901,717.718178 L4491.4901,723.738485 Z M4374.97945,751.006935 L4374.97945,734.008421 L4446.869,734.008421 L4446.869,751.006935 L4374.97945,751.006935 Z M4475.19986,734.008421 L4461.03443,734.008421 L4461.03443,714.530957 L4446.869,714.530957 L4446.869,696.824171 L4360.10575,696.824171 L4360.10575,714.530957 L4346.6486,714.530957 L4346.6486,734.008421 L4332.8373,734.008421 L4332.8373,821.834077 L4346.6486,822.896485 L4346.6486,839.540863 L4360.10575,839.540863 L4360.10575,857.247649 L4446.869,857.247649 L4446.869,839.540863 L4461.03443,839.540863 L4461.03443,821.834077 L4374.62532,821.834077 L4374.62532,804.835563 L4361.5223,804.835563 L4361.5223,786.420506 L4461.03443,786.420506 L4461.03443,768.713721 L4475.19986,768.713721 L4475.19986,734.008421 Z M4698.48243,724.800892 L4704.1486,752.423478 L4704.1486,799.169392 L4699.54483,799.169392 L4704.1486,822.188213 L4704.1486,870.704806 L4689.98317,870.704806 L4689.98317,887.70332 L4676.52601,887.70332 L4676.52601,905.410106 L4558.24468,905.410106 L4554.70333,887.70332 L4544.78753,887.70332 L4541.24617,869.642399 L4530.6221,868.934127 L4523.89352,837.416049 L4522.83111,837.416049 L4522.83111,718.780585 L4537.35068,718.072314 L4537.35068,698.240714 L4550.80783,698.240714 L4550.80783,680.533928 L4670.85984,680.533928 L4670.85984,686.2001 L4673.33879,698.240714 L4684.317,698.240714 L4684.317,704.261021 L4687.15008,718.426449 L4698.48243,718.780585 L4698.48243,724.800892 Z M4682.19218,734.008421 L4668.02676,733.300149 L4668.02676,714.530957 L4654.5696,714.530957 L4654.5696,696.824171 L4567.09808,696.824171 L4567.09808,714.530957 L4553.64092,714.530957 L4553.64092,733.300149 L4539.47549,734.008421 L4539.47549,821.834077 L4553.64092,822.896485 L4553.64092,839.540863 L4567.09808,839.540863 L4567.09808,857.247649 L4654.5696,857.247649 L4654.5696,839.540863 L4668.02676,839.540863 L4668.02676,822.542349 L4682.19218,822.542349 L4682.19218,804.835563 L4653.50719,804.835563 L4653.50719,821.479942 L4581.61764,821.479942 L4581.61764,804.835563 L4568.51462,804.835563 L4568.51462,751.006935 L4581.61764,751.006935 L4581.61764,734.362556 L4653.15306,734.362556 L4653.15306,751.006935 L4682.19218,751.006935 L4682.19218,734.008421 Z M4887.41383,724.800892 L4893.08,752.423478 L4893.08,905.410106 L4833.5852,905.410106 L4826.85662,873.537891 L4825.79421,873.537891 L4825.79421,799.169392 L4820.12804,799.169392 L4816.58669,782.170878 L4808.7957,782.170878 L4808.7957,799.169392 L4793.922,799.169392 L4793.922,905.410106 L4733.71893,905.410106 L4726.99035,873.537891 L4725.92794,873.537891 L4725.92794,592 L4788.25583,592 L4788.25583,598.020307 L4793.922,625.642893 L4793.922,680.533928 L4860.14538,680.533928 L4860.14538,686.2001 L4862.27019,698.240714 L4873.2484,698.240714 L4873.2484,704.261021 L4875.72735,718.426449 L4887.41383,718.780585 L4887.41383,724.800892 Z M4871.12359,734.008421 L4856.60402,733.300149 L4856.60402,714.530957 L4843.501,714.530957 L4843.501,696.824171 L4785.77688,696.824171 L4785.77688,714.530957 L4771.96559,714.530957 L4771.96559,608.290243 L4742.57232,608.290243 L4742.57232,857.247649 L4771.96559,857.247649 L4771.96559,751.006935 L4786.83929,751.006935 L4786.83929,734.008421 L4828.98144,734.008421 L4828.98144,751.006935 L4842.43859,751.006935 L4842.43859,857.247649 L4871.12359,857.247649 L4871.12359,734.008421 Z M1922.39842,1160.83167 L1911.88767,1160.83167 L1911.88767,1172.53231 L1902.56682,1172.53231 L1902.56682,1184.23296 L1828,1184.23296 L1828,1020.02731 L1893.04765,1020.02731 L1893.04765,1031.72795 L1902.56682,1031.72795 L1902.56682,1043.23028 L1911.88767,1043.23028 L1911.88767,1089.63622 L1902.56682,1089.63622 L1902.56682,1102.9234 L1911.88767,1102.9234 L1911.88767,1114.62404 L1922.39842,1114.62404 L1922.39842,1160.83167 Z M1893.04765,1077.93558 L1893.04765,1054.93093 L1883.92511,1054.93093 L1883.92511,1043.23028 L1846.84002,1043.23028 L1846.84002,1089.63622 L1883.92511,1089.63622 L1883.92511,1077.93558 L1893.04765,1077.93558 Z M1902.56682,1149.13102 L1902.56682,1126.32468 L1893.04765,1126.32468 L1893.04765,1114.62404 L1846.84002,1114.62404 L1846.84002,1160.83167 L1893.04765,1160.83167 L1893.04765,1149.13102 L1902.56682,1149.13102 Z M2030.38148,1114.22741 L2011.93809,1114.22741 L2011.93809,1102.52676 L1974.853,1102.52676 L1974.853,1114.22741 L1964.73888,1114.22741 L1964.73888,1184.23296 L1945.50223,1184.23296 L1945.50223,1078.33221 L1964.9372,1078.33221 L1964.9372,1090.03286 L1974.05973,1090.03286 L1974.05973,1078.33221 L2021.06063,1078.33221 L2021.06063,1090.03286 L2030.38148,1090.03286 L2030.38148,1114.22741 Z M2137.57128,1125.92805 L2128.44874,1125.92805 L2128.44874,1137.6287 L2062.60783,1137.6287 L2062.60783,1149.72597 L2071.33373,1149.72597 L2071.33373,1160.83167 L2128.44874,1160.83167 L2128.44874,1172.53231 L2119.12789,1172.53231 L2119.12789,1184.23296 L2061.81456,1184.23296 L2061.81456,1172.53231 L2052.89034,1172.53231 L2052.89034,1161.62493 L2043.56949,1160.83167 L2043.56949,1102.9234 L2052.89034,1102.9234 L2052.89034,1090.03286 L2061.81456,1090.03286 L2061.81456,1078.33221 L2119.12789,1078.33221 L2119.12789,1090.03286 L2128.44874,1090.03286 L2128.44874,1102.9234 L2137.57128,1102.9234 L2137.57128,1125.92805 Z M2119.12789,1114.22741 L2119.12789,1102.9234 L2071.53205,1102.9234 L2071.53205,1114.22741 L2119.12789,1114.22741 Z M2251.50382,1184.23296 L2166.82289,1184.23296 L2166.82289,1172.53231 L2157.50204,1172.53231 L2157.50204,1138.02533 L2166.82289,1138.02533 L2166.82289,1126.32468 L2176.14374,1126.32468 L2176.14374,1114.62404 L2233.25875,1114.62404 L2233.25875,1102.52676 L2166.82289,1102.52676 L2166.82289,1090.03286 L2176.14374,1090.03286 L2176.14374,1078.33221 L2242.18297,1078.33221 L2242.18297,1090.03286 L2251.50382,1090.03286 L2251.50382,1184.23296 Z M2232.86211,1160.83167 L2232.86211,1138.02533 L2176.14374,1138.02533 L2176.14374,1160.83167 L2232.86211,1160.83167 Z M2353.33909,1184.23296 L2334.30075,1184.23296 L2334.30075,1172.53231 L2325.37653,1172.53231 L2325.37653,1161.62493 L2316.45231,1160.83167 L2316.45231,1149.72597 L2307.13146,1149.72597 L2307.13146,1138.02533 L2297.41397,1138.02533 L2297.41397,1184.23296 L2278.97059,1184.23296 L2278.97059,1020.02731 L2297.41397,1020.02731 L2297.41397,1114.22741 L2307.13146,1114.22741 L2307.13146,1102.52676 L2316.45231,1102.52676 L2316.45231,1090.03286 L2325.37653,1090.03286 L2325.37653,1078.33221 L2344.01823,1078.33221 L2344.01823,1102.52676 L2335.09401,1103.12171 L2335.09401,1114.62404 L2326.16979,1114.62404 L2326.16979,1137.23206 L2335.09401,1138.02533 L2335.09401,1148.93271 L2344.01823,1149.72597 L2344.01823,1160.83167 L2353.33909,1160.83167 L2353.33909,1184.23296 Z M2491.56534,1184.23296 L2445.15939,1184.23296 L2445.15939,1172.53231 L2435.83854,1172.53231 L2435.83854,1102.52676 L2416.20526,1102.52676 L2416.20526,1078.33221 L2435.83854,1078.33221 L2435.83854,1031.72795 L2454.28193,1031.72795 L2454.28193,1078.33221 L2482.24449,1078.33221 L2482.24449,1102.52676 L2454.28193,1102.52676 L2454.28193,1161.2283 L2491.56534,1161.2283 L2491.56534,1184.23296 Z M2595.7804,1184.23296 L2576.74206,1184.23296 L2576.74206,1114.22741 L2567.81784,1114.22741 L2567.81784,1102.9234 L2540.25192,1102.9234 L2540.25192,1114.22741 L2530.1378,1114.22741 L2530.1378,1184.23296 L2510.70283,1184.23296 L2510.70283,1020.02731 L2530.1378,1020.02731 L2530.1378,1090.03286 L2539.26034,1090.03286 L2539.26034,1078.33221 L2577.53532,1078.33221 L2577.53532,1090.03286 L2586.26123,1090.03286 L2586.26123,1102.32845 L2595.7804,1102.9234 L2595.7804,1184.23296 Z M2705.5483,1125.92805 L2696.42577,1125.92805 L2696.42577,1137.6287 L2630.58486,1137.6287 L2630.58486,1149.72597 L2639.31076,1149.72597 L2639.31076,1160.83167 L2696.42577,1160.83167 L2696.42577,1172.53231 L2687.10492,1172.53231 L2687.10492,1184.23296 L2629.79159,1184.23296 L2629.79159,1172.53231 L2620.86737,1172.53231 L2620.86737,1161.62493 L2611.54652,1160.83167 L2611.54652,1102.9234 L2620.86737,1102.9234 L2620.86737,1090.03286 L2629.79159,1090.03286 L2629.79159,1078.33221 L2687.10492,1078.33221 L2687.10492,1090.03286 L2696.42577,1090.03286 L2696.42577,1102.9234 L2705.5483,1102.9234 L2705.5483,1125.92805 Z M2687.10492,1114.22741 L2687.10492,1102.9234 L2639.50908,1102.9234 L2639.50908,1114.22741 L2687.10492,1114.22741 Z M2877.28996,1160.83167 L2866.77921,1160.83167 L2866.77921,1172.53231 L2857.45836,1172.53231 L2857.45836,1184.23296 L2782.89154,1184.23296 L2782.89154,1020.02731 L2847.93919,1020.02731 L2847.93919,1031.72795 L2857.45836,1031.72795 L2857.45836,1043.23028 L2866.77921,1043.23028 L2866.77921,1089.63622 L2857.45836,1089.63622 L2857.45836,1102.9234 L2866.77921,1102.9234 L2866.77921,1114.62404 L2877.28996,1114.62404 L2877.28996,1160.83167 Z M2847.93919,1077.93558 L2847.93919,1054.93093 L2838.81666,1054.93093 L2838.81666,1043.23028 L2801.73156,1043.23028 L2801.73156,1089.63622 L2838.81666,1089.63622 L2838.81666,1077.93558 L2847.93919,1077.93558 Z M2857.45836,1149.13102 L2857.45836,1126.32468 L2847.93919,1126.32468 L2847.93919,1114.62404 L2801.73156,1114.62404 L2801.73156,1160.83167 L2847.93919,1160.83167 L2847.93919,1149.13102 L2857.45836,1149.13102 Z M2931.33107,1066.23494 L2913.086,1066.23494 L2913.086,1043.23028 L2931.33107,1043.23028 L2931.33107,1066.23494 Z M2949.97277,1184.23296 L2894.24598,1184.23296 L2894.24598,1161.2283 L2913.086,1161.2283 L2913.086,1102.52676 L2903.76515,1102.52676 L2903.76515,1078.33221 L2931.33107,1078.33221 L2931.33107,1161.2283 L2949.97277,1161.2283 L2949.97277,1184.23296 Z M3056.17099,1184.23296 L3037.33097,1184.23296 L3037.33097,1114.22741 L3028.40675,1114.22741 L3028.40675,1102.9234 L2989.73513,1102.9234 L2989.73513,1184.23296 L2971.29175,1184.23296 L2971.29175,1078.33221 L3037.92592,1078.33221 L3037.92592,1090.03286 L3046.85014,1090.03286 L3046.85014,1102.32845 L3056.17099,1102.9234 L3056.17099,1184.23296 Z M3173.27659,1184.23296 L3088.59566,1184.23296 L3088.59566,1172.53231 L3079.27481,1172.53231 L3079.27481,1138.02533 L3088.59566,1138.02533 L3088.59566,1126.32468 L3097.91651,1126.32468 L3097.91651,1114.62404 L3155.03152,1114.62404 L3155.03152,1102.52676 L3088.59566,1102.52676 L3088.59566,1090.03286 L3097.91651,1090.03286 L3097.91651,1078.33221 L3163.95574,1078.33221 L3163.95574,1090.03286 L3173.27659,1090.03286 L3173.27659,1184.23296 Z M3154.63489,1160.83167 L3154.63489,1138.02533 L3097.91651,1138.02533 L3097.91651,1160.83167 L3154.63489,1160.83167 Z M3285.62261,1114.22741 L3267.17922,1114.22741 L3267.17922,1102.52676 L3230.09413,1102.52676 L3230.09413,1114.22741 L3219.98001,1114.22741 L3219.98001,1184.23296 L3200.74336,1184.23296 L3200.74336,1078.33221 L3220.17833,1078.33221 L3220.17833,1090.03286 L3229.30086,1090.03286 L3229.30086,1078.33221 L3276.30175,1078.33221 L3276.30175,1090.03286 L3285.62261,1090.03286 L3285.62261,1114.22741 Z M3373.37744,1102.52676 L3363.85827,1103.51834 L3363.85827,1125.92805 L3354.14078,1126.523 L3354.14078,1149.13102 L3344.81993,1149.13102 L3344.81993,1172.53231 L3334.90413,1172.53231 L3334.90413,1195.9336 L3325.97991,1195.9336 L3325.97991,1207.63424 L3307.33821,1207.63424 L3307.33821,1196.33023 L3316.26243,1196.33023 L3316.26243,1172.92894 L3325.18665,1172.92894 L3325.18665,1149.13102 L3316.26243,1149.13102 L3316.26243,1126.523 L3307.33821,1125.92805 L3307.33821,1103.51834 L3298.01736,1102.52676 L3298.01736,1078.33221 L3317.05569,1078.33221 L3317.05569,1102.52676 L3325.97991,1102.52676 L3325.97991,1125.72974 L3344.02667,1125.72974 L3344.02667,1102.52676 L3353.34752,1102.52676 L3353.34752,1078.33221 L3373.37744,1078.33221 L3373.37744,1102.52676 Z M3399.25768,1195.9336 L3389.93682,1195.9336 L3389.93682,1207.63424 L3371.49344,1207.63424 L3371.49344,1196.33023 L3380.81429,1196.33023 L3380.81429,1184.23296 L3371.49344,1184.23296 L3371.49344,1149.72597 L3399.25768,1149.72597 L3399.25768,1195.9336 Z M3575.36228,1160.83167 L3564.85154,1160.83167 L3564.85154,1172.53231 L3555.53068,1172.53231 L3555.53068,1184.23296 L3480.96387,1184.23296 L3480.96387,1020.02731 L3546.01152,1020.02731 L3546.01152,1031.72795 L3555.53068,1031.72795 L3555.53068,1043.23028 L3564.85154,1043.23028 L3564.85154,1089.63622 L3555.53068,1089.63622 L3555.53068,1102.9234 L3564.85154,1102.9234 L3564.85154,1114.62404 L3575.36228,1114.62404 L3575.36228,1160.83167 Z M3546.01152,1077.93558 L3546.01152,1054.93093 L3536.88898,1054.93093 L3536.88898,1043.23028 L3499.80389,1043.23028 L3499.80389,1089.63622 L3536.88898,1089.63622 L3536.88898,1077.93558 L3546.01152,1077.93558 Z M3555.53068,1149.13102 L3555.53068,1126.32468 L3546.01152,1126.32468 L3546.01152,1114.62404 L3499.80389,1114.62404 L3499.80389,1160.83167 L3546.01152,1160.83167 L3546.01152,1149.13102 L3555.53068,1149.13102 Z M3683.34535,1114.22741 L3664.90196,1114.22741 L3664.90196,1102.52676 L3627.81687,1102.52676 L3627.81687,1114.22741 L3617.70275,1114.22741 L3617.70275,1184.23296 L3598.4661,1184.23296 L3598.4661,1078.33221 L3617.90107,1078.33221 L3617.90107,1090.03286 L3627.0236,1090.03286 L3627.0236,1078.33221 L3674.02449,1078.33221 L3674.02449,1090.03286 L3683.34535,1090.03286 L3683.34535,1114.22741 Z M3730.04877,1066.23494 L3711.80369,1066.23494 L3711.80369,1043.23028 L3730.04877,1043.23028 L3730.04877,1066.23494 Z M3748.69047,1184.23296 L3692.96367,1184.23296 L3692.96367,1161.2283 L3711.80369,1161.2283 L3711.80369,1102.52676 L3702.48284,1102.52676 L3702.48284,1078.33221 L3730.04877,1078.33221 L3730.04877,1161.2283 L3748.69047,1161.2283 L3748.69047,1184.23296 Z M3854.88869,1184.23296 L3836.04867,1184.23296 L3836.04867,1114.22741 L3827.12445,1114.22741 L3827.12445,1102.9234 L3788.45283,1102.9234 L3788.45283,1184.23296 L3770.00944,1184.23296 L3770.00944,1078.33221 L3836.64362,1078.33221 L3836.64362,1090.03286 L3845.56784,1090.03286 L3845.56784,1102.32845 L3854.88869,1102.9234 L3854.88869,1184.23296 Z M3971.59765,1184.23296 L3962.2768,1184.23296 L3962.2768,1195.9336 L3953.35258,1195.9336 L3953.35258,1207.63424 L3886.91672,1207.63424 L3886.91672,1184.62959 L3943.23847,1184.62959 L3943.23847,1172.92894 L3952.75763,1172.92894 L3952.75763,1149.13102 L3944.23005,1149.13102 L3944.23005,1160.83167 L3896.23757,1160.83167 L3896.23757,1149.13102 L3886.91672,1149.13102 L3886.91672,1137.6287 L3877.59587,1137.6287 L3877.59587,1102.9234 L3886.91672,1102.9234 L3886.91672,1090.03286 L3896.23757,1090.03286 L3896.23757,1078.33221 L3971.59765,1078.33221 L3971.59765,1184.23296 Z M3952.95595,1125.92805 L3952.95595,1102.9234 L3906.55001,1102.9234 L3906.55001,1114.62404 L3896.23757,1114.62404 L3896.23757,1125.92805 L3906.55001,1125.92805 L3906.55001,1137.6287 L3943.43678,1137.6287 L3943.43678,1125.92805 L3952.95595,1125.92805 Z M4119.34308,1184.23296 L4072.93713,1184.23296 L4072.93713,1172.53231 L4063.61628,1172.53231 L4063.61628,1102.52676 L4043.983,1102.52676 L4043.983,1078.33221 L4063.61628,1078.33221 L4063.61628,1031.72795 L4082.05967,1031.72795 L4082.05967,1078.33221 L4110.02222,1078.33221 L4110.02222,1102.52676 L4082.05967,1102.52676 L4082.05967,1161.2283 L4119.34308,1161.2283 L4119.34308,1184.23296 Z M4223.55813,1184.23296 L4204.5198,1184.23296 L4204.5198,1114.22741 L4195.59558,1114.22741 L4195.59558,1102.9234 L4168.02965,1102.9234 L4168.02965,1114.22741 L4157.91554,1114.22741 L4157.91554,1184.23296 L4138.48057,1184.23296 L4138.48057,1020.02731 L4157.91554,1020.02731 L4157.91554,1090.03286 L4167.03807,1090.03286 L4167.03807,1078.33221 L4205.31306,1078.33221 L4205.31306,1090.03286 L4214.03897,1090.03286 L4214.03897,1102.32845 L4223.55813,1102.9234 L4223.55813,1184.23296 Z M4333.32604,1125.92805 L4324.2035,1125.92805 L4324.2035,1137.6287 L4258.36259,1137.6287 L4258.36259,1149.72597 L4267.0885,1149.72597 L4267.0885,1160.83167 L4324.2035,1160.83167 L4324.2035,1172.53231 L4314.88265,1172.53231 L4314.88265,1184.23296 L4257.56933,1184.23296 L4257.56933,1172.53231 L4248.64511,1172.53231 L4248.64511,1161.62493 L4239.32426,1160.83167 L4239.32426,1102.9234 L4248.64511,1102.9234 L4248.64511,1090.03286 L4257.56933,1090.03286 L4257.56933,1078.33221 L4314.88265,1078.33221 L4314.88265,1090.03286 L4324.2035,1090.03286 L4324.2035,1102.9234 L4333.32604,1102.9234 L4333.32604,1125.92805 Z M4314.88265,1114.22741 L4314.88265,1102.9234 L4267.28681,1102.9234 L4267.28681,1114.22741 L4314.88265,1114.22741 Z M4505.0677,1160.83167 L4494.55695,1160.83167 L4494.55695,1172.53231 L4485.2361,1172.53231 L4485.2361,1184.23296 L4410.66928,1184.23296 L4410.66928,1020.02731 L4475.71693,1020.02731 L4475.71693,1031.72795 L4485.2361,1031.72795 L4485.2361,1043.23028 L4494.55695,1043.23028 L4494.55695,1089.63622 L4485.2361,1089.63622 L4485.2361,1102.9234 L4494.55695,1102.9234 L4494.55695,1114.62404 L4505.0677,1114.62404 L4505.0677,1160.83167 Z M4475.71693,1077.93558 L4475.71693,1054.93093 L4466.59439,1054.93093 L4466.59439,1043.23028 L4429.5093,1043.23028 L4429.5093,1089.63622 L4466.59439,1089.63622 L4466.59439,1077.93558 L4475.71693,1077.93558 Z M4485.2361,1149.13102 L4485.2361,1126.32468 L4475.71693,1126.32468 L4475.71693,1114.62404 L4429.5093,1114.62404 L4429.5093,1160.83167 L4475.71693,1160.83167 L4475.71693,1149.13102 L4485.2361,1149.13102 Z M4600.16022,1102.52676 L4590.64105,1103.51834 L4590.64105,1125.92805 L4580.92357,1126.523 L4580.92357,1149.13102 L4571.60272,1149.13102 L4571.60272,1172.53231 L4561.68692,1172.53231 L4561.68692,1195.9336 L4552.7627,1195.9336 L4552.7627,1207.63424 L4534.12099,1207.63424 L4534.12099,1196.33023 L4543.04521,1196.33023 L4543.04521,1172.92894 L4551.96943,1172.92894 L4551.96943,1149.13102 L4543.04521,1149.13102 L4543.04521,1126.523 L4534.12099,1125.92805 L4534.12099,1103.51834 L4524.80014,1102.52676 L4524.80014,1078.33221 L4543.83848,1078.33221 L4543.83848,1102.52676 L4552.7627,1102.52676 L4552.7627,1125.72974 L4570.80945,1125.72974 L4570.80945,1102.52676 L4580.1303,1102.52676 L4580.1303,1078.33221 L4600.16022,1078.33221 L4600.16022,1102.52676 Z M4685.13863,1184.23296 L4638.73268,1184.23296 L4638.73268,1172.53231 L4629.41183,1172.53231 L4629.41183,1102.52676 L4609.77855,1102.52676 L4609.77855,1078.33221 L4629.41183,1078.33221 L4629.41183,1031.72795 L4647.85522,1031.72795 L4647.85522,1078.33221 L4675.81777,1078.33221 L4675.81777,1102.52676 L4647.85522,1102.52676 L4647.85522,1161.2283 L4685.13863,1161.2283 L4685.13863,1184.23296 Z M4795.6998,1125.92805 L4786.57726,1125.92805 L4786.57726,1137.6287 L4720.73635,1137.6287 L4720.73635,1149.72597 L4729.46225,1149.72597 L4729.46225,1160.83167 L4786.57726,1160.83167 L4786.57726,1172.53231 L4777.25641,1172.53231 L4777.25641,1184.23296 L4719.94309,1184.23296 L4719.94309,1172.53231 L4711.01887,1172.53231 L4711.01887,1161.62493 L4701.69801,1160.83167 L4701.69801,1102.9234 L4711.01887,1102.9234 L4711.01887,1090.03286 L4719.94309,1090.03286 L4719.94309,1078.33221 L4777.25641,1078.33221 L4777.25641,1090.03286 L4786.57726,1090.03286 L4786.57726,1102.9234 L4795.6998,1102.9234 L4795.6998,1125.92805 Z M4777.25641,1114.22741 L4777.25641,1102.9234 L4729.66057,1102.9234 L4729.66057,1114.22741 L4777.25641,1114.22741 Z M4892.37885,1172.53231 L4882.85968,1172.53231 L4882.85968,1184.23296 L4826.1413,1184.23296 L4826.1413,1172.53231 L4817.01877,1172.53231 L4817.01877,1161.2283 L4873.93546,1161.2283 L4873.93546,1137.6287 L4826.1413,1137.6287 L4826.1413,1126.523 L4817.01877,1125.92805 L4817.01877,1090.03286 L4826.1413,1090.03286 L4826.1413,1078.33221 L4882.85968,1078.33221 L4882.85968,1090.03286 L4892.37885,1090.03286 L4892.37885,1102.52676 L4835.26384,1102.52676 L4835.26384,1114.62404 L4882.85968,1114.62404 L4882.85968,1125.72974 L4892.37885,1126.32468 L4892.37885,1172.53231 Z" id="Non-Binary-in-Tech-B" fill="#000000"></path>
        </g>
    </g>
</svg>