<?xml version="1.0" encoding="UTF-8"?>
<svg width="1509px" height="1800px" viewBox="0 0 1509 1800" version="1.1" xmlns="http://www.w3.org/2000/svg" xmlns:xlink="http://www.w3.org/1999/xlink">
    <!-- Generator: Sketch 39.1 (31720) - http://www.bohemiancoding.com/sketch -->
    <title>NBiT_Pixel_Logo_Large</title>
    <desc>Created with Sketch.</desc>
    <defs></defs>
    <g id="Page-1" stroke="none" stroke-width="1" fill="none" fill-rule="evenodd">
        <g id="NBiT_Pixel_Logo_Large" fill="#231F20">
            <g id="Layer_2">
                <g id="Group">
                    <path d="M1448.6,380.6 L1448.6,316.6 L1448.2,316.6 L1388.3,316.6 L1387.9,316.6 L1328,316.6 L1328,254.3 L1327.6,254.3 L1267.7,254.3 L1267.5,254.3 L1267.3,254.3 L1267.1,254.3 L1207.2,254.3 L1207.2,191.1 L1206.8,191.1 C1206.8,191.1 1206.8,191.1 1206.7,191.1 L1206.7,190.3 L1086.4,190.3 L1086,190.3 L1026.2,190.3 L1026.2,128 L1025.8,128 L1025.7,128 L965.9,128 L965.7,128 L965.5,128 L965.3,128 L957.7,128 L905.5,128 L905.5,64 L905.1,64 L858.2,64 L845.2,64 L845,64 L844.8,64 L844.6,64 L785.3,64 L785.3,0 L784.9,0 L784.6,0 L784.2,0 L725,0 L724.6,0 L724.3,0 L723.9,0 L723.9,64 L664.6,64 L664.4,64 L664.2,64 L664,64 L661.4,64 L604.1,64 L603.7,64 L603.7,128 L543.9,128 L543.7,128 L543.5,128 L543.3,128 L483.4,128 L483,128 L483,190.3 L423.2,190.3 L422.8,190.3 L301.9,190.3 L301.9,191.1 L301.9,254.3 L242,254.3 L241.8,254.3 L241.6,254.3 L241.4,254.3 L181.5,254.3 L181.1,254.3 L181.1,316.6 L121.2,316.6 L120.8,316.6 L60.9,316.6 L60.5,316.6 L60.5,380.6 L0.6,380.6 L0.2,380.6 L0.2,392.1 L0,392.1 L0,1419.1 L60.3,1419.1 L60.3,1483.1 L60.7,1483.1 L120.6,1483.1 L121,1483.1 L180.9,1483.1 L180.9,1545.4 L181.3,1545.4 L241.2,1545.4 L241.4,1545.4 L241.6,1545.4 L241.8,1545.4 L301.7,1545.4 L301.7,1608.6 L302.1,1608.6 L302.2,1608.6 L302.2,1609.4 L422.5,1609.4 L422.9,1609.4 L482.7,1609.4 L482.7,1671.7 L483.1,1671.7 L483.2,1671.7 L543,1671.7 L543.2,1671.7 L543.4,1671.7 L543.6,1671.7 L551.2,1671.7 L603.4,1671.7 L603.4,1735.7 L603.8,1735.7 L650.7,1735.7 L663.7,1735.7 L663.9,1735.7 L664.1,1735.7 L664.3,1735.7 L723.6,1735.7 L723.6,1799.7 L724,1799.7 L724.3,1799.7 L724.7,1799.7 L783.9,1799.7 L784.3,1799.7 L784.6,1799.7 L785,1799.7 L785,1735.7 L844.3,1735.7 L844.5,1735.7 L844.7,1735.7 L844.9,1735.7 L847.5,1735.7 L904.8,1735.7 L905.2,1735.7 L905.2,1671.7 L965,1671.7 L965.2,1671.7 L965.4,1671.7 L965.6,1671.7 L1025.5,1671.7 L1025.9,1671.7 L1025.9,1609.4 L1085.7,1609.4 L1086.1,1609.4 L1206.8,1609.4 L1206.8,1608.6 L1206.8,1545.4 L1266.7,1545.4 L1266.9,1545.4 L1267.1,1545.4 L1267.3,1545.4 L1327.2,1545.4 L1327.6,1545.4 L1327.6,1483.1 L1387.5,1483.1 L1387.9,1483.1 L1447.8,1483.1 L1448.2,1483.1 L1448.2,1419.1 L1508.1,1419.1 L1508.5,1419.1 L1508.5,1407.6 L1508.7,1407.6 L1508.7,380.6 C1488.7,380.6 1468.7,380.6 1448.6,380.6 L1448.6,380.6 Z M1388,1355 L1387.6,1355 L1387.6,1419 L1327.7,1419 L1327.3,1419 L1267.4,1419 L1267,1419 L1267,1481.3 L1266.8,1481.3 L1206.9,1481.3 L1206.5,1481.3 L1146.6,1481.3 L1146.2,1481.3 L1146.2,1544.5 L1086.3,1544.5 L1085.9,1544.5 L965.6,1544.5 L965.6,1545.3 L965.2,1545.3 L965.2,1607.6 L965.1,1607.6 L905.2,1607.6 L904.8,1607.6 L844.9,1607.6 L844.5,1607.6 L844.5,1671.6 L844.4,1671.6 L785,1671.6 L784.6,1671.6 L784.5,1671.6 L784.1,1671.6 L724.7,1671.6 L724.3,1671.6 L724.2,1671.6 L723.8,1671.6 L664.4,1671.6 L664.3,1671.6 L664.3,1607.6 L663.9,1607.6 L604,1607.6 L603.6,1607.6 L551.3,1607.6 L543.7,1607.6 L543.6,1607.6 L543.6,1544.6 L422.7,1544.6 L422.3,1544.6 L362.4,1544.6 L362.4,1481.4 L362,1481.4 L302.1,1481.4 L301.7,1481.4 L241.8,1481.4 L241.6,1481.4 L241.6,1419.1 L241.2,1419.1 L181.3,1419.1 L180.9,1419.1 L121,1419.1 L121,1355.1 L120.6,1355.1 L60.7,1355.1 L60.7,444.6 L60.9,444.6 L120.8,444.6 L121.2,444.6 L121.2,380.6 L181.1,380.6 L181.5,380.6 L241.4,380.6 L241.8,380.6 L241.8,318.3 L242,318.3 L301.9,318.3 L302.3,318.3 L362.2,318.3 L362.6,318.3 L362.6,255.1 L422.5,255.1 L422.9,255.1 L543.2,255.1 L543.2,254.3 L543.6,254.3 L543.6,192 L543.7,192 L603.6,192 L604,192 L663.9,192 L664.3,192 L664.3,128 L664.4,128 L723.8,128 L724.2,128 L724.3,128 L724.7,128 L784.1,128 L784.5,128 L784.6,128 L785,128 L844.4,128 L844.5,128 L844.5,192 L844.9,192 L904.8,192 L905.2,192 L957.5,192 L965.1,192 L965.2,192 L965.2,255.2 L1086,255.2 L1086.4,255.2 L1146.3,255.2 L1146.3,318.4 L1146.7,318.4 L1206.6,318.4 L1207,318.4 L1266.9,318.4 L1267.1,318.4 L1267.1,380.6 L1267.5,380.6 L1327.4,380.6 L1327.8,380.6 L1387.7,380.6 L1387.7,444.6 L1388.1,444.6 L1448,444.6 L1448,1355 L1447.8,1355 L1388,1355 L1388,1355 Z" id="Shape"></path>
                    <g transform="translate(145.000000, 624.000000)" id="Shape">
                        <path d="M305.1,11.1 L314.9,59.1 L314.9,544.8 L210.4,544.8 L203.6,514.1 L183.9,514.1 L172.8,458.8 L171,458.8 L171,452.7 L159.3,452.7 L153.2,421.3 L135.4,420.1 L123.7,365.9 L121.9,365.3 L121.9,359.8 L115.1,359.8 L115.1,544.9 L13.7,544.9 L2,489.6 L0.2,489.6 L0.2,0.7 L105.9,0.7 L105.9,11.2 L109.6,31.5 L131.7,31.5 L131.7,42 L141.5,93 L156.3,93 L156.3,103.5 L160,125 L180.9,125.6 L180.9,135.4 L190.7,186.4 L196.8,186.4 L196.8,0.7 L305,0.7 L305,11.1 L305.1,11.1 L305.1,11.1 Z M276.8,28.9 L225.8,28.9 L225.8,338.1 L201.8,338.1 L201.8,277.8 L177.2,276.6 L177.2,213.3 L152.6,211.5 L152.6,151.9 L128,150.1 L128,121.2 L103.4,121.2 L103.4,59.7 L77,59.7 L77,29 L29,29 L29,461.2 L77,461.2 L77,151.9 L101.6,151.9 L101.6,212.2 L126.2,214 L126.2,276.7 L150.8,278.5 L150.8,338.1 L174.8,339.9 L174.8,368.8 L199.4,368.8 L199.4,430.3 L225.8,430.3 L225.8,461 L276.8,461 L276.8,28.9 L276.8,28.9 Z"></path>
                        <path d="M678.3,260.1 L688.1,308.1 L688.1,483.3 L660.4,483.3 L660.4,514 L636.4,514 L636.4,544.7 L386.8,544.7 L375.1,489.4 L373.3,489.4 L373.3,0.7 L601.4,0.7 L601.4,11.2 L605.7,31.5 L626.6,31.5 L626.6,42 L630.3,62.3 L651.2,62.3 L651.2,72.6 L660.4,120.6 L660.4,249.7 L678.2,249.7 L678.3,260.1 L678.3,260.1 L678.3,260.1 Z M650,277.9 L622.3,277.9 L622.3,247.2 L598.3,247.2 L598.3,212.2 L622.3,212.2 L622.3,90.4 L598.3,90.4 L598.3,59.7 L573.1,59.7 L573.1,29 L402.2,29 L402.2,461.2 L598.3,461.2 L598.3,430.5 L622.3,430.5 L622.3,399.8 L650,399.8 L650,277.9 L650,277.9 Z M548.5,181.4 L548.5,212.1 L451.4,212.1 L451.4,90.4 L548.5,90.4 L548.5,121.1 L573.1,121.1 L573.1,181.3 L548.5,181.4 L548.5,181.4 L548.5,181.4 Z M573.1,368.9 L573.1,399.6 L451.4,399.6 L451.4,277.9 L573.1,277.9 L573.1,308.6 L598.3,308.6 L598.3,368.8 L573.1,368.9 L573.1,368.9 L573.1,368.9 Z"></path>
                        <path d="M922.9,382.4 L932.1,431 L932.1,544.7 L732.3,544.7 L721.2,489.4 L719.4,489.4 L719.4,372.6 L768.6,372.6 L768.6,329.6 L757.5,329.6 L745.8,274.9 L744,274.9 L744,154.4 L768.6,154.4 L768.6,62.2 L873.7,62.2 L873.7,72.6 L883.5,120.6 L883.5,372.6 L922.8,372.6 L922.8,382.4 L922.9,382.4 L922.9,382.4 Z M894,400.9 L845.4,400.9 L845.4,182.6 L772.9,182.6 L772.9,246.6 L796.9,246.6 L796.9,400.9 L747.7,400.9 L747.7,461.1 L894,461.1 L894,400.9 L894,400.9 Z M845.5,90.4 L796.9,90.4 L796.9,150.7 L845.5,150.7 L845.5,90.4 L845.5,90.4 Z"></path>
                        <path d="M1208.8,11.1 L1218.6,59.1 L1218.6,172.8 L1145.4,172.8 L1145.4,544.8 L1043.3,544.8 L1032.2,489.5 L1030.4,489.5 L1030.4,172.8 L967.1,172.8 L956,118.1 L953.5,118.1 L953.5,0.7 L1208.6,0.7 L1208.6,11.1 L1208.8,11.1 L1208.8,11.1 Z M1180.5,28.9 L981.9,28.9 L981.9,89.2 L1058.7,89.2 L1058.7,461.2 L1107.3,461.2 L1107.3,89.2 L1180.5,89.2 L1180.5,28.9 L1180.5,28.9 Z"></path>
                    </g>
                </g>
            </g>
        </g>
    </g>
</svg>