<?xml version="1.0" encoding="utf-8"?>
<!-- Generator: Adobe Illustrator 21.0.2, SVG Export Plug-In . SVG Version: 6.00 Build 0)  -->
<svg version="1.1" xmlns="http://www.w3.org/2000/svg" xmlns:xlink="http://www.w3.org/1999/xlink" x="0px" y="0px"
	 viewBox="0 0 2880 1800" style="enable-background:new 0 0 2880 1800;" xml:space="preserve">
<style type="text/css">
	.st0{display:none;}
	.st1{display:inline;}
	.st2{fill:none;}
	.st3{fill:#D6B3D5;}
	.st4{fill:#B7BADE;}
	.st5{fill:#A8BFE3;}
	.st6{fill:#85C7ED;}
	.st7{fill:#79CAF1;}
	.st8{fill:#63C2E9;}
	.st9{fill:#EAC5DD;}
	.st10{fill:#E0BBD8;}
	.st11{fill:#98C2E7;}
	.st12{fill:#80C8EF;}
	.st13{fill:#79C3E9;}
	.st14{fill:#CEB3D6;}
	.st15{fill:#E4BFDA;}
	.st16{fill:#DBB7D6;}
	.st17{fill:#C8B3D6;}
	.st18{fill:#404041;}
	.st19{fill:#231F20;}
</style>
<g id="Layer_1" class="st0">
	<g class="st1">
		<polygon class="st2" points="1149.6,919.4 1581.8,769.5 2190.4,1006.6 2190.4,1006.5 1581.4,769.3 1149.2,919.1 790.8,1069.2 
			631.6,1069.2 631.6,1069.5 791.2,1069.5 		"/>
		<polygon class="st3" points="1262.8,124.3 977.8,288.8 1397.2,430.1 		"/>
		<polygon class="st4" points="1524.9,104.5 1411,38.7 1262.8,124.3 1397.2,430.1 		"/>
		<polygon class="st5" points="1965.8,619.7 1837.1,284.8 1524.9,104.5 1397.2,430.1 		"/>
		<polygon class="st6" points="2008.2,383.6 1837.1,284.8 1965.8,619.7 		"/>
		<polygon class="st7" points="2061.4,414.2 2008.2,383.6 1965.8,619.7 		"/>
		<polygon class="st8" points="2190.4,517.4 2190.4,488.7 2061.4,414.2 1965.8,619.7 		"/>
		<polygon class="st9" points="631.6,488.7 631.6,724.2 790.8,1069.2 947.3,306.4 		"/>
		<polygon class="st10" points="977.8,288.8 947.3,306.4 790.8,1069.2 1397.2,430.1 		"/>
		<polygon class="st10" points="631.6,724.2 631.6,1069.2 790.8,1069.2 		"/>
		<polygon class="st4" points="790.8,1069.2 1149.2,919.1 1397.2,430.1 		"/>
		<polygon class="st5" points="1149.2,919.1 1581.4,769.3 1397.2,430.1 		"/>
		<polygon class="st11" points="1397.2,430.1 1581.4,769.3 1965.8,619.7 		"/>
		<polygon class="st12" points="1965.8,619.7 1581.4,769.3 2190.4,1006.5 2190.4,881.6 		"/>
		<polygon class="st13" points="2190.4,881.6 2190.4,517.4 1965.8,619.7 		"/>
		<polygon class="st14" points="962.8,1580 1311,1781 1412.4,1641.7 		"/>
		<polygon class="st4" points="1311,1781 1411,1838.7 1497.7,1788.7 1412.4,1641.7 		"/>
		<polygon class="st5" points="1412.4,1641.7 1497.7,1788.7 1818.6,1603.4 1966.2,1219 		"/>
		<polygon class="st6" points="1818.6,1603.4 2014.9,1490 1966.2,1219 		"/>
		<polygon class="st7" points="2014.9,1490 2075.9,1454.8 1966.2,1219 		"/>
		<polygon class="st8" points="2075.9,1454.8 2190.4,1388.7 2190.4,1321.2 1966.2,1219 		"/>
		<polygon class="st15" points="791.2,1069.5 696,1426 936.3,1564.7 		"/>
		<polygon class="st16" points="791.2,1069.5 936.3,1564.7 962.8,1580 1412.4,1641.7 		"/>
		<polygon class="st9" points="696,1426 791.2,1069.5 631.6,1069.5 631.6,1388.7 		"/>
		<polygon class="st17" points="1149.6,919.4 791.2,1069.5 1412.4,1641.7 		"/>
		<polygon class="st4" points="1581.8,769.5 1149.6,919.4 1412.4,1641.7 		"/>
		<polygon class="st11" points="1966.2,1219 1581.8,769.5 1412.4,1641.7 		"/>
		<polygon class="st13" points="1966.2,1219 2190.4,1132 2190.4,1006.6 1581.8,769.5 		"/>
		<polygon class="st13" points="2190.4,1321.2 2190.4,1132 1966.2,1219 		"/>
		<path class="st18" d="M1091.8,660.2l10.4,50.5v511.7H992l-7.1-32.4h-20.7l-11.7-58.3h-1.9v-6.5h-12.3l-6.5-33L913,1091l-12.3-57
			l-1.9-0.6v-5.8h-7.1v195H784.7l-12.3-58.3h-1.9v-515h111.4v11l3.9,21.4h23.3v11l10.4,53.8H935v11l3.9,22.7l22,0.6v10.4l10.4,53.8
			h6.5V649.2h114V660.2z M1062,679h-53.8v325.8H983v-63.5l-25.9-1.3v-66.7l-25.9-1.9v-62.8l-25.9-1.9v-30.4h-25.9v-64.8h-27.9V679
			h-50.5v455.4h50.5V808.6h25.9v63.5l25.9,1.9v66.1l25.9,1.9v62.8l25.3,1.9v30.4h25.9v64.8h27.9v32.4h53.8V679z"/>
		<path class="st18" d="M1485,922.6l10.4,50.5v184.6h-29.1v32.4h-25.3v32.4h-263l-12.3-58.3h-1.9v-515H1404v11l4.5,21.4h22v11
			l3.9,21.4h22v11l9.7,50.5v136h18.8V922.6z M1455.2,941.4H1426V909h-25.3v-36.9h25.3V743.8h-25.3v-32.4h-26.6V679h-180.1v455.4
			h206.6V1102h25.3v-32.4h29.2V941.4z M1348.3,839.7v32.4H1246V743.8h102.3v32.4h25.9v63.5H1348.3z M1374.2,1037.2v32.4H1246V941.4
			h128.3v32.4h26.6v63.5H1374.2z"/>
		<path class="st18" d="M1742.8,1051.5l9.7,51.2v119.8H1542l-11.7-58.3h-1.9v-123.1h51.8v-45.3h-11.7l-12.3-57.7h-1.9v-127h25.9V714
			H1691v11l10.4,50.5v265.6h41.5V1051.5z M1712.3,1070.9h-51.2V841h-76.4v67.4h25.3v162.6h-51.8v63.5h154.2V1070.9z M1661.2,743.8
			H1610v63.5h51.2V743.8z"/>
		<path class="st18" d="M2044,660.2l10.4,50.5v119.8h-77.1v391.9h-107.5l-11.7-58.3h-1.9V830.6h-66.7l-11.7-57.7h-2.6V649.2H2044
			V660.2z M2014.2,679H1805v63.5h81v391.9h51.2V742.5h77.1V679z"/>
	</g>
</g>
<g id="Layer_2">
	<g>
		<path class="st19" d="M2133.9,381c0-22.3,0-42.3,0-64c-0.1,0-0.3,0-0.4,0c-20.1,0-39.9,0-59.9,0c-0.1,0-0.3,0-0.4,0
			c-20.1,0-39.9,0-59.9,0c0-21.6,0-41.2,0-62.3c-0.1,0-0.3,0-0.4,0c-20.1,0-39.9,0-59.9,0c-0.1,0-0.1,0-0.2,0c-0.1,0-0.1,0-0.2,0
			h-0.2c-20.1,0-39.9,0-59.9,0c0-22,0-41.8,0-63.2c-0.1,0-0.3,0-0.4,0c0,0,0,0-0.1,0v-0.8h-120.3h-0.4c-20,0-39.8,0-59.8,0
			c0-21.6,0-41.2,0-62.3c-0.1,0-0.3,0-0.4,0c0,0-0.1,0-0.1,0c-20,0-39.8,0-59.8,0c-0.1,0-0.1,0-0.2,0c-0.1,0-0.1,0-0.2,0h-0.2
			c-2.5,0-5,0-7.6,0c-17.4,0-34.8,0-52.2,0c0-22.3,0-42.3,0-64c-0.1,0-0.3,0-0.4,0c-15.7,0-31.3,0-46.9,0c-4.3,0-8.7,0-13,0
			c-0.1,0-0.1,0-0.2,0c-0.1,0-0.1,0-0.2,0h-0.2c-19.9,0-39.5,0-59.3,0c0-22.3,0-42.3,0-64c-0.1,0-0.3,0-0.4,0c-0.1,0-0.2,0-0.3,0
			c-0.1,0-0.3,0-0.4,0c-19.8,0-39.4,0-59.2,0c-0.1,0-0.3,0-0.4,0c-0.1,0-0.2,0-0.3,0c-0.1,0-0.3,0-0.4,0c0,21.7,0,41.7,0,64
			c-19.8,0-39.4,0-59.3,0c-0.1,0-0.1,0-0.2,0c-0.1,0-0.1,0-0.2,0h-0.2c-0.9,0-1.8,0-2.6,0c-19.1,0-38.1,0-57.3,0c-0.1,0-0.3,0-0.4,0
			c0,21.7,0,41.7,0,64c-20,0-39.8,0-59.8,0c-0.1,0-0.1,0-0.2,0c-0.1,0-0.1,0-0.2,0h-0.2c-20,0-39.8,0-59.9,0c-0.1,0-0.3,0-0.4,0
			c0,21.1,0,40.7,0,62.3c-20,0-39.8,0-59.8,0c-0.1,0-0.3,0-0.4,0H987.2v0.8c0,21.4,0,41.2,0,63.2c-20,0-39.8,0-59.9,0
			c-0.1,0-0.1,0-0.2,0c-0.1,0-0.1,0-0.2,0h-0.2c-20,0-39.8,0-59.9,0c-0.1,0-0.3,0-0.4,0c0,21.1,0,40.7,0,62.3c-20,0-39.8,0-59.9,0
			c-0.1,0-0.3,0-0.4,0c-20,0-39.8,0-59.9,0c-0.1,0-0.3,0-0.4,0c0,21.7,0,41.7,0,64c-20,0-39.8,0-59.9,0c-0.1,0-0.3,0-0.4,0
			c0,3.9,0,7.7,0,11.5h-0.2c0,325.8,0,710.5,0,1027c20.2,0,40.2,0,60.3,0c0,22.3,0,42.3,0,64c0.1,0,0.3,0,0.4,0
			c20.1,0,39.9,0,59.9,0c0.1,0,0.3,0,0.4,0c20.1,0,39.9,0,59.9,0c0,21.6,0,41.2,0,62.3c0.1,0,0.3,0,0.4,0c20.1,0,39.9,0,59.9,0
			c0.1,0,0.1,0,0.2,0c0.1,0,0.1,0,0.2,0c0.1,0,0.1,0,0.2,0c20.1,0,39.9,0,59.9,0c0,22,0,41.8,0,63.2c0.1,0,0.3,0,0.4,0
			c0,0,0,0,0.1,0v0.8h120.3c0.1,0,0.3,0,0.4,0c20,0,39.8,0,59.8,0c0,21.6,0,41.2,0,62.3c0.1,0,0.3,0,0.4,0c0,0,0.1,0,0.1,0
			c20,0,39.8,0,59.8,0c0.1,0,0.1,0,0.2,0c0.1,0,0.1,0,0.2,0c0.1,0,0.1,0,0.2,0c2.5,0,5,0,7.6,0c17.4,0,34.8,0,52.2,0
			c0,22.3,0,42.3,0,64c0.1,0,0.3,0,0.4,0c15.7,0,31.3,0,46.9,0c4.3,0,8.7,0,13,0c0.1,0,0.1,0,0.2,0c0.1,0,0.1,0,0.2,0
			c0.1,0,0.1,0,0.2,0c19.9,0,39.5,0,59.3,0c0,22.3,0,42.3,0,64c0.1,0,0.3,0,0.4,0c0.1,0,0.2,0,0.3,0c0.1,0,0.3,0,0.4,0
			c19.8,0,39.4,0,59.2,0c0.1,0,0.3,0,0.4,0c0.1,0,0.2,0,0.3,0c0.1,0,0.3,0,0.4,0c0-21.7,0-41.7,0-64c19.8,0,39.4,0,59.3,0
			c0.1,0,0.1,0,0.2,0c0.1,0,0.1,0,0.2,0c0.1,0,0.1,0,0.2,0c0.9,0,1.8,0,2.6,0c19.1,0,38.1,0,57.3,0c0.1,0,0.3,0,0.4,0
			c0-21.7,0-41.7,0-64c20,0,39.8,0,59.8,0c0.1,0,0.1,0,0.2,0c0.1,0,0.1,0,0.2,0c0.1,0,0.1,0,0.2,0c20,0,39.8,0,59.9,0
			c0.1,0,0.3,0,0.4,0c0-21.1,0-40.7,0-62.3c20,0,39.8,0,59.8,0c0.1,0,0.3,0,0.4,0h120.7v-0.8c0-21.4,0-41.2,0-63.2
			c20,0,39.8,0,59.9,0c0.1,0,0.1,0,0.2,0c0.1,0,0.1,0,0.2,0c0.1,0,0.1,0,0.2,0c20,0,39.8,0,59.9,0c0.1,0,0.3,0,0.4,0
			c0-21.1,0-40.7,0-62.3c20,0,39.8,0,59.9,0c0.1,0,0.3,0,0.4,0c20,0,39.8,0,59.9,0c0.1,0,0.3,0,0.4,0c0-21.7,0-41.7,0-64
			c20,0,39.8,0,59.9,0c0.1,0,0.3,0,0.4,0c0-3.9,0-7.7,0-11.5h0.2c0-325.8,0-710.5,0-1027C2174,381,2154,381,2133.9,381z
			 M2073.3,1355.4h-0.4v64H2013h-0.4h-59.9h-0.4v62.3h-0.2h-59.9h-0.4h-59.9h-0.4v63.2h-59.9h-0.4h-120.3v0.8h-0.4v62.3h-0.1h-59.9
			h-0.4h-59.9h-0.4v64h-0.1h-59.4h-0.4h-0.1h-0.4h-59.4h-0.4h-0.1h-0.4h-59.4h-0.1v-64h-0.4h-59.9h-0.4h-52.3h-7.6h-0.1V1545H1108
			h-0.4h-59.9v-63.2h-0.4h-59.9H987h-59.9h-0.2v-62.3h-0.4h-59.9h-0.4h-59.9v-64h-0.4H746V445h0.2h59.9h0.4v-64h59.9h0.4h59.9h0.4
			v-62.3h0.2h59.9h0.4h59.9h0.4v-63.2h59.9h0.4h120.3v-0.8h0.4v-62.3h0.1h59.9h0.4h59.9h0.4v-64h0.1h59.4h0.4h0.1h0.4h59.4h0.4h0.1
			h0.4h59.4h0.1v64h0.4h59.9h0.4h52.3h7.6h0.1v63.2h120.8h0.4h59.9v63.2h0.4h59.9h0.4h59.9h0.2V381h0.4h59.9h0.4h59.9v64h0.4h59.9
			v910.4h-0.2H2073.3z"/>
		<g>
			<path class="st19" d="M1135.4,635.5l9.8,48v485.7h-104.5l-6.8-30.7h-19.7l-11.1-55.3h-1.8v-6.1h-11.7l-6.1-31.4l-17.8-1.2
				L954,990.3l-1.8-0.6v-5.5h-6.8v185.1H844l-11.7-55.3h-1.8V625.1h105.7v10.5l3.7,20.3H962v10.5l9.8,51h14.8v10.5l3.7,21.5
				l20.9,0.6v9.8l9.8,51h6.1V625.1h108.2V635.5z M1107.1,653.3h-51v309.2h-24v-60.3l-24.6-1.2v-63.3l-24.6-1.8v-59.6l-24.6-1.8
				v-28.9h-24.6v-61.5h-26.4v-30.7h-48v432.2h48V776.3h24.6v60.3l24.6,1.8v62.7l24.6,1.8v59.6l24,1.8v28.9h24.6v61.5h26.4v30.7h51
				V653.3z"/>
			<path class="st19" d="M1508.6,884.5l9.8,48v175.2h-27.7v30.7h-24v30.7h-249.6l-11.7-55.3h-1.8V625.1h228.1v10.5l4.3,20.3h20.9
				v10.5l3.7,20.3h20.9V697l9.2,48v129.1h17.8V884.5z M1480.3,902.3h-27.7v-30.7h-24v-35h24V714.8h-24v-30.7h-25.2v-30.7h-170.9
				v432.2h196.1v-30.7h24v-30.7h27.7V902.3z M1378.8,805.8v30.7h-97.1V714.8h97.1v30.7h24.6v60.2H1378.8z M1403.4,993.3v30.7h-121.7
				V902.3h121.7v30.7h25.2v60.2H1403.4z"/>
			<path class="st19" d="M1753.2,1006.8l9.2,48.6v113.7h-199.8l-11.1-55.3h-1.8V997h49.2v-43h-11.1l-11.7-54.7h-1.8V778.8h24.6
				v-92.2h105.1V697l9.8,48V997h39.3V1006.8z M1724.3,1025.3h-48.6V807h-72.5V871h24v154.3H1578v60.2h146.3V1025.3z M1675.8,714.8
				h-48.6v60.3h48.6V714.8z"/>
			<path class="st19" d="M2039.1,635.5l9.8,48v113.7h-73.2v372h-102.1l-11.1-55.3h-1.8V797.2h-63.3l-11.1-54.7h-2.5V625.1h255.1
				V635.5z M2010.8,653.3h-198.6v60.3h76.8v372h48.6v-372h73.2V653.3z"/>
		</g>
	</g>
</g>
</svg>
