<?xml version="1.0" standalone="no"?>
<!DOCTYPE svg PUBLIC "-//W3C//DTD SVG 1.1//EN" "http://www.w3.org/Graphics/SVG/1.1/DTD/svg11.dtd" >
<svg xmlns="http://www.w3.org/2000/svg" xmlns:xlink="http://www.w3.org/1999/xlink" version="1.1">
<metadata></metadata>
<defs>
<font id="karmafuture" horiz-adv-x="1179" >
<font-face units-per-em="2048" ascent="1806" descent="-242" />
<missing-glyph horiz-adv-x="462" />
<glyph horiz-adv-x="0" />
<glyph horiz-adv-x="682" />
<glyph unicode=" "  horiz-adv-x="462" />
<glyph unicode="&#x09;" horiz-adv-x="462" />
<glyph unicode="&#xa0;" horiz-adv-x="462" />
<glyph unicode="!" horiz-adv-x="628" d="M57 621v708h80v205h352v-35l31 -170h49v-35l33 -159v-697h-82v-307h-6l6 -31v-379h-338l-39 185h-6v389h10l-4 18h-6v125h-37l-37 183h-6zM152 715h81v-305h160v305h82v520h-82v205h-160v-205h-81v-520zM233 0h160v201h-160v-201z" />
<glyph unicode="&#x22;" horiz-adv-x="909" d="M113 735v594h678v-35l32 -159v-584h-665l-39 184h-6zM209 829h160v406h-160v-406zM537 829h159v406h-159v-406z" />
<glyph unicode="#" horiz-adv-x="1193" d="M51 313v289h162v51h-37l-39 185h-4v286h244v308h688v-35l31 -160v-113h49v-32l33 -162v-277h-162v-215h-6l6 -30v-277h-166v-307h-674l-39 184h-4v123h-39l-35 182h-8zM145 410h82v-308h164v308h172v-308h160v308h166v98h-78v207h78v217h162v98h-82v307h-164v-307h-164 v307h-170v-307h-244v-98h160v-219h-78v-205h-164v-98zM471 512v201h92v215h160v-213h-82v-203h-170z" />
<glyph unicode="$" horiz-adv-x="960" d="M53 213v287h35l-27 125l-8 2v600h82v102h172v205h350v-35l33 -160v-10h131v-35l15 -67h67v-35l33 -160v-276h-31l31 -150v-577h-82v-103h-164v-205h-340l-37 185h-6v20h-129l-20 103h-62l-35 184h-8zM147 307h82v-102h172v-205h162v205h164v102h82v406l-82 4v108h-164 v209h246v99h-82v102h-164v205h-162v-205h-172v-102h-82v-418l82 -4v-97h172v-208h-254v-99zM311 829v201h88v-201h-88zM565 410v200h78v-200h-78z" />
<glyph unicode="%" horiz-adv-x="1251" d="M57 -94v389h80v102h78v103h92v51h-125l-39 184h-6v492h443v-35l32 -160v-112h23v102h80v102h82v103h84v102h272v-35l33 -159v-482h-78v-102h-82v-113h-84v-41h129v-32l33 -162v-482h-422l-39 185h-4v123h-23v-103h-81v-102h-93v-103h-342l-37 185h-6zM152 0h163v102h93 v103h81v102h82v103h82v102h82v102h80v101h84v114h82v103h78v303h-84v-102h-84v-103h-80v-102h-82v-103h-82v-112h-82v-103h-82v-102h-82v-102h-90v-103h-78v-102h-81v-201zM233 829h252v304h-252v-304zM733 0h244v303h-244v-303z" />
<glyph unicode="&#x26;" horiz-adv-x="1064" d="M80 4v701h82v522h80v102h82v103h434v-35l12 -68h72v-35l32 -159v-482h-83v-51h210v-35l33 -159v-281h-28l28 -137v-269h-829l-21 99h-61l-35 184h-8zM174 98h82v-98h324v98h161v-98h166v98l-82 8v95h-77v106h77v99h82v102h-166v-98h-77v98h-84v321h84v103h84v303h-84v102 h-246v-102h-80v-102h-82v-304h82v-116h-82v-103h-82v-512zM338 205v303h160v-205h82v-98h-82v-103h-80v103h-80zM418 829v304h78v102h84v-303h-76v-103h-86z" />
<glyph unicode="'" horiz-adv-x="655" d="M111 735v287h8l-4 18h-4v494h430v-35l32 -160v-686h-81v-102h-338l-39 184h-4zM205 829h160v103h81v508h-241v-303h82v-209h-82v-99z" />
<glyph unicode="(" horiz-adv-x="870" d="M96 313v811h82v205h82v103h78v102h434v-35l33 -160v-276h-164v-205h-76v-461h45v-32l31 -168h131v-33l33 -162v-281h-424l-21 105l-57 4l-18 96h-64l-37 185h-6v20h-39l-37 182h-6zM190 410h82v-205h82v-103l78 -6v-96h246v102h-164v201h-76v834h76v204h164v99h-246v-103 h-78v-102h-82v-205h-82v-620z" />
<glyph unicode=")" horiz-adv-x="798" d="M59 -94v287h162v204h76v461h-33l-37 182h-6v19h-119l-36 182h-7v293h433v-35l14 -72l65 -2v-34l13 -62h69v-35l33 -170h51v-32l31 -162v-799h-82v-205h-82v-102h-80v-103h-422l-36 185h-7zM154 0h243v102h80v103h82v205h82v620h-82v205h-82v102l-80 4v99h-243v-103h161 v-200h76v-834h-76v-205h-161v-98z" />
<glyph unicode="*" horiz-adv-x="1052" d="M113 111v381h12l-6 26h-6v289h14l-8 35l-6 2v383h841v-35l33 -160v-368l-12 -2l12 -50v-276h-8l8 -39v-371h-829l-39 185h-6zM209 205h164v201h82v-201h159v201h80v-201h166v201l-82 8v94h-78v106h160v99h-160v116h78v93l82 10v201h-166v-201h-80v201h-159v-201h-82v201 h-164v-201l80 -8v-95h78v-116h-158v-99h158v-106h-78v-94l-80 -8v-201z" />
<glyph unicode="+" horiz-adv-x="907" d="M29 416v391h245v317h359v-32l31 -162v-123h215v-35l32 -160v-379h-247v-307h-347l-36 185h-7v122h-202l-35 183h-8zM123 512h246v-307h170v307h245v201h-245v317h-170v-317h-246v-201z" />
<glyph unicode="," horiz-adv-x="659" d="M113 -299v696h430v-32l32 -162v-584h-81v-102h-338l-39 184h-4zM207 0h82v-106h-82v-99h160v103h82v405h-242v-303z" />
<glyph unicode="-" horiz-adv-x="1079" d="M113 416v391h852v-35l30 -160v-379h-837l-39 183h-6zM209 512h659v201h-659v-201z" />
<glyph unicode="." horiz-adv-x="673" d="M113 -94v491h442v-32l33 -162v-482h-430l-39 185h-6zM209 0h252v303h-252v-303z" />
<glyph unicode="/" horiz-adv-x="1124" d="M10 8v389h80v103h78v102h82v103h84v102h90v113h82v102h82v102h80v103h82v102h84v103h272v-35l33 -160v-481h-78v-103h-82v-102h-82v-113h-82v-102h-82v-103h-82v-102h-90v-102h-82v-103h-82v-102h-344l-37 184h-6zM104 102h166v103h82v102h82v103h90v102h82v102h82v101 h82v114h82v103h82v102h78v303h-84v-102h-84v-102h-80v-103h-82v-102h-82v-103h-82v-112h-90v-103h-84v-102h-80v-102h-78v-103h-82v-201z" />
<glyph unicode="0" horiz-adv-x="1308" d="M106 213v1014h82v205h164v102h594v-35l15 -67h159v-35l33 -170h49v-35l33 -160v-1003h-82v-205h-174v-103h-584l-20 103h-144l-38 184h-5v21h-38l-37 184h-7zM201 307h82v-205h163v-102h406v102h174v205h82v826h-82v204h-174v103h-406v-103h-161v-204h-84v-826zM365 512 v621h75v102h412v-201h-82v-102h-80v-103h-82v-114h-82v-101h-77v-102h-84zM446 205v201h82v102h82v102h82v103h82v112h76v103h92v-621h-90v-102h-406z" />
<glyph unicode="1" horiz-adv-x="968" d="M70 -94v389h245v461h-202l-35 184h-8v389h166v103h79v102h361v-35l33 -160v-1044h211v-33l32 -162v-379h-839l-35 185h-8zM164 0h661v201h-243v1239h-170v-103h-82v-102h-166v-201h248v-833h-248v-201z" />
<glyph unicode="2" horiz-adv-x="1284" d="M98 -94v389h82v102h78v103h80v102h82v43l-279 12l-37 183h-6v483l82 4v105h78v102h774v-35l12 -67h68v-35l12 -72l68 -2v-33l33 -162v-469l-82 -6v-102h-78v-113h-78v-102h-84v-41h289v-33l33 -162v-379h-1084l-37 185h-6zM193 0h905v201h-576v106h90v103h82v102h82v102 h84v101h78v114h78v97l82 6v303l-82 6v96h-78v103h-586v-103h-78v-96l-81 -6v-303l167 -6v211h78v96h414v-96h80v-107h-80v-96h-82v-109h-82v-112h-82v-103h-92v-102h-80v-102h-82v-103h-78v-102h-81v-201z" />
<glyph unicode="3" horiz-adv-x="1314" d="M109 106v394h247l-4 14h-6v242h-194l-39 184h-4v383l79 4v105h78v102h776v-35l15 -67h65v-35l15 -72l67 -2v-33l33 -162v-577h-29l29 -139v-490h-82v-98h-80v-103h-764l-22 103h-56l-20 98h-61l-39 184h-4zM203 201h82v-99h77v-102h586v102h80v99h82v311h-82v98l-80 4 v101h80v114h82v406l-82 6v96h-80v103h-586v-103h-77v-96l-82 -6v-201h166v103h80v96h417v-96h76v-209h-76v-103h-426v-215h424v-98l78 -6v-203h-76v-102l-417 10v92h-80v103h-166v-205z" />
<glyph unicode="4" horiz-adv-x="1177" d="M20 313v607h84v102h82v102h90v103h82v102h80v103h82v102h434v-35l33 -160v-634h129v-35l33 -160v-379h-162v-410h-340l-37 185h-6v225h-541l-34 182h-9zM115 410h583v-410h162v410h162v200h-162v830h-246v-103h-79v-102h-82v-102h-82v-103h-90v-102h-82v-103h-84v-415z M281 614v91l90 8v112h82v103h82v102h79v103h80v-519h-413z" />
<glyph unicode="5" horiz-adv-x="1292" d="M100 106v394h111l-8 47h-60l-37 184h-6v803h1096v-35l33 -160v-378h-189l9 -46h67v-36l12 -76l68 -2v-35l33 -160v-684h-82v-98h-80v-103h-756l-22 103h-64l-20 98h-62l-37 184h-6zM195 201h81v-99h86v-102h578v102h80v99h82v512l-82 4v108l-80 6v97h-573v311h735v201 h-907v-615h81v-112h584v-99h74v-311h-74v-102l-414 10v92h-79v103h-172v-205z" />
<glyph unicode="6" horiz-adv-x="1239" d="M70 111v809h92v204h80v103h77v102h82v103h82v102h518v-35l33 -160v-378h-246v-41h213v-33l15 -80h67v-35l13 -67h69v-35l31 -160v-584h-80v-102h-82v-103h-747l-23 103h-59l-21 102h-71l-35 185h-8zM164 205h92v-103h82v-102h569v102h82v103h80v405h-80v103h-82v112h-487 v107h82v102h84v103h76v102h245v201h-329v-103h-82v-102h-82v-102h-76v-103h-82v-205h-92v-620zM338 307v201h80v102h407v-102h82v-201h-82v-102h-407v102h-80z" />
<glyph unicode="7" horiz-adv-x="1177" d="M51 1143v391h1094v-35l33 -160v-378h-91v-205h-81v-205h-78v-215h-82v-205h-82v-205h-80v-205h-346l-37 185h-6v389h84v205h76v205h84v215h79v41h-524l-35 182h-8zM145 1239h650v-209h-80v-205h-82v-215h-84v-204h-76v-205h-84v-201h168v205h82v205h80v204h82v215h78v205 h82v205h90v201h-906v-201z" />
<glyph unicode="8" horiz-adv-x="1255" d="M80 111v594h84v624h80v103h82v102h596v-35l14 -67h68v-35l12 -68h69v-35l31 -159v-430h60v-35l32 -160v-584h-92v-102h-80v-103h-747l-23 103h-59l-21 102h-63l-35 185h-8zM174 205h84v-103h80v-102h571v102h82v103h90v405h-90v103h-82v116h82v406h-82v102h-82v103h-407 v-103h-82v-102h-80v-406h80v-116h-80v-103h-84v-405zM338 307v201h82v102h407v-102h82v-201h-82v-102h-407v102h-82zM420 932v201h82v102h241v-102h84v-201h-84v-103h-241v103h-82z" />
<glyph unicode="9" horiz-adv-x="1241" d="M72 735v594h82v103h82v102h757v-35l15 -67h77v-35l13 -68h67v-35l33 -159v-799h-82v-205h-90v-102h-78v-103h-82v-102h-80v-103h-507l-39 185h-4v389h245v41h-202l-21 102h-61l-23 113h-59l-35 184h-8zM166 829h82v-114h82v-101h485v-106h-80v-102h-82v-103h-78v-102 h-245v-201h329v102h80v103h82v102h78v103h92v204h80v621h-80v102h-92v103h-569v-103h-82v-102h-82v-406zM330 932v201h82v102h405v-102h82v-201h-82v-103h-405v103h-82z" />
<glyph unicode=":" horiz-adv-x="604" d="M113 8v492h30l-24 121h-6v503h434v-32l33 -162v-492h-27l27 -133v-481h-422l-39 184h-6zM209 102h244v304h-244v-304zM209 715h244v315h-244v-315z" />
<glyph unicode=";" horiz-adv-x="612" d="M88 8v492h29l-23 121h-6v503h430v-32l33 -162v-492h-27l27 -133v-686h-82v-102h-338l-37 184h-6v287h8l-2 20h-6zM182 102h82v-208h-82v-99h160v103h82v508h-242v-304zM182 715h242v315h-242v-315z" />
<glyph unicode="&#x3c;" horiz-adv-x="976" d="M14 514v406h82v102h82v102h78v103h82v102h80v103h82v102h364v-35l33 -160v-378h-82v-103h-86v-102h-82v-103h-84v-47h51v-35l15 -67h67v-35l15 -68h73v-34l13 -68h67v-35l33 -160v-383h-354l-21 103h-59l-23 104l-59 4l-19 93h-63l-23 108l-55 4l-18 92h-64l-20 103h-60 l-36 182h-9zM111 610h79v-102h82v-98l78 -7v-100h82v-98l82 -6v-97h80v-102h176v205h-80v102h-88v103h-82v102h-82v98l-80 4v215h80v103h82v102h82v103h86v102h82v201h-176v-103h-80v-102h-82v-102h-82v-103h-78v-102h-82v-103h-79v-215z" />
<glyph unicode="=" horiz-adv-x="1097" d="M113 213v389h10l-4 19h-6v401h931v-33l33 -162v-389h-6l6 -30v-379h-919l-39 184h-6zM209 307h741v201h-741v-201zM209 715h741v213h-741v-213z" />
<glyph unicode="&#x3e;" horiz-adv-x="974" d="M111 -94v389h79v102h78v103h82v102h84v47h-41l-20 103h-60l-24 108l-53 4l-21 92h-61l-39 185h-4v393h354v-35l14 -67h68v-35l14 -72l68 -2v-33l10 -59h78v-37l14 -74l66 -2v-33l12 -59h70v-35l12 -67h70v-33l30 -162v-393h-80v-103h-82v-102h-79v-102h-88v-103h-82v-102 h-82v-103h-344l-39 185h-4zM205 0h166v102h82v103h82v102h88v103h79v102h82v102h80v215h-80v103h-82v98l-79 6v101h-88v98l-82 6v96h-82v103h-166v-205h82v-98l78 -7v-100h79v-102h84v-99l86 -6v-213h-86v-102h-84v-102h-79v-103h-78v-102h-82v-201z" />
<glyph unicode="?" horiz-adv-x="1089" d="M37 840v483l80 4v105h78v102h694v-35l12 -67h66v-35l14 -72l68 -2v-33l32 -162v-469l-82 -6v-102h-79v-113h-78v-102h-92v-307h-5v-308h-337l-39 185h-4v739l-285 12l-37 183h-6zM131 932l164 -6v211h78v96h336v-96h79v-107h-79v-96h-93v-109h-77v-112h-80v-406h164v307 h92v101h78v114h79v97l82 6v303l-82 6v96h-79v103h-504v-103h-76v-96l-82 -6v-303zM459 0h159v201h-159v-201z" />
<glyph unicode="@" horiz-adv-x="1316" d="M109 115v1116h79v201h78v102h774v-35l13 -67h67v-35l33 -166h51v-35l33 -160v-803h-84v-102h-82v-410h-680l-20 103h-138l-20 104l-61 4l-39 181zM203 205l82 -6v-97h157v-102h502v205h-493v98h-84v823h82v113h415v-102h-334v-107h-88v-620h88v-103h414v103h82v102h84 v625h-84v200h-82v103h-582v-103h-77v-200h-82v-932zM612 512v416h88v-416h-88zM864 512v621h80v-621h-80z" />
<glyph unicode="A" horiz-adv-x="1112" d="M53 -94v485l82 4v310h78v317h84v307h84v205h350v-35l33 -170h49v-35l31 -159v-113h53v-33l33 -162v-122h45v-35l33 -160v-117l49 -2v-33l33 -161v-476h-345l-36 185h-7v117h-264v-302h-342l-35 185h-8zM147 0h166v301h484v-301h166v303l-82 6v301h-78v318h-86v307h-80 v205h-162v-205h-84v-307h-84v-318h-78v-301l-82 -6v-303zM391 512v98h84v318h162v-318h80v-98h-326z" />
<glyph unicode="B" horiz-adv-x="1206" d="M113 -94v1628h759v-35l15 -67h69v-35l13 -68h69v-35l31 -159v-430h59v-35l33 -160v-584h-92v-102h-80v-103h-831l-39 185h-6zM209 0h653v102h80v103h92v405h-92v103h-80v116h80v406h-80v102h-84v103h-569v-1440zM373 205v405h405v-102h84v-201h-84v-102h-405zM373 829 v406h323v-102h82v-201h-82v-103h-323z" />
<glyph unicode="C" d="M82 324v800h82v199l78 4v105h80v102h606v-35l12 -67h74v-35l12 -72l70 -2v-33l32 -162v-372h-354l-20 102h-56l-18 96h-51v-96h-78v-102h-82v-252h49v-35l14 -72h64v-32l12 -64h47v96h76v107h365v-35l32 -160v-377l-84 -6v-102h-83v-103h-596l-21 103h-57l-23 104l-57 4 l-39 181l-4 2v20l-39 4l-37 183zM176 410l82 -11v-194l80 -6v-97h78v-102h418v102h84v97l83 6v205h-176v-107h-75v-96h-248v96h-78v107h-82v624h82v103h78v96h248v-96h75v-103h176v201l-83 6v96h-84v103h-418v-103h-78v-96l-80 -6v-205h-82v-620z" />
<glyph unicode="D" horiz-adv-x="1210" d="M113 -94v1628h759v-35l15 -67h78v-35l12 -68h67v-35l33 -170h51v-32l33 -162v-799h-84v-205h-82v-102h-90v-103h-747l-39 185h-6zM209 0h569v102h90v103h82v205h84v620h-84v205h-82v102h-90v103h-569v-1440zM373 205v1030h323v-102h82v-103h90v-620h-90v-103h-82v-102 h-323z" />
<glyph unicode="E" horiz-adv-x="1210" d="M113 -94v1628h1013v-35l33 -160v-378h-663v-41h469v-33l30 -162v-389h-499v-41h630v-33l33 -162v-379h-1001l-39 185h-6zM209 0h823v201h-663v413h499v211h-499v414h663v201h-823v-1440z" />
<glyph unicode="F" horiz-adv-x="1136" d="M113 -94v1628h1013v-35l33 -160v-378h-663v-41h469v-33l30 -162v-389h-499v-615h-338l-39 185h-6zM209 0h160v614h499v211h-499v414h663v201h-823v-1440z" />
<glyph unicode="G" horiz-adv-x="1208" d="M82 319v805h82v205h78v103h80v102h692v-35l12 -67h70v-35l32 -160v-379h-26l26 -133v-1004h-763l-21 103h-57l-23 104l-57 4l-39 181l-4 2v18l-39 4l-37 180zM176 410l82 -7v-198l80 -6v-97h78v-102h585v825h-407v-211h246v-409h-338v98h-78v103l-82 6v622h82v103h78v102 h338v-102h161v200h-83v103h-502v-103h-78v-102h-80v-205h-82v-620z" />
<glyph unicode="H" horiz-adv-x="1241" d="M113 -94v1628h352v-35l31 -160v-419h280v614h350v-35l33 -160v-1618h-340l-37 185h-6v430h-280v-615h-338l-39 185h-6zM209 0h160v614h501v-614h162v1440h-162v-615h-501v615h-160v-1440z" />
<glyph unicode="I" horiz-adv-x="890" d="M100 -94v389h172v666h-129l-37 182h-6v391h686v-35l31 -160v-378h-162v-666h131v-33l31 -162v-379h-674l-37 185h-6zM195 0h495v201h-162v1038h162v201h-495v-201h172v-1038h-172v-201z" />
<glyph unicode="J" horiz-adv-x="1128" d="M10 115v487h363v-35l33 -166h45v-34l14 -68h125v113l78 -6v1128h354v-35l33 -160v-1316h-82v-199h-78v-103h-676l-20 103h-64l-22 104l-60 4l-37 181zM104 205l82 -6v-97h84v-102h498v102h78v199h82v1139h-164v-1137l-78 6v-104h-330v102h-77v201h-175v-303z" />
<glyph unicode="K" horiz-adv-x="1241" d="M113 -94v1628h360v-35l33 -160v-211h22v103h82v102h80v99h84v102h354v-35l33 -160v-374l-82 -4v-107h-78v-102h-81v-103h-82v-43h51v-35l12 -67h68v-37l14 -72l64 -4v-33l12 -59h69v-35l33 -160v-383h-346l-20 103h-60l-20 104l-62 4l-18 93h-64l-22 108l-43 2v-414h-348 l-39 185h-6zM209 0h170v610h86v-102h80v-98l78 -7v-100h82v-98l81 -6v-97h80v-102h168v205h-82v98l-78 6v101h-81v102h-80v98l-82 4v211h80v103h82v102h81v103h78v100l82 6v201h-166v-103h-82v-98h-81v-102h-82v-103h-78v-102h-80v-103h-86v611h-170v-1440z" />
<glyph unicode="L" horiz-adv-x="1122" d="M113 -94v1628h352v-35l31 -160v-1044h620v-33l33 -162v-379h-991l-39 185h-6zM209 0h813v201h-653v1239h-160v-1440z" />
<glyph unicode="M" horiz-adv-x="1241" d="M113 -94v1628h352v-35l12 -67h74v-35l33 -170h98v205h86v102h358v-35l33 -160v-1618h-346l-39 185h-6v327h-272v-512h-338l-39 185h-6zM209 0h160v928h80v-213h81v-203h170v203h82v213h82v-928h168v1440h-168v-103h-88v-204h-82v-199h-155v199h-82v204h-88v103h-160 v-1440z" />
<glyph unicode="N" horiz-adv-x="1243" d="M113 -94v1628h352v-35l12 -67h74v-35l33 -170h49v-35l12 -72l70 -2v-33l33 -170h20v619h360v-35l33 -160v-1618h-348l-22 103h-66l-37 184h-6v21h-39l-20 104l-60 4l-39 180l-6 2v19h-22v-617h-338l-39 185h-6zM209 0h160v1030h82v-201l81 -6v-209l82 -6v-198l80 -7v-96 h82v-205h88v-102h170v1440h-170v-1030h-80v200l-82 4v211l-81 6v199l-82 6v97h-82v204h-88v103h-160v-1440z" />
<glyph unicode="O" horiz-adv-x="1171" d="M80 313v811h82v205h80v103h84v102h514v-35l12 -67h68v-35l14 -68h78v-35l30 -170h50v-32l32 -162v-799h-82v-205h-90v-102h-82v-103h-501l-21 103h-61l-23 102h-59l-39 185h-4v20h-39l-35 182h-8zM174 410h82v-205h82v-103h82v-102h323v102h82v103h90v205h82v620h-82v205 h-90v102h-82v103h-323v-103h-82v-102h-82v-205h-82v-620zM338 410v620h82v103h82v102h162v-102h79v-103h82v-620h-82v-103h-79v-102h-162v102h-82v103h-82z" />
<glyph unicode="P" horiz-adv-x="1157" d="M113 -94v1628h852v-35l12 -67h70v-35l14 -68h67v-35l33 -159v-697h-82v-102h-84v-103h-499v-512h-338l-39 185h-6zM209 0h160v512h499v102h84v101h82v520h-82v102h-84v103h-659v-1440zM373 715v520h405v-102h90v-304h-90v-114h-405z" />
<glyph unicode="Q" horiz-adv-x="1189" d="M80 313v811h82v205h82v103h82v102h522v-35l14 -67h74v-35l12 -68h64v-35l30 -159v-11h52v-32l32 -162v-799h-8l8 -37v-373h-757l-21 103h-59l-23 104l-61 4l-39 183h-4v16h-39l-35 182h-8zM174 410h82v-205l82 -6v-97h82v-102h334v102h80v-102h165v201l-84 6v203h84v620 h-84v205h-75v102h-86v103h-334v-103h-82v-102h-82v-205h-82v-620zM338 410v620h82v103h82v102h162v-102h94v-103h78v-620h-84v102h-170v-203l82 -6v-98h-162v96l-82 6v103h-82z" />
<glyph unicode="R" horiz-adv-x="1230" d="M113 -94v1628h852v-35l14 -67h65v-35l15 -68h69v-35l33 -159v-697h-84v-102h-26l8 -37h69v-35l33 -160v-383h-346l-22 103h-58l-20 104l-58 4l-18 93h-74l-20 102h-49v-406h-338l-39 185h-6zM209 0h160v512h168v-106h79v-103h93v-98l77 -6v-97h78v-102h170v205h-82v98 l-80 6v97l-81 6v100h79v102h80v101h84v520h-84v102h-80v103h-661v-1440zM373 715v520h415v-102h80v-304h-80v-114h-415z" />
<glyph unicode="S" horiz-adv-x="1191" d="M88 739v584l84 4v105h78v102h692v-35l14 -67h66v-35l14 -72l68 -2v-33l33 -162v-372h-113l10 -47h70v-35l33 -160v-592h-82v-98h-80v-103h-682l-21 103h-57l-20 98h-60l-39 184h-6v394h113l-10 53l-60 4l-39 182h-6zM184 829l82 -6v-108l76 -4v-101h424v-98h76v-209h-76 v-102l-338 10v92h-78v103h-164v-205h80v-99h78v-102h504v102h80v99h82v413h-82v99l-80 4v112h-420v99h-78v209h78v96h338v-96h76v-103h168v201l-82 6v96h-80v103h-504v-103h-78v-96l-82 -6v-406z" />
<glyph unicode="T" horiz-adv-x="940" d="M43 1143v391h850v-35l33 -160v-378h-244v-1240h-340l-37 185h-6v1055h-211l-37 182h-8zM137 1239h256v-1239h162v1239h244v201h-662v-201z" />
<glyph unicode="U" horiz-adv-x="1222" d="M104 221v1313h355v-35l30 -160v-938h56v-34l14 -72h127v106h78v1133h352v-35l33 -160v-1302l-82 -8v-205h-76v-103h-684l-20 103h-58l-39 184h-4v25l-39 4l-36 182zM199 307l82 -10v-195h77v-102h506v102h76v195l82 10v1133h-164v-1133h-78v-106h-329v106h-86v1133h-166 v-1133z" />
<glyph unicode="V" horiz-adv-x="1122" d="M53 1051v483h363v-35l33 -160v-108h51v-35l32 -160v-112h99v307h82v303h354v-35l33 -160v-473l-84 -8v-297l-76 -10v-313l-82 -5v-307h-82v-205h-348l-39 185h-4v20h-39l-37 185h-6v125l-39 2l-37 182l-6 2v133l-43 6l-39 180l-4 2v119l-39 4l-35 183zM147 1137l82 -11 v-297l86 -10v-307l82 -6v-301h82v-205h170v205h82v301l84 6v307l76 10v297l82 11v303h-166v-303h-82v-308h-82v-315h-156v315h-81v308h-84v303h-175v-303z" />
<glyph unicode="W" horiz-adv-x="1241" d="M113 -94v1628h360v-35l33 -160v-532h270v727h350v-35l33 -160v-1618h-340l-20 103h-64l-39 184h-6v21h-100v-205h-84v-103h-348l-39 185h-6zM209 0h170v102h86v205h80v96h157v-96h84v-205h84v-102h162v1440h-162v-1030h-79v98h-80v205h-172v-205h-80v-98h-80v1030h-170 v-1440z" />
<glyph unicode="X" horiz-adv-x="1230" d="M113 -94v383l80 6v197l77 8v106h82v49l-39 4l-20 99l-55 6l-39 180l-6 2v19l-37 4l-39 182l-4 2v381h354v-35l33 -166h49v-35l33 -170h98v205h82v201h354v-35l33 -160v-370l-82 -8v-197l-76 -8v-107h-82v-51l49 -2v-35l11 -63l67 -6v-33l31 -168l49 -2v-35l33 -162v-371 h-344l-39 185h-4v16h-39l-37 184h-6v21h-98v-205h-82v-201h-344l-39 185h-4zM207 0h166v201h82v205h80v100h159v-100h80v-205h82v-201h166v201l-82 8v197l-76 8v94l-82 6v96h-82v219h82v99h82v96l76 10v195l82 10v201h-166v-201h-82v-205h-80v-100h-159v100h-80v205h-82v201 h-166v-201l82 -10v-195l76 -8v-94l81 -6v-97h80v-219h-80v-98h-81v-98l-76 -8v-197l-82 -8v-201z" />
<glyph unicode="Y" horiz-adv-x="1107" d="M47 1153v381h354v-35l33 -166h49v-35l31 -170h100v205h82v201h365v-35l31 -160v-372l-91 -9v-194l-77 -8v-199l-82 -6v-215h-80v-615h-348l-39 185h-6v430h-37l-39 182h-4v35l-39 4l-37 182h-6v21l-35 4l-37 182l-6 2v17l-39 4l-35 182zM141 1239l82 -10v-195l78 -10 v-195l82 -6v-209h82v-614h170v614h80v209l82 6v195l77 10v195l91 10v201h-174v-201h-80v-205h-82v-203h-158v203h-82v205h-82v201h-166v-201z" />
<glyph unicode="Z" horiz-adv-x="1212" d="M98 -94v389h82v205h82v102h76v103h82v215h84v41h-363l-37 182h-6v391h1014v-35l31 -160v-378h-80v-205h-92v-103h-78v-102h-80v-215h-82v-41h381v-33l31 -162v-379h-1002l-37 185h-6zM193 0h823v201h-576v209h82v102h82v102h82v215h80v103h78v102h92v205h80v201h-823 v-201h569v-209h-82v-102h-82v-103h-84v-215h-80v-102h-78v-102h-82v-205h-81v-201z" />
<glyph unicode="[" horiz-adv-x="890" d="M113 -94v1628h688v-35l33 -160v-378h-328v-666h295v-33l33 -162v-379h-676l-39 185h-6zM209 0h498v201h-328v1038h328v201h-498v-1440z" />
<glyph unicode="\" horiz-adv-x="1122" d="M18 936v496h273v-35l14 -68h68v-35l14 -67h78v-35l12 -72l70 -2v-33l12 -59h70v-35l12 -67h70v-35l14 -86l66 -2v-35l12 -57h69v-35l15 -68h69v-37l13 -71l63 -4v-33l10 -60h72v-34l31 -160v-383h-342l-21 102h-61l-21 105l-61 4l-18 92h-64l-20 102h-62l-20 103h-62 l-20 102h-60l-24 113h-68l-20 102h-62l-20 103h-56l-36 184h-9zM113 1030h77v-102h82v-103h93v-112h79v-103h82v-102h82v-102h82v-99l82 -6v-96h82v-103h164v205h-80v99l-76 6v100h-84v102h-82v99l-82 4v112h-79v103h-82v98l-84 6v97h-90v102h-82v102h-84v-307z" />
<glyph unicode="]" horiz-adv-x="882" d="M88 -94v389h326v666h-283l-37 182h-6v391h676v-35l33 -160v-1618h-666l-37 185h-6zM182 0h488v1440h-488v-201h328v-1038h-328v-201z" />
<glyph unicode="^" horiz-adv-x="1200" d="M51 621v395l82 6v94l84 8v107h84v98h82v103h82v102h276v-35l15 -67h67v-35l15 -68h67v-35l13 -71l69 -2v-35l10 -64l68 -6v-33l10 -63l70 -4v-35l33 -162v-381h-342l-23 113h-59l-21 98h-63l-21 103h-39v-103h-82v-98h-82v-113h-352l-35 183h-8zM145 715h174v114h82v99 h82v102h80v100h76v-100h82v-102h84v-99h82v-114h164v213l-82 8v94l-78 8v95l-80 6v96h-82v102h-82v103h-88v-103h-82v-102h-82v-98h-82v-99l-86 -8v-94l-82 -8v-213z" />
<glyph unicode="_" horiz-adv-x="1323" d="M113 90h1095v-33l33 -161v-379h-1083l-39 184h-6v389zM209 -4v-201h905v201h-905z" />
<glyph unicode="`" horiz-adv-x="649" d="M106 1073v293h351v-37l10 -63h72v-33l30 -162v-291h-338l-22 111h-59l-37 182h-7zM201 1167h82v-108h159v112h-80v99h-161v-103z" />
<glyph unicode="a" horiz-adv-x="1212" d="M86 8v492h80v102h10l-4 19h-6v299h82v102h768v-33l14 -69h68v-33l32 -162v-1004h-919l-23 103h-59l-37 184h-6zM180 102h82v-102h742v825h-82v103h-580v-103h-80v-110h580v-105h-500v-102h-80v-102h-82v-304zM342 205v201h498v-201h-498z" />
<glyph unicode="b" horiz-adv-x="1155" d="M113 -94v1628h352v-35l31 -160v-317h469v-33l12 -69h67v-33l17 -80h65v-35l33 -160v-686h-82v-102h-82v-103h-837l-39 185h-6zM209 0h659v102h82v103h82v508h-82v112h-82v103h-413v-103h-86v615h-160v-1440zM371 205v405h84v103h333v-103h80v-303h-80v-102h-417z" />
<glyph unicode="c" d="M90 115v686l84 4v115h78v102h694v-33l15 -69h63v-35l16 -82l66 -2v-35l33 -160v-270h-27l27 -133v-281h-82v-98h-78v-103h-684l-21 103h-57l-20 104l-62 4l-39 183h-6zM186 205l82 -6v-97h78v-102h506v102h78v99h82v102h-166v-96h-416v96h-76v311h76v97h414v-97h168v99 l-82 4v108h-78v103h-506v-103h-78v-108l-82 -4v-508z" />
<glyph unicode="d" horiz-adv-x="1157" d="M29 111v696h82v113h82v102h497v512h350v-35l33 -160v-1618h-837l-23 103h-59l-21 102h-61l-35 185h-8zM123 205h82v-103h82v-102h659v1440h-160v-615h-84v103h-413v-103h-84v-112h-82v-508zM287 307v303h82v103h252v-103h165v-405h-417v102h-82z" />
<glyph unicode="e" d="M90 115v692h82v113h78v102h690v-33l14 -69h68v-33l16 -80h66v-35l33 -160v-379h-82v-102h-6l6 -27v-280h-82v-103h-680l-21 103h-57l-20 104l-60 4l-39 181zM186 205l80 -6v-97h78v-102h502v102h82v103h-500v98h-76v107h576v102h82v201h-82v112h-82v103h-502v-103h-78 v-112h-80v-508zM430 614v99h416v-99h-416z" />
<glyph unicode="f" horiz-adv-x="925" d="M37 518v402h164v409h84v103h82v102h522v-35l31 -160v-378h-246v-41h133v-33l33 -162v-389h-246v-615h-350l-37 185h-6v430h-119l-37 182h-8zM133 614h162v-614h172v614h246v211h-246v312h80v102h246v201h-330v-103h-84v-102h-84v-410h-162v-211z" />
<glyph unicode="g" horiz-adv-x="1200" d="M82 313v494h82v113h80v102h850v-33l32 -162v-1106h-82v-102h-77v-102h-760l-39 184h-4v389h29l-7 41h-61l-37 182h-6zM176 410h82v-103h80v-102h422v102h76v-209h-84v-102h-494v-201h582v103h78v102h81v928h-661v-103h-80v-112h-82v-303zM338 512v98h92v103h408v-201h-84 v-102h-324v102h-92z" />
<glyph unicode="h" horiz-adv-x="1083" d="M113 -94v1628h360v-35l33 -160v-317h383v-33l12 -69h64v-35l14 -82l68 -2v-35l32 -160v-885h-344l-39 185h-6v430h-33l-20 98h-45v-98h-86v-615h-348l-39 185h-6zM209 0h170v614h86v99h244v-99h77v-614h166v713l-84 4v108h-75v103h-334v-103h-80v615h-170v-1440z" />
<glyph unicode="i" horiz-adv-x="796" d="M59 -94v389h164v143h-37l-39 183h-6v401h82v307h350v-35l33 -159v-840h131v-33l31 -162v-379h-666l-36 185h-7zM154 0h487v201h-162v727h-241v-213h79v-514h-163v-201zM317 1034h162v201h-162v-201z" />
<glyph unicode="j" horiz-adv-x="802" d="M12 193h328v245h-39l-37 183h-6v401h82v307h350v-35l33 -159v-1516h-84v-102h-502l-20 102h-60l-37 184h-8v390zM109 98v-200h79v-103h326v103h82v1030h-244v-213h84v-719h-168v102h-159zM436 1034h160v201h-160v-201z" />
<glyph unicode="k" horiz-adv-x="976" d="M113 -94v1628h352v-35l31 -160v-419h22v102h354v-33l33 -162v-385l-80 -4v-43l47 -4v-33l13 -59h69v-35l33 -160v-383h-346l-20 103h-58l-22 104l-45 4v-211h-338l-39 185h-6zM209 0h160v406h86v-103h82v-98l77 -6v-97h78v-102h168v205h-82v98l-80 6v97l-77 6v198h77v101 l80 4v213h-164v-103h-77v-110h-82v-101h-86v826h-160v-1440z" />
<glyph unicode="l" horiz-adv-x="804" d="M74 -94v389h164v666h-39l-37 182h-6v391h432v-35l30 -160v-1044h134v-33l32 -162v-379h-667l-35 185h-8zM168 0h489v201h-165v1239h-242v-201h82v-1038h-164v-201z" />
<glyph unicode="m" horiz-adv-x="1232" d="M113 -94v1116h856v-33l14 -69h64v-33l16 -80h65v-35l33 -160v-891h-1003l-39 185h-6zM209 0h166v614h157v-614h170v614h164v-614h168v713h-82v112h-78v103h-180v-103h-155v103h-172v-103h-78v103h-80v-928z" />
<glyph unicode="n" horiz-adv-x="1148" d="M113 -94v1116h774v-33l12 -69h66v-35l14 -82l65 -2v-35l33 -160v-885h-342l-39 185h-6v430h-33l-20 98h-141v-713h-338l-39 185h-6zM209 0h160v713h340v-99h77v-614h164v713l-82 4v108h-77v103h-582v-928z" />
<glyph unicode="o" horiz-adv-x="1198" d="M90 111v696h82v113h84v102h684v-33l14 -69h68v-33l16 -80h68v-35l33 -160v-686h-84v-102h-82v-103h-674l-20 103h-64l-20 102h-60l-39 185h-6zM186 205h80v-103h84v-102h496v102h82v103h84v508h-84v112h-82v103h-496v-103h-84v-112h-80v-508zM350 307v303h82v103h332 v-103h82v-303h-82v-102h-332v102h-82z" />
<glyph unicode="p" horiz-adv-x="1165" d="M113 -299v1321h852v-33l12 -69h67v-33l17 -80h67v-35l33 -160v-583h-84v-103h-82v-102h-499v-307h-338l-39 184h-6zM209 -205h160v410h86v-103h413v103h82v102h84v406h-84v112h-82v103h-659v-1133zM373 410v303h415v-103h80v-200h-80v-103h-333v103h-82z" />
<glyph unicode="q" horiz-adv-x="1165" d="M35 213v594h80v113h84v102h850v-33l32 -162v-1310h-340l-36 184h-7v123h-456l-21 102h-61l-23 103h-59l-37 184h-6zM129 307h82v-102h82v-103h416v103h84v-410h161v1133h-661v-103h-82v-112h-82v-406zM293 410v200h82v103h416v-303h-82v-103h-334v103h-82z" />
<glyph unicode="r" horiz-adv-x="1058" d="M113 -94v1116h852v-33l12 -69h67v-33l33 -162v-389h-338l-22 102h-127v-102h-86v-615h-346l-39 185h-6zM209 0h168v614h88v101h326v-101h159v211h-82v103h-409v-103h-80v103h-170v-928z" />
<glyph unicode="s" horiz-adv-x="1048" d="M96 8v287h31l-25 125l-6 2v498h82v102h686v-33l13 -69h69v-33l33 -162v-287h-8l8 -37v-577h-84v-103h-674l-20 103h-62l-37 184h-6zM190 102h82v-102h496v102h84v406l-84 6v96h-416v105h500v110h-84v103h-496v-103h-82v-313l82 -6v-96h418v-209h-500v-99z" />
<glyph unicode="t" horiz-adv-x="931" d="M39 621v401h174v410h350v-35l31 -160v-215h215v-33l31 -162v-389h-246v-143h297v-33l31 -162v-379h-584l-23 103h-59l-39 184h-4v430h-129l-37 183h-8zM135 715h172v-613h82v-102h406v201h-328v514h248v213h-248v409h-160v-409h-172v-213z" />
<glyph unicode="u" horiz-adv-x="1232" d="M102 106v916h363v-33l33 -162v-430h45v-35l12 -63h125v98h86v625h350v-33l33 -162v-1106h-836l-20 103h-55l-23 98h-70l-36 184h-7zM197 201h92v-99h76v-102h415v102h82v-102h160v928h-160v-625h-88v-98h-325v98h-78v625h-174v-727z" />
<glyph unicode="v" horiz-adv-x="1118" d="M57 631v391h355v-33l30 -178h52v-35l32 -170h99v205h82v211h356v-33l31 -162v-381l-82 -8v-196l-76 -9v-198l-84 -6v-205h-82v-103h-348l-21 103h-61l-37 184h-6v23l-37 4l-39 180l-6 2v21l-33 4l-39 182l-6 2v14l-37 6l-37 183zM152 715l81 -8v-195l78 -10v-195l80 -6 v-199h82v-102h170v102h82v199l84 6v195l76 10v195l82 8v213h-166v-213h-82v-203h-80v-203h-158v203h-82v203h-84v213h-163v-213z" />
<glyph unicode="w" horiz-adv-x="1212" d="M98 221v801h1016v-33l31 -162v-790l-90 -10v-203h-78v-103h-266l-21 103h-123v-103h-266l-20 103h-56l-37 184h-6v25l-41 4l-37 182zM193 307l83 -10v-195h76v-102h88v102h82v103h158v-103h82v-102h88v102h78v195l90 10v621h-174v-621h-76v99h-80v522h-172v-522h-80v-99 h-76v621h-167v-621z" />
<glyph unicode="x" horiz-adv-x="1138" d="M113 -94v383l82 6v106h30l-8 37l-59 6l-39 183l-6 2v393h356v-33l14 -69h66v-35l14 -74h39v109h80v102h362v-33l33 -162v-383l-90 -8v-104h-26l4 -39l79 -4v-35l33 -162v-371h-352l-20 103h-62l-20 98h-43v-98h-80v-103h-342l-39 185h-6zM209 0h164v102h80v99h79v100h84 v-100h78v-99h82v-102h174v201l-90 8v94l-76 6v97h-82v106h80v98h78v97l90 8v213h-174v-103h-80v-110h-80v-101h-81v101h-80v110h-80v103h-166v-213l80 -6v-95l78 -6v-96h79v-106h-79v-99h-78v-98l-80 -8v-201z" />
<glyph unicode="y" horiz-adv-x="964" d="M84 631v391h354v-33l33 -162v-16h96v211h367v-33l31 -162v-381l-82 -8v-200l-86 -5v-204h-82v-205h-86v-205h-80v-102h-340l-39 184h-6v287h78v205h10l-4 20h-6v23l-33 2l-39 182l-6 2v18l-37 6l-37 183zM178 715l82 -8v-195l78 -6v-199h78v-209h-78v-204h-78v-99h162 v103h80v204h88v205h80v199l86 6v195l84 8v213h-176v-213h-82v-201h-160v201h-78v213h-166v-213z" />
<glyph unicode="z" horiz-adv-x="1157" d="M113 -94v389h82v102h81v41h-118l-39 183h-6v401h931v-33l33 -162v-276h-82v-113h-80v-102h-92v-41h221v-33l33 -162v-379h-919l-39 185h-6zM209 0h741v201h-493v106h82v103h79v102h78v102h92v101h80v114h82v99h-741v-213h405v-105h-84v-102h-81v-102h-78v-103h-82v-102 h-80v-201z" />
<glyph unicode="{" horiz-adv-x="980" d="M35 524v283h80v113h82v409h77v103h91v102h520v-35l30 -160v-378h-245v-103h-78v-563h47v-35l10 -63h236v-33l30 -162v-383h-505l-21 102h-72l-20 105l-57 4l-37 182h-6v221h-37l-23 105l-59 2l-37 182zM129 614l82 -6v-96h80v-410l78 -6v-96h92v-102h330v204h-248v99h-78 v413h-88v101h88v422h78v102h248v201h-330v-103h-92v-102h-78v-410h-80v-112h-82v-99z" />
<glyph unicode="|" horiz-adv-x="587" d="M113 -94v1628h352v-35l31 -160v-1618h-338l-39 185h-6zM209 0h160v1440h-160v-1440z" />
<glyph unicode="}" horiz-adv-x="978" d="M92 193h256v102h78v563h-35l-20 98h-234l-39 185h-6v393h529v-35l14 -67h65v-35l15 -72l65 -2v-33l33 -162v-208h49v-35l15 -82l65 -2v-35l33 -160v-270h-82v-103h-80v-409h-80v-103h-80v-102h-516l-39 184h-6v390zM188 98v-200h338v102h80v102h80v410h80v102h82v99 l-82 4v108h-80v410l-80 6v96h-80v103h-338v-205h254v-98h78v-422l80 -4v-101h-80v-409h-78v-103h-254z" />
<glyph unicode="~" horiz-adv-x="1181" d="M84 838v278l90 8v105h78v100h440v-37l13 -61h36v98h357v-35l32 -159v-271l-81 -6v-104h-78v-101h-430l-21 99h-39v-99h-354l-37 185h-6zM178 932h176v98h76v98h84v-98h78v-98h252v100h78v96l82 9v98h-166v-98h-76v-99h-86v99h-78v98h-252v-100h-78v-97l-90 -8v-98z" />
<glyph unicode="&#xa1;" horiz-adv-x="628" d="M55 111v706h82v307h8l-4 19h-4v391h350v-35l31 -160v-378h-4l4 -31v-113h49v-33l33 -161v-697h-82v-205h-338l-39 185h-4v20h-39l-35 185h-8zM150 205h81v-205h160v205h82v518h-82v307h-160v-307h-81v-518zM231 1239h160v201h-160v-201z" />
<glyph unicode="&#xa2;" d="M90 313v684l84 4v115h78v103h180v315h350v-35l33 -160v-120h131v-33l15 -70h63v-35l16 -82l66 -2v-32l33 -162v-271h-27l27 -133v-280h-82v-99h-78v-102h-164v-197h-340l-37 185h-6v12h-137l-21 102h-57l-20 103l-62 6l-39 184h-6zM186 401l82 -6v-96h78v-102h180v-197 h162v197h164v102h78v98h82v103h-166v-97h-158v504h156v-96h168v98l-82 6v107h-78v102h-164v316h-162v-316h-180v-102h-78v-107l-82 -6v-508zM354 500v311h76v96h96v-504h-96v97h-76z" />
<glyph unicode="&#xa5;" horiz-adv-x="1107" d="M47 1153v381h354v-35l33 -166h49v-35l31 -170h100v205h82v201h365v-35l31 -160v-372l-91 -9v-194l-77 -8v-170h39v-35l30 -162v-541h-231v-127h-348l-27 127h-199l-36 185h-7v553h97l-29 153h-6v21l-35 4l-37 182l-6 2v17l-39 4l-35 182zM141 1239l82 -10v-195l78 -10 v-195l82 -6v-209h82v-125h-225v-124h225v-121h-225v-117h225v-127h170v127h231v117h-231v121h231v124h-231v125h80v209l82 6v195l77 10v195l91 10v201h-174v-201h-80v-205h-82v-203h-158v203h-82v205h-82v201h-166v-201z" />
<glyph unicode="&#xa8;" horiz-adv-x="940" d="M113 965v401h352v-35l8 -47v82h350v-35l33 -162v-389h-340l-20 105v-105h-338l-39 185h-6zM209 1059h160v211h-160v-211zM567 1059h162v211h-162v-211z" />
<glyph unicode="&#xa9;" horiz-adv-x="1417" d="M80 313v811h82v205h80v103h84v102h798v-35l15 -67h67v-35l13 -68h77v-35l33 -170h49v-32l33 -162v-799h-82v-205h-90v-102h-82v-103h-788l-21 103h-61l-23 102h-59l-39 185h-4v20h-39l-35 182h-8zM174 410h82v-205h82v-103h82v-102h610v102h82v103h90v205h82v620h-82v205 h-90v102h-82v103h-610v-103h-82v-102h-82v-205h-82v-620zM338 410v620h82v103h82v102h446v-102h82v-103h82v-620h-82v-103h-82v-102h-446v102h-82v103h-82zM446 535l56 -5v-65h51v-66h332v66h51v65h53v68h-108v-63h-273v63h-49v203h49v63h273v-63h108v63l-53 4v72h-51v68 h-332v-68h-51v-72l-56 -4v-329z" />
<glyph unicode="&#xab;" horiz-adv-x="1232" d="M80 514v406h82v102h80v102h77v103h361v-35l33 -170l2 102h78v103h360v-35l33 -160v-379h-84v-47h51v-35l33 -159v-387h-348l-23 108l-55 4l-21 92h-26v-204h-348l-25 108l-53 4l-21 92h-61l-21 103h-61l-35 182h-8zM174 610h82v-102h82v-98l76 -7v-100h172v209h-82v98 l-82 4v215h80v103h84v201h-172v-103h-76v-102h-82v-103h-82v-215zM647 610h82v-102h82v-98l78 -7v-100h170v209h-82v98l-82 4v215h80v103h84v201h-170v-103h-78v-102h-82v-103h-82v-215z" />
<glyph unicode="&#xad;" horiz-adv-x="1079" d="M113 416v391h852v-35l30 -160v-379h-837l-39 183h-6zM209 512h659v201h-659v-201z" />
<glyph unicode="&#xae;" horiz-adv-x="1470" d="M98 313v811h82v205h82v103h82v102h799v-35l14 -67h68v-35l14 -68h78v-35l31 -170h49v-32l33 -162v-799h-82v-205h-91v-102h-81v-103h-787l-22 103h-62l-20 102h-62l-37 185h-6v20h-39l-37 182h-6zM193 410h81v-205h82v-103h82v-102h611v102h81v103h91v205h82v620h-82v205 h-91v102h-81v103h-611v-103h-82v-102h-82v-205h-81v-620zM356 410v620h82v103h82v102h447v-102h82v-103h81v-620h-81v-103h-82v-102h-447v102h-82v103h-82zM539 365h79v251h84v-53h39v-49h47v-49l39 -2v-49h39v-49h84v100h-41v49l-39 2v47l-41 4v49h39v52h41v51h41v258h-41 v51h-41v51h-329v-714zM621 719v258h206v-51h41v-150h-41v-57h-206z" />
<glyph unicode="&#xb4;" horiz-adv-x="649" d="M106 1073v293h351v-37l10 -63h72v-33l30 -162v-291h-338l-22 111h-59l-37 182h-7zM201 1167h82v-108h159v112h-80v99h-161v-103z" />
<glyph unicode="&#xb8;" horiz-adv-x="495" d="M76 43h55v98h289v-32l33 -162v-281h-50v-108h-284l-35 182h-8v303zM170 -51v-113h106v109h50v102h-101v-98h-55z" />
<glyph unicode="&#xbb;" horiz-adv-x="1232" d="M78 209v397h82v47h-39l-35 185h-8v389h360v-35l13 -68h63v-32l14 -70h23v205h360v-35l13 -68h65v-32l12 -70h68v-33l14 -69h68v-33l33 -162v-393h-82v-103h-82v-92l-78 -6v-106h-348l-37 184h-6v20h-4v-92l-78 -6v-106h-348l-35 184h-8zM172 303h170v100l78 7v98h82v102 h82v215h-82v103h-82v102h-78v103h-170v-201h84v-103h80v-215l-82 -4v-98h-82v-209zM645 303h170v100l78 7v98h82v102h82v215h-82v103h-82v102h-78v103h-170v-201h84v-103h80v-215l-82 -4v-98h-82v-209z" />
<glyph unicode="&#xbf;" horiz-adv-x="1089" d="M35 115v481l80 4v105h80v112h77v103h93v307h4v307h350v-35l33 -160v-729l295 -12v-35l32 -160v-471l-82 -6v-102h-77v-103h-682l-21 103h-57l-23 104l-59 4l-37 181zM129 205l82 -6v-97h78v-102h504v102h77v97l82 6v303l-164 6v-211h-77v-96h-336v96h-80v107h80v96h90 v108h78v113h82v406h-164v-308h-94v-102h-78v-113h-78v-96l-82 -6v-303zM465 1239h160v201h-160v-201z" />
<glyph unicode="&#xc0;" horiz-adv-x="1112" d="M53 -94v485l82 4v310h78v317h84v307h84v82l-37 174h-6v291h352v-35l10 -63h70v-35l33 -160v-254h10v-35l31 -159v-113h53v-33l33 -162v-122h45v-35l33 -160v-117l49 -2v-33l33 -161v-476h-345l-36 185h-7v117h-264v-302h-342l-35 185h-8zM147 0h166v301h484v-301h166v303 l-82 6v301h-78v318h-86v307h-80v205h-162v-205h-84v-307h-84v-318h-78v-301l-82 -6v-303zM391 512v98h84v318h162v-318h80v-98h-326zM434 1679h80v-110h162v114h-82v99h-160v-103z" />
<glyph unicode="&#xc1;" horiz-adv-x="1112" d="M53 -94v485l82 4v310h78v317h84v307h84v82l-37 174h-6v291h352v-35l10 -63h70v-35l33 -160v-254h10v-35l31 -159v-113h53v-33l33 -162v-122h45v-35l33 -160v-117l49 -2v-33l33 -161v-476h-345l-36 185h-7v117h-264v-302h-342l-35 185h-8zM147 0h166v301h484v-301h166v303 l-82 6v301h-78v318h-86v307h-80v205h-162v-205h-84v-307h-84v-318h-78v-301l-82 -6v-303zM391 512v98h84v318h162v-318h80v-98h-326zM434 1679h80v-110h162v114h-82v99h-160v-103z" />
<glyph unicode="&#xc2;" horiz-adv-x="1112" d="M53 -94v485l82 4v310h78v317h84v307h53l-28 146h-7v303h56v98h366v-35l11 -63h47v-35l32 -160v-291h-14l31 -157v-113h53v-33l33 -162v-122h45v-35l33 -160v-117l49 -2v-33l33 -161v-476h-345l-36 185h-7v117h-264v-302h-342l-35 185h-8zM147 0h166v301h484v-301h166v303 l-82 6v301h-78v318h-86v307h-80v205h-162v-205h-84v-307h-84v-318h-78v-301l-82 -6v-303zM391 512v98h84v318h162v-318h80v-98h-326zM391 1683l21 -114h104v110h84v-110h100v114h-59v99h-176v-99h-74z" />
<glyph unicode="&#xc3;" horiz-adv-x="1112" d="M53 -94v485l82 4v310h78v317h84v278l-35 175h-6v303h53l13 98h532v-33l33 -162v-280h-58v-109h-16l31 -157v-113h53v-33l33 -162v-122h45v-35l33 -160v-117l49 -2v-33l33 -161v-476h-345l-36 185h-7v117h-264v-302h-342l-35 185h-8zM147 0h166v301h484v-301h166v303 l-82 6v301h-78v318h-86v307h-80v205h-162v-205h-84v-307h-84v-318h-78v-301l-82 -6v-303zM350 1569h107v110h82v-110h163v110h58v103h-109v-99h-69v99h-176l-15 -99h-41v-114zM391 512v98h84v318h162v-318h80v-98h-326z" />
<glyph unicode="&#xc4;" horiz-adv-x="1112" d="M53 -94v485l82 4v310h78v317h84v270h-53l-37 183h-6v401h710v-33l31 -162v-389h-129l31 -157v-113h53v-33l33 -162v-122h45v-35l33 -160v-117l49 -2v-33l33 -161v-476h-345l-36 185h-7v117h-264v-302h-342l-35 185h-8zM147 0h166v301h484v-301h166v303l-82 6v301h-78v318 h-86v307h-80v205h-162v-205h-84v-307h-84v-318h-78v-301l-82 -6v-303zM295 1569h162v213h-162v-213zM391 512v98h84v318h162v-318h80v-98h-326zM655 1569h160v213h-160v-213z" />
<glyph unicode="&#xc5;" horiz-adv-x="1112" d="M53 -94v485l82 4v310h78v317h84v307h84v62h-21l-38 182h-7v303h56v98h366v-35l11 -63h47v-33l32 -162v-290h-55v-62h41v-35l31 -159v-113h53v-33l33 -162v-122h45v-35l33 -160v-117l49 -2v-33l33 -161v-476h-345l-36 185h-7v117h-264v-302h-342l-35 185h-8zM147 0h166 v301h484v-301h166v303l-82 6v301h-78v318h-86v307h-80v205h-162v-205h-84v-307h-84v-318h-78v-301l-82 -6v-303zM391 512v98h84v318h162v-318h80v-98h-326zM391 1782l21 -115h57v-98h176v98h55v115h-59v98h-176v-98h-74zM516 1671v107h78v-107h-78z" />
<glyph unicode="&#xc6;" horiz-adv-x="1320" d="M53 -94v485l82 4v310h78v317h84v307h84v205h866v-35l33 -160v-378h-356v-41h161v-33l31 -162v-389h-192v-41h323v-33l33 -162v-379h-694l-39 185h-6v117h-103v-302h-342l-35 185h-8zM147 0h166v301h324v-301h516v201h-356v413h194v211h-194v414h356v201h-678v-205h-84 v-307h-84v-318h-78v-301l-82 -6v-303zM391 512v98h84v318h162v-416h-246z" />
<glyph unicode="&#xc7;" d="M82 324v800h82v199l78 4v105h80v102h606v-35l12 -67h74v-35l12 -72l70 -2v-33l32 -162v-372h-354l-20 102h-56l-18 96h-51v-96h-78v-102h-82v-252h49v-37l14 -70h64v-32l12 -64h47v96h76v107h365v-35l32 -160v-377l-84 -6v-102h-83v-103h-168v-55h-50v-108h-282l-35 163 h-61l-21 103h-57l-23 104l-57 4l-39 181l-4 2v20l-39 4l-37 183zM176 410l82 -11v-194l80 -6v-97h78v-102h149v-51h-53v-113h104v109h50v55h168v102h84v97l83 6v205h-176v-107h-75v-96h-248v96h-78v107h-82v624h82v103h78v96h248v-96h75v-103h176v201l-83 6v96h-84v103h-418 v-103h-78v-96l-80 -6v-205h-82v-620z" />
<glyph unicode="&#xc8;" horiz-adv-x="1210" d="M113 -94v1628h290l-10 51h-4v291h350v-35l11 -63h69v-35l33 -160v-49h274v-35l33 -160v-378h-663v-41h469v-33l30 -162v-389h-499v-41h630v-33l33 -162v-379h-1001l-39 185h-6zM209 0h823v201h-663v413h499v211h-499v414h663v201h-823v-1440zM483 1679h80v-110h162v114 h-82v99h-160v-103z" />
<glyph unicode="&#xc9;" horiz-adv-x="1210" d="M113 -94v1628h290l-10 51h-4v291h350v-35l11 -63h69v-35l33 -160v-49h274v-35l33 -160v-378h-663v-41h469v-33l30 -162v-389h-499v-41h630v-33l33 -162v-379h-1001l-39 185h-6zM209 0h823v201h-663v413h499v211h-499v414h663v201h-823v-1440zM483 1679h80v-110h162v114 h-82v99h-160v-103z" />
<glyph unicode="&#xca;" horiz-adv-x="1210" d="M113 -94v1628h252v244h55v98h366v-35l11 -63h47v-35l33 -160v-49h249v-35l33 -160v-378h-663v-41h469v-33l30 -162v-389h-499v-41h630v-33l33 -162v-379h-1001l-39 185h-6zM209 0h823v201h-663v413h499v211h-499v414h663v201h-823v-1440zM461 1569h104v110h84v-110h101 v114h-60v99h-176v-99h-53v-114z" />
<glyph unicode="&#xcb;" horiz-adv-x="1210" d="M113 -94v1628h137v342h711v-33l30 -162v-147h135v-35l33 -160v-378h-663v-41h469v-33l30 -162v-389h-499v-41h630v-33l33 -162v-379h-1001l-39 185h-6zM209 0h823v201h-663v413h499v211h-499v414h663v201h-823v-1440zM344 1569h162v213h-162v-213zM705 1569h159v213h-159 v-213z" />
<glyph unicode="&#xcc;" horiz-adv-x="890" d="M100 -94v389h172v666h-129l-37 182h-6v391h144l-8 51h-7v291h351v-35l10 -63h72v-35l30 -160v-49h94v-35l31 -160v-378h-162v-666h131v-33l31 -162v-379h-674l-37 185h-6zM195 0h495v201h-162v1038h162v201h-495v-201h172v-1038h-172v-201zM324 1679h82v-110h159v114h-80 v99h-161v-103z" />
<glyph unicode="&#xcd;" horiz-adv-x="890" d="M100 -94v389h172v666h-129l-37 182h-6v391h144l-8 51h-7v291h351v-35l10 -63h72v-35l30 -160v-49h94v-35l31 -160v-378h-162v-666h131v-33l31 -162v-379h-674l-37 185h-6zM195 0h495v201h-162v1038h162v201h-495v-201h172v-1038h-172v-201zM324 1679h82v-110h159v114h-80 v99h-161v-103z" />
<glyph unicode="&#xce;" horiz-adv-x="890" d="M100 -94v389h172v666h-129l-37 182h-6v391h105v244h55v98h365v-35l12 -63h47v-35l31 -160v-49h71v-35l31 -160v-378h-162v-666h131v-33l31 -162v-379h-674l-37 185h-6zM195 0h495v201h-162v1038h162v201h-495v-201h172v-1038h-172v-201zM299 1569h107v110h83v-110h101 v114h-60v99h-176v-99h-55v-114z" />
<glyph unicode="&#xcf;" horiz-adv-x="890" d="M90 1475v401h711v-33l33 -162v-389h-17v-331h-162v-666h131v-33l31 -162v-379h-674l-37 185h-6v389h172v666h-129l-37 182h-6v317l-4 15h-6zM186 1569h160v213h-160v-213zM195 0h495v201h-162v1038h162v201h-495v-201h172v-1038h-172v-201zM545 1569h162v213h-162v-213z " />
<glyph unicode="&#xd0;" horiz-adv-x="1210" d="M43 537v311h70v686h759v-35l15 -67h78v-35l12 -68h67v-35l33 -170h51v-32l33 -162v-799h-84v-205h-82v-102h-90v-103h-747l-39 185h-6v446h-25l-37 185h-8zM137 631h72v-631h569v102h90v103h82v205h84v620h-84v205h-82v102h-90v103h-569v-686h-72v-123zM373 205v426h260 v123h-260v481h323v-102h82v-103h90v-620h-90v-103h-82v-102h-323z" />
<glyph unicode="&#xd1;" horiz-adv-x="1243" d="M113 -94v1628h209v244h55v98h543v-33l32 -162v-147h176v-35l33 -160v-1618h-348l-22 103h-66l-37 184h-6v21h-39l-20 104l-60 4l-39 180l-6 2v19h-22v-617h-338l-39 185h-6zM209 0h160v1030h82v-201l81 -6v-209l82 -6v-198l80 -7v-96h82v-205h88v-102h170v1440h-170 v-1030h-80v200l-82 4v211l-81 6v199l-82 6v97h-82v204h-88v103h-160v-1440zM416 1569h106v110h84v-110h162v110h57v103h-108v-99h-70v99h-176v-99h-55v-114z" />
<glyph unicode="&#xd2;" horiz-adv-x="1171" d="M80 313v811h82v205h80v103h84v102h59l-10 51h-6v291h350v-35l12 -63h70v-35l33 -160v-49h6v-35l12 -67h68v-35l14 -68h78v-35l30 -170h50v-32l32 -162v-799h-82v-205h-90v-102h-82v-103h-501l-21 103h-61l-23 102h-59l-39 185h-4v20h-39l-35 182h-8zM174 410h82v-205h82 v-103h82v-102h323v102h82v103h90v205h82v620h-82v205h-90v102h-82v103h-323v-103h-82v-102h-82v-205h-82v-620zM338 410v620h82v103h82v102h162v-102h79v-103h82v-620h-82v-103h-79v-102h-162v102h-82v103h-82zM465 1679h80v-110h162v114h-82v99h-160v-103z" />
<glyph unicode="&#xd3;" horiz-adv-x="1171" d="M80 313v811h82v205h80v103h84v102h59l-10 51h-6v291h350v-35l12 -63h70v-35l33 -160v-49h6v-35l12 -67h68v-35l14 -68h78v-35l30 -170h50v-32l32 -162v-799h-82v-205h-90v-102h-82v-103h-501l-21 103h-61l-23 102h-59l-39 185h-4v20h-39l-35 182h-8zM174 410h82v-205h82 v-103h82v-102h323v102h82v103h90v205h82v620h-82v205h-90v102h-82v103h-323v-103h-82v-102h-82v-205h-82v-620zM338 410v620h82v103h82v102h162v-102h79v-103h82v-620h-82v-103h-79v-102h-162v102h-82v103h-82zM465 1679h80v-110h162v114h-82v99h-160v-103z" />
<glyph unicode="&#xd4;" horiz-adv-x="1171" d="M80 313v811h82v205h80v103h84v102h20v244h55v98h365v-35l12 -63h47v-35l33 -160v-151h62v-35l14 -68h78v-35l30 -170h50v-32l32 -162v-799h-82v-205h-90v-102h-82v-103h-501l-21 103h-61l-23 102h-59l-39 185h-4v20h-39l-35 182h-8zM174 410h82v-205h82v-103h82v-102h323 v102h82v103h90v205h82v620h-82v205h-90v102h-82v103h-323v-103h-82v-102h-82v-205h-82v-620zM338 410v620h82v103h82v102h162v-102h79v-103h82v-620h-82v-103h-79v-102h-162v102h-82v103h-82zM440 1569h107v110h84v-110h100v114h-59v99h-176v-99h-56v-114z" />
<glyph unicode="&#xd5;" horiz-adv-x="1171" d="M80 313v811h82v205h80v103h59l-10 43h-4v303h53v98h545v-33l30 -162v-249h5v-35l14 -68h78v-35l30 -170h50v-32l32 -162v-799h-82v-205h-90v-102h-82v-103h-501l-21 103h-61l-23 102h-59l-39 185h-4v20h-39l-35 182h-8zM174 410h82v-205h82v-103h82v-102h323v102h82v103 h90v205h82v620h-82v205h-90v102h-82v103h-323v-103h-82v-102h-82v-205h-82v-620zM338 410v620h82v103h82v102h162v-102h79v-103h82v-620h-82v-103h-79v-102h-162v102h-82v103h-82zM381 1569h106v110h82v-110h164v110h58v103h-109v-99h-70v99h-176v-99h-55v-114z" />
<glyph unicode="&#xd6;" horiz-adv-x="1171" d="M80 313v811h82v205h80v103h4l-8 43h-7v401h709v-33l33 -162v-352h39v-35l30 -170h50v-32l32 -162v-799h-82v-205h-90v-102h-82v-103h-501l-21 103h-61l-23 102h-59l-39 185h-4v20h-39l-35 182h-8zM174 410h82v-205h82v-103h82v-102h323v102h82v103h90v205h82v620h-82v205 h-90v102h-82v103h-323v-103h-82v-102h-82v-205h-82v-620zM326 1569h161v213h-161v-213zM338 410v620h82v103h82v102h162v-102h79v-103h82v-620h-82v-103h-79v-102h-162v102h-82v103h-82zM686 1569h160v213h-160v-213z" />
<glyph unicode="&#xd8;" horiz-adv-x="1171" d="M37 8v389h43v727h82v205h80v103h84v102h514v-35l12 -67h283v-35l30 -160v-481h-41v-625h-82v-205h-90v-102h-82v-103h-501l-21 103h-266l-37 184h-8zM133 102h166v103h39v-103h82v-102h323v102h82v103h90v205h82v620h-34l77 4v303h-84v-102h-131v102h-82v103h-323v-103 h-82v-102h-82v-205h-82v-620h82v-4h-43v-103h-80v-201zM338 508v522h82v103h82v102h162v-102h79v-103h-32v-102h-82v-103h-82v-112h-90v-103h-84v-102h-35zM463 307v103h90v102h82v102h80v101h84v114h26v-419h-82v-103h-79v-102h-162v102h-39z" />
<glyph unicode="&#xd9;" horiz-adv-x="1222" d="M104 221v1313h308l-11 51h-6v291h350v-35l13 -63h69v-35l33 -160v-49h256v-35l33 -160v-1302l-82 -8v-205h-76v-103h-684l-20 103h-58l-39 184h-4v25l-39 4l-36 182zM199 307l82 -10v-195h77v-102h506v102h76v195l82 10v1133h-164v-1133h-78v-106h-329v106h-86v1133h-166 v-1133zM489 1679h82v-110h162v114h-82v99h-162v-103z" />
<glyph unicode="&#xda;" horiz-adv-x="1222" d="M104 221v1313h308l-11 51h-6v291h350v-35l13 -63h69v-35l33 -160v-49h256v-35l33 -160v-1302l-82 -8v-205h-76v-103h-684l-20 103h-58l-39 184h-4v25l-39 4l-36 182zM199 307l82 -10v-195h77v-102h506v102h76v195l82 10v1133h-164v-1133h-78v-106h-329v106h-86v1133h-166 v-1133zM489 1679h82v-110h162v114h-82v99h-162v-103z" />
<glyph unicode="&#xdb;" horiz-adv-x="1222" d="M104 221v1313h267v244h55v98h365v-35l12 -63h47v-35l33 -160v-49h233v-35l33 -160v-1302l-82 -8v-205h-76v-103h-684l-20 103h-58l-39 184h-4v25l-39 4l-36 182zM199 307l82 -10v-195h77v-102h506v102h76v195l82 10v1133h-164v-1133h-78v-106h-329v106h-86v1133h-166 v-1133zM465 1569h106v110h84v-110h101v114h-60v99h-176v-99h-55v-114z" />
<glyph unicode="&#xdc;" horiz-adv-x="1222" d="M104 221v1313h152v342h709v-33l32 -162v-147h119v-35l33 -160v-1302l-82 -8v-205h-76v-103h-684l-20 103h-58l-39 184h-4v25l-39 4l-36 182zM199 307l82 -10v-195h77v-102h506v102h76v195l82 10v1133h-164v-1133h-78v-106h-329v106h-86v1133h-166v-1133zM350 1569h162 v213h-162v-213zM711 1569h159v213h-159v-213z" />
<glyph unicode="&#xdd;" horiz-adv-x="1107" d="M47 1153v381h305l-10 51h-4v291h350v-35l10 -63h70v-35l33 -160v-49h260v-35l31 -160v-372l-91 -9v-194l-77 -8v-199l-82 -6v-215h-80v-615h-348l-39 185h-6v430h-37l-39 182h-4v35l-39 4l-37 182h-6v21l-35 4l-37 182l-6 2v17l-39 4l-35 182zM141 1239l82 -10v-195 l78 -10v-195l82 -6v-209h82v-614h170v614h80v209l82 6v195l77 10v195l91 10v201h-174v-201h-80v-205h-82v-203h-158v203h-82v205h-82v201h-166v-201zM432 1679h82v-110h160v114h-82v99h-160v-103z" />
<glyph unicode="&#xde;" horiz-adv-x="1157" d="M113 -94v1628h354v-35l33 -160v-94h465v-33l12 -69h70v-33l14 -70h67v-32l33 -162v-696h-82v-103h-84v-102h-499v-224h-338l-39 185h-6zM209 0h160v223h499v103h84v102h82v518h-82v103h-84v102h-495v289h-164v-1440zM373 428v518h405v-102h90v-303h-90v-113h-405z" />
<glyph unicode="&#xdf;" horiz-adv-x="1144" d="M106 -94v1423h82v103h84v102h521v-35l14 -67h76v-37l10 -62h143v-35l31 -159v-652l18 -86v-577h-84v-103h-464l-23 103h-14v-103h-350l-37 185h-7zM201 0h172v1137h80v102h198v-102h135v-209h-198v-103h-82v-313l82 -6v-96h209v-209h-291v-99h82v-102h286v102h84v406 l-84 6v96h-208v105h274v524h-152v98h-90v103h-331v-103h-82v-102h-84v-1235z" />
<glyph unicode="&#xe0;" horiz-adv-x="1212" d="M86 8v492h80v102h10l-4 19h-6v299h82v102h158l-11 51h-6v293h350v-37l13 -63h69v-33l33 -162v-49h162v-33l14 -69h68v-33l32 -162v-1004h-919l-23 103h-59l-37 184h-6zM180 102h82v-102h742v825h-82v103h-580v-103h-80v-110h580v-105h-500v-102h-80v-102h-82v-304z M342 205v201h498v-201h-498zM485 1167h80v-108h162v112h-82v99h-160v-103z" />
<glyph unicode="&#xe1;" horiz-adv-x="1212" d="M86 8v492h80v102h10l-4 19h-6v299h82v102h158l-11 51h-6v293h350v-37l13 -63h69v-33l33 -162v-49h162v-33l14 -69h68v-33l32 -162v-1004h-919l-23 103h-59l-37 184h-6zM180 102h82v-102h742v825h-82v103h-580v-103h-80v-110h580v-105h-500v-102h-80v-102h-82v-304z M342 205v201h498v-201h-498zM485 1167h80v-108h162v112h-82v99h-160v-103z" />
<glyph unicode="&#xe2;" horiz-adv-x="1212" d="M86 8v492h80v102h10l-4 19h-6v299h82v102h117v244h55v100h366v-37l11 -63h47v-33l33 -162v-49h139v-33l14 -69h68v-33l32 -162v-1004h-919l-23 103h-59l-37 184h-6zM180 102h82v-102h742v825h-82v103h-580v-103h-80v-110h580v-105h-500v-102h-80v-102h-82v-304zM342 205 v201h498v-201h-498zM461 1059h104v108h84v-108h101v112h-60v99h-176v-99h-53v-112z" />
<glyph unicode="&#xe3;" horiz-adv-x="1212" d="M86 8v492h80v102h10l-4 19h-6v299h82v102h59v244h55v100h543v-35l33 -162v-147h78v-33l14 -69h68v-33l32 -162v-1004h-919l-23 103h-59l-37 184h-6zM180 102h82v-102h742v825h-82v103h-580v-103h-80v-110h580v-105h-500v-102h-80v-102h-82v-304zM342 205v201h498v-201 h-498zM401 1059h107v108h82v-108h164v108h57v103h-109v-99h-69v99h-176v-99h-56v-112z" />
<glyph unicode="&#xe4;" horiz-adv-x="1212" d="M86 8v492h80v102h10l-4 19h-6v299h82v446h713v-35l30 -162v-147h25v-33l14 -69h68v-33l32 -162v-1004h-919l-23 103h-59l-37 184h-6zM180 102h82v-102h742v825h-82v103h-580v-103h-80v-110h580v-105h-500v-102h-80v-102h-82v-304zM342 205v201h498v-201h-498zM342 1059 h164v211h-164v-211zM705 1059h159v211h-159v-211z" />
<glyph unicode="&#xe5;" horiz-adv-x="1212" d="M86 8v492h80v102h10l-4 19h-6v299h82v102h131l-8 41h-6v303h55v98h366v-37l11 -61h47v-35l33 -162v-147h139v-33l14 -69h68v-33l32 -162v-1004h-919l-23 103h-59l-37 184h-6zM180 102h82v-102h742v825h-82v103h-580v-103h-80v-110h580v-105h-500v-102h-80v-102h-82v-304z M342 205v201h498v-201h-498zM461 1157h57v-98h176v98h56v113h-60v98h-176v-98h-53v-113zM565 1161v105h78v-105h-78z" />
<glyph unicode="&#xe6;" horiz-adv-x="1445" d="M86 8v492h80v102h10l-4 19h-6v299h82v102h973v-33l14 -69h68v-33l14 -80h67v-35l33 -160v-379h-82v-102h-6l6 -27v-280h-82v-103h-1042l-23 103h-59l-37 184h-6zM180 102h82v-102h864v102h82v103h-311v98h-76v107h387v102h82v201h-82v112h-82v103h-311v-103h-82v103h-391 v-103h-80v-110h391v-105h-311v-102h-80v-102h-82v-304zM342 205v201h309v-201h-309zM899 614v99h227v-99h-227z" />
<glyph unicode="&#xe7;" d="M90 115v686l84 4v115h78v102h694v-33l15 -69h63v-35l16 -82l66 -2v-35l33 -160v-270h-27l27 -133v-281h-82v-98h-78v-103h-186v-55h-50v-108h-282l-35 163h-131l-21 103h-57l-20 104l-62 4l-39 183h-6zM186 205l82 -6v-97h78v-102h219v-51h-53v-113h104v109h50v55h186 v102h78v99h82v102h-166v-96h-416v96h-76v311h76v97h414v-97h168v99l-82 4v108h-78v103h-506v-103h-78v-108l-82 -4v-508z" />
<glyph unicode="&#xe8;" d="M90 115v692h82v113h78v102h139l-10 51h-6v293h350v-37l12 -63h70v-33l33 -162v-49h102v-33l14 -69h68v-33l16 -80h66v-35l33 -160v-379h-82v-102h-6l6 -27v-280h-82v-103h-680l-21 103h-57l-20 104l-60 4l-39 181zM186 205l80 -6v-97h78v-102h502v102h82v103h-500v98h-76 v107h576v102h82v201h-82v112h-82v103h-502v-103h-78v-112h-80v-508zM430 614v99h416v-99h-416zM467 1167h82v-108h162v112h-82v99h-162v-103z" />
<glyph unicode="&#xe9;" d="M90 115v692h82v113h78v102h139l-10 51h-6v293h350v-37l12 -63h70v-33l33 -162v-49h102v-33l14 -69h68v-33l16 -80h66v-35l33 -160v-379h-82v-102h-6l6 -27v-280h-82v-103h-680l-21 103h-57l-20 104l-60 4l-39 181zM186 205l80 -6v-97h78v-102h502v102h82v103h-500v98h-76 v107h576v102h82v201h-82v112h-82v103h-502v-103h-78v-112h-80v-508zM430 614v99h416v-99h-416zM467 1167h82v-108h162v112h-82v99h-162v-103z" />
<glyph unicode="&#xea;" d="M90 115v692h82v113h78v102h100v244h56v100h364v-37l12 -63h47v-33l33 -162v-49h78v-33l14 -69h68v-33l16 -80h66v-35l33 -160v-379h-82v-102h-6l6 -27v-280h-82v-103h-680l-21 103h-57l-20 104l-60 4l-39 181zM186 205l80 -6v-97h78v-102h502v102h82v103h-500v98h-76v107 h576v102h82v201h-82v112h-82v103h-502v-103h-78v-112h-80v-508zM430 614v99h416v-99h-416zM444 1059h107v108h84v-108h100v112h-59v99h-176v-99h-56v-112z" />
<glyph unicode="&#xeb;" d="M90 115v692h82v113l78 2l-10 43h-4v401h708v-35l33 -162v-249h45v-33l16 -80h66v-35l33 -160v-379h-82v-102h-6l6 -27v-280h-82v-103h-680l-21 103h-57l-20 104l-60 4l-39 181zM186 205l80 -6v-97h78v-102h502v102h82v103h-500v98h-76v107h576l16 102h66v201h-82v112h-82 v103h-502v-103h-78v-112h-80v-508zM330 1059h159v211h-159v-211zM430 614v99h416v-99h-416zM690 1059h160v211h-160v-211z" />
<glyph unicode="&#xec;" horiz-adv-x="823" d="M84 -94v389h164v143h-37l-39 183h-6v401h31l-9 51h-6v293h350v-37l11 -63h71v-33l31 -162v-291h-14v-485h131v-33l31 -162v-379h-666l-37 185h-6zM178 0h488v201h-162v727h-242v-213h80v-514h-164v-201zM276 1167h82v-108h146l14 112h-80v99h-162v-103z" />
<glyph unicode="&#xed;" horiz-adv-x="823" d="M84 -94v389h164v143h-37l-39 183h-6v401h31l-9 51h-6v293h350v-37l11 -63h71v-33l31 -162v-291h-14v-485h131v-33l31 -162v-379h-666l-37 185h-6zM178 0h488v201h-162v727h-242v-213h80v-514h-164v-201zM276 1167h82v-108h146l14 112h-80v99h-162v-103z" />
<glyph unicode="&#xee;" horiz-adv-x="823" d="M84 -94v389h164v143h-37l-39 183h-6v344h-6v301h53v100h367v-37l10 -63h49v-33l31 -162v-291h-39v-485h131v-33l31 -162v-379h-666l-37 185h-6zM178 0h488v201h-162v727h-242v-213h80v-514h-164v-201zM254 1059h106v108h82v-108h101v112h-58v99h-176v-99h-55v-112z" />
<glyph unicode="&#xef;" horiz-adv-x="823" d="M43 965v401h711v-35l32 -162v-389h-155v-485h131v-33l31 -162v-379h-666l-37 185h-6v389h164v143h-37l-39 183h-6v159h-78l-37 185h-8zM137 1059h162v211h-162v-211zM178 0h488v201h-162v727h-242v-213h80v-514h-164v-201zM498 1059h161v211h-161v-211z" />
<glyph unicode="&#xf0;" horiz-adv-x="1239" d="M70 111v594h82v102h81v113h277l-8 41h-226l-38 182h-5v391h519v-35l12 -67h70v-35l12 -68h69v-35l13 -67h63v-35l15 -68h67v-32l33 -172h59v-33l31 -162v-799h-90v-102h-82v-103h-748l-20 103h-61l-21 102h-61l-35 185h-8zM164 205h82v-103h82v-102h569v102h82v103h90 v620h-90v205h-82v103h-78v102h-80v102h-82v103h-329v-201h245v-102h76v-103h84v-102h82v-107h-487v-112h-82v-103h-82v-405zM328 307v201h82v102h405v-102h82v-201h-82v-102h-405v102h-82z" />
<glyph unicode="&#xf1;" horiz-adv-x="1148" d="M113 -94v1116h161v244h56v100h542v-35l33 -162v-249h60v-35l14 -82l65 -2v-35l33 -160v-885h-342l-39 185h-6v430h-33l-20 98h-141v-713h-338l-39 185h-6zM209 0h160v713h340v-99h77v-614h164v713l-82 4v108h-77v103h-582v-928zM369 1059h106v108h84v-108h162v108h57v103 h-108v-99h-70v99h-176v-99h-55v-112z" />
<glyph unicode="&#xf2;" horiz-adv-x="1198" d="M90 111v696h82v113h84v102h141l-8 51h-6v293h350v-37l10 -63h72v-33l31 -162v-49h94v-33l14 -69h68v-33l16 -80h68v-35l33 -160v-686h-84v-102h-82v-103h-674l-20 103h-64l-20 102h-60l-39 185h-6zM186 205h80v-103h84v-102h496v102h82v103h84v508h-84v112h-82v103h-496 v-103h-84v-112h-80v-508zM350 307v303h82v103h332v-103h82v-303h-82v-102h-332v102h-82zM477 1167h82v-108h160v112h-80v99h-162v-103z" />
<glyph unicode="&#xf3;" horiz-adv-x="1198" d="M90 111v696h82v113h84v102h141l-8 51h-6v293h350v-37l10 -63h72v-33l31 -162v-49h94v-33l14 -69h68v-33l16 -80h68v-35l33 -160v-686h-84v-102h-82v-103h-674l-20 103h-64l-20 102h-60l-39 185h-6zM186 205h80v-103h84v-102h496v102h82v103h84v508h-84v112h-82v103h-496 v-103h-84v-112h-80v-508zM350 307v303h82v103h332v-103h82v-303h-82v-102h-332v102h-82zM477 1167h82v-108h160v112h-80v99h-162v-103z" />
<glyph unicode="&#xf4;" horiz-adv-x="1198" d="M90 111v696h82v113h84v102h104v244h54v100h366v-37l11 -63h49v-33l30 -162v-49h70v-33l14 -69h68v-33l16 -80h68v-35l33 -160v-686h-84v-102h-82v-103h-674l-20 103h-64l-20 102h-60l-39 185h-6zM186 205h80v-103h84v-102h496v102h82v103h84v508h-84v112h-82v103h-496 v-103h-84v-112h-80v-508zM350 307v303h82v103h332v-103h82v-303h-82v-102h-332v102h-82zM455 1059h106v108h82v-108h100v112h-57v99h-176v-99h-55v-112z" />
<glyph unicode="&#xf5;" horiz-adv-x="1198" d="M90 111v696h82v113h84v102h43v244h55v100h543v-35l33 -162v-147h10v-33l14 -69h68v-33l16 -80h68v-35l33 -160v-686h-84v-102h-82v-103h-674l-20 103h-64l-20 102h-60l-39 185h-6zM186 205h80v-103h84v-102h496v102h82v103h84v508h-84v112h-82v103h-496v-103h-84v-112 h-80v-508zM350 307v303h82v103h332v-103h82v-303h-82v-102h-332v102h-82zM393 1059h107v108h84v-108h161v108h58v103h-109v-99h-69v99h-176v-99h-56v-112z" />
<glyph unicode="&#xf6;" horiz-adv-x="1198" d="M90 111v696h82v113h84l-6 45h-6v401h710v-35l33 -162v-249h35v-33l16 -80h68v-35l33 -160v-686h-84v-102h-82v-103h-674l-20 103h-64l-20 102h-60l-39 185h-6zM186 205h80v-103h84v-102h496v102h82v103h84v508h-84v112h-82v103h-496v-103h-84v-112h-80v-508zM338 1059 h162v211h-162v-211zM350 307v303h82v103h332v-103h82v-303h-82v-102h-332v102h-82zM698 1059h162v211h-162v-211z" />
<glyph unicode="&#xf8;" horiz-adv-x="1208" d="M90 111v696h82v113h84v102h684v-33l14 -69h68v-33l16 -80h68v-35l33 -160v-686h-84v-102h-82v-103h-674l-20 103h-64l-20 102h-60l-39 185h-6zM186 205h80v-103h84v-102h496v102h82v103h84v508h-84v112h-82v103h-496v-103h-84v-112h-80v-508zM350 307v303h82v103h207v-54 h-82v-102h-78v-102h-82v-148h-47zM432 205v49h131v102h82v103h82v102h90v49h29v-303h-82v-102h-332z" />
<glyph unicode="&#xf9;" horiz-adv-x="1232" d="M102 106v916h312l-8 51h-7v293h351v-37l12 -63h69v-33l33 -162v-49h252v-33l33 -162v-1106h-836l-20 103h-55l-23 98h-70l-36 184h-7zM197 201h92v-99h76v-102h415v102h82v-102h160v928h-160v-625h-88v-98h-325v98h-78v625h-174v-727zM494 1167h81v-108h162v112h-82v99 h-161v-103z" />
<glyph unicode="&#xfa;" horiz-adv-x="1232" d="M102 106v916h312l-8 51h-7v293h351v-37l12 -63h69v-33l33 -162v-49h252v-33l33 -162v-1106h-836l-20 103h-55l-23 98h-70l-36 184h-7zM197 201h92v-99h76v-102h415v102h82v-102h160v928h-160v-625h-88v-98h-325v98h-78v625h-174v-727zM494 1167h81v-108h162v112h-82v99 h-161v-103z" />
<glyph unicode="&#xfb;" horiz-adv-x="1232" d="M102 106v916h275v244h55v100h365v-37l12 -63h47v-33l33 -162v-49h227v-33l33 -162v-1106h-836l-20 103h-55l-23 98h-70l-36 184h-7zM197 201h92v-99h76v-102h415v102h82v-102h160v928h-160v-625h-88v-98h-325v98h-78v625h-174v-727zM471 1059h107v108h84v-108h100v112 h-60v99h-176v-99h-55v-112z" />
<glyph unicode="&#xfc;" horiz-adv-x="1232" d="M102 106v916h160v344h709v-35l33 -162v-147h112v-33l33 -162v-1106h-836l-20 103h-55l-23 98h-70l-36 184h-7zM197 201h92v-99h76v-102h415v102h82l15 -102h145v928h-160v-625h-88v-98h-325v98h-78v625h-174v-727zM356 1059h160v211h-160v-211zM715 1059h162v211h-162 v-211z" />
<glyph unicode="&#xfd;" horiz-adv-x="964" d="M84 631v391h197l-11 51h-6v293h350v-37l13 -63h69v-33l33 -162v-49h205v-33l31 -162v-381l-82 -8v-200l-86 -5v-204h-82v-205h-86v-205h-80v-102h-340l-39 184h-6v287h78v205h10l-4 20h-6v23l-33 2l-39 182l-6 2v18l-37 6l-37 183zM178 715l82 -8v-195l78 -6v-199h78 v-209h-78v-204h-78v-99h162v103h80v204h88v205h80v199l86 6v195l84 8v213h-176v-213h-82v-201h-160v201h-78v213h-166v-213zM360 1167h80v-108h162v112h-82v99h-160v-103z" />
<glyph unicode="&#xfe;" horiz-adv-x="1155" d="M113 -299v1833h352v-35l31 -160v-317h469v-33l12 -69h67v-33l17 -80h65v-35l33 -160v-553h-82v-102h-82v-102h-497v-338h-340l-39 184h-6zM209 -205h162v338h497v103h82v102h82v375h-82v112h-82v103h-413v-103h-86v615h-160v-1645zM371 338v272h84v103h333v-103h80v-172 h-80v-100h-417z" />
<glyph unicode="&#xff;" horiz-adv-x="964" d="M84 631v391h43v344h711v-35l30 -162v-147h66v-33l31 -162v-381l-82 -8v-200l-86 -5v-204h-82v-205h-86v-205h-80v-102h-340l-39 184h-6v287h78v205h10l-4 20h-6v23l-33 2l-39 182l-6 2v18l-37 6l-37 183zM178 715l82 -8v-195l78 -6v-199h78v-209h-78v-204h-78v-99h162 v103h80v204h88v205h80v199l86 6v195l84 8v213h-176v-213h-82v-201h-160v201h-78v213h-166v-213zM221 1059h162v211h-162v-211zM582 1059h159v211h-159v-211z" />
<glyph unicode="&#x152;" horiz-adv-x="1581" d="M80 313v811h82v205h80v103h84v102h1192v-35l32 -160v-378h-434v-41h240v-33l33 -162v-389h-273v-41l402 12v-45l32 -162v-379h-1181l-21 103h-61l-23 102h-59l-39 185h-4v20h-39l-35 182h-8zM174 410h82v-205h82v-103h82v-102h323v102h86v-102h594v201h-432v413h271v211 h-271v414h432v201h-594v-103h-86v103h-323v-103h-82v-102h-82v-205h-82v-620zM338 410v620h82v103h82v102h162v-102h79v-103h82v-620h-82v-103h-79v-102h-162v102h-82v103h-82z" />
<glyph unicode="&#x153;" horiz-adv-x="1581" d="M90 111v696h82v113h84v102h1081v-33l13 -69h67v-33l17 -80h65v-35l33 -160v-379h-82v-102h-6l6 -27v-280h-82v-103h-1069l-20 103h-64l-20 102h-60l-39 185h-6zM186 205h80v-103h84v-102h365v102h157v-102h369v102h82v103h-367v98h-75v107h442v102h82v201h-82v112h-82 v103h-369v-103h-157v103h-365v-103h-84v-112h-80v-508zM350 307v303h82v103h201v-103l82 4v-307h-82v-102h-201v102h-82zM958 614v99h283v-99h-283z" />
<glyph unicode="&#x178;" horiz-adv-x="1107" d="M47 1153v381h152v342h350v-33l10 -49v82h350v-33l31 -162v-147h121v-35l31 -160v-372l-91 -9v-194l-77 -8v-199l-82 -6v-215h-80v-615h-348l-39 185h-6v430h-37l-39 182h-4v35l-39 4l-37 182h-6v21l-35 4l-37 182l-6 2v17l-39 4l-35 182zM141 1239l82 -10v-195l78 -10 v-195l82 -6v-209h82v-614h170v614h80v209l82 6v195l77 10v195l91 10v201h-174v-201h-80v-205h-82v-203h-158v203h-82v205h-82v201h-166v-201zM293 1569h162v213h-162v-213zM653 1569h162v213h-162v-213z" />
<glyph unicode="&#x2c6;" horiz-adv-x="665" d="M92 965v301h55v100h367v-37l10 -63h47v-33l33 -162v-291h-467l-39 185h-6zM188 1059h105v108h84v-108h100v112h-59v99h-176v-99h-54v-112z" />
<glyph unicode="&#x2dc;" horiz-adv-x="790" d="M98 965v301h56v100h542v-35l33 -162v-278h-57v-111h-531l-37 185h-6zM193 1059h106v108h84v-108h162v108h57v103h-108v-99h-70v99h-176v-99h-55v-112z" />
<glyph unicode="&#x2000;" horiz-adv-x="987" />
<glyph unicode="&#x2001;" horiz-adv-x="1974" />
<glyph unicode="&#x2002;" horiz-adv-x="987" />
<glyph unicode="&#x2003;" horiz-adv-x="1974" />
<glyph unicode="&#x2004;" horiz-adv-x="658" />
<glyph unicode="&#x2005;" horiz-adv-x="493" />
<glyph unicode="&#x2006;" horiz-adv-x="329" />
<glyph unicode="&#x2007;" horiz-adv-x="329" />
<glyph unicode="&#x2008;" horiz-adv-x="246" />
<glyph unicode="&#x2009;" horiz-adv-x="394" />
<glyph unicode="&#x200a;" horiz-adv-x="109" />
<glyph unicode="&#x2010;" horiz-adv-x="1079" d="M113 416v391h852v-35l30 -160v-379h-837l-39 183h-6zM209 512h659v201h-659v-201z" />
<glyph unicode="&#x2011;" horiz-adv-x="1079" d="M113 416v391h852v-35l30 -160v-379h-837l-39 183h-6zM209 512h659v201h-659v-201z" />
<glyph unicode="&#x2012;" horiz-adv-x="1079" d="M113 416v391h852v-35l30 -160v-379h-837l-39 183h-6zM209 512h659v201h-659v-201z" />
<glyph unicode="&#x2013;" horiz-adv-x="1234" d="M113 416v391h1040v-35l33 -160v-379h-1028l-39 183h-6zM209 512h850v201h-850v-201z" />
<glyph unicode="&#x2014;" horiz-adv-x="1546" d="M113 416v391h1329v-35l33 -160v-379h-1317l-39 183h-6zM209 512h1139v201h-1139v-201z" />
<glyph unicode="&#x2018;" horiz-adv-x="657" d="M109 838v696h430v-35l32 -160v-481h-6l6 -31v-276h-335l-23 102h-61l-39 185h-4zM203 932h84v-103h157v99h-79v209h79v303h-241v-508z" />
<glyph unicode="&#x2019;" horiz-adv-x="655" d="M111 735v287h8l-4 18h-4v494h430v-35l32 -160v-686h-81v-102h-338l-39 184h-4zM205 829h160v103h81v508h-241v-303h82v-209h-82v-99z" />
<glyph unicode="&#x201c;" horiz-adv-x="968" d="M104 838v696h766v-35l33 -160v-481h-6l6 -31v-276h-674l-20 102h-62l-36 185h-7zM199 932h82v-103h159v99h-80v209h80v303h-241v-508zM535 932h79v-103h162v99h-82v209h82v303h-241v-508z" />
<glyph unicode="&#x201d;" horiz-adv-x="1001" d="M113 735v287h10l-4 18h-6v494h780v-35l33 -160v-686h-82v-102h-338l-10 47v-47h-338l-39 184h-6zM209 829h160v103h82v508h-242v-303h80v-209h-80v-99zM557 829h160v103h82v508h-242v-303h82v-209h-82v-99z" />
<glyph unicode="&#x2022;" horiz-adv-x="765" d="M113 322v587h536v-35l33 -159v-578h-524l-39 185h-6zM209 416h346v399h-346v-399z" />
<glyph unicode="&#x2026;" horiz-adv-x="1579" d="M113 -94v491h442v-32l12 -68v100h443v-32l12 -68v100h442v-32l31 -162v-482h-430l-25 123v-123h-428l-24 123v-123h-430l-39 185h-6zM209 0h252v303h-252v-303zM664 0h251v303h-251v-303zM1116 0h252v303h-252v-303z" />
<glyph unicode="&#x202f;" horiz-adv-x="394" />
<glyph unicode="&#x2039;" horiz-adv-x="776" d="M80 514v406h82v102h80v102h77v103h361v-35l33 -160v-379h-84v-47h51v-35l33 -159v-387h-348l-25 108l-53 4l-21 92h-61l-21 103h-61l-35 182h-8zM174 610h82v-102h82v-98l76 -7v-100h172v209h-82v98l-82 4v215h80v103h84v201h-172v-103h-76v-102h-82v-103h-82v-215z" />
<glyph unicode="&#x203a;" horiz-adv-x="776" d="M78 209v397h82v47h-39l-35 185h-8v389h360v-35l13 -68h63v-32l14 -70h68v-33l14 -69h68v-33l33 -162v-393h-82v-103h-82v-92l-78 -6v-106h-348l-35 184h-8zM172 303h170v100l78 7v98h82v102h82v215h-82v103h-82v102h-78v103h-170v-201h84v-103h80v-215l-82 -4v-98h-82 v-209z" />
<glyph unicode="&#x205f;" horiz-adv-x="493" />
<glyph unicode="&#x20ac;" d="M82 324v800h82v199l78 4v105h80v102h606v-35l12 -67h74v-35l12 -72l70 -2v-33l32 -162v-372h-170v-252h138v-35l32 -160v-377l-84 -6v-102h-83v-103h-596l-21 103h-57l-23 104l-57 4l-39 181l-4 2v20l-39 4l-37 183zM176 410l82 -11v-194l80 -6v-97h78v-102h418v102h84 v97l83 6v205h-176v-107h-75v-96h-248v96h-78v107h-82v104h348v125h-348v137h489v135h-489v123h82v103h78v96h248v-96h75v-103h176v201l-83 6v96h-84v103h-418v-103h-78v-96l-80 -6v-205h-82v-620z" />
<glyph unicode="&#x2122;" horiz-adv-x="1806" d="M84 1143v391h944v-35l12 -67h76v-35l31 -170h98v205h88v102h359v-35l30 -160v-1106h-1001l-37 183h-6v545h-70v-728h-340l-37 183h-6v545h-98l-37 182h-6zM178 1239h141v-727h162v727h131v201h-434v-201zM772 512h162v416h80v-213h80v-203h172v203h80v213h81v-416h168 v928h-168v-103h-86v-204h-81v-199h-158v199h-82v204h-86v103h-162v-928z" />
<glyph unicode="&#x25fc;" horiz-adv-x="1024" d="M0 0v1024h1024v-1024h-1024z" />
<glyph unicode="&#xfb01;" horiz-adv-x="1452" d="M37 623v401h164v305h84v103h82v102h522v-35l31 -170h309v-35l33 -159v-840h131v-33l30 -162v-379h-665l-39 185h-4v389h164v143h-285v-717h-350l-37 185h-6v532h-119l-37 185h-8zM133 717h162v-717h172v715h506v-514h-164v-201h487v201h-161v727h-668v209h80v102h246v201 h-330v-103h-84v-102h-84v-305h-162v-213zM973 1034h162v201h-162v-201z" />
<glyph unicode="&#xfb02;" horiz-adv-x="1509" d="M37 518v402h164v409h84v103h82v102h925v-35l31 -160v-1044h133v-33l33 -162v-379h-668l-37 185h-6v389h162v666h-266v-41h133v-33l33 -162v-389h-246v-615h-350l-37 185h-6v430h-119l-37 182h-8zM133 614h162v-614h172v614h246v211h-246v312h80v102h489v-1038h-164v-201 h490v201h-166v1239h-733v-103h-84v-102h-84v-410h-162v-211z" />
</font>
</defs>
</svg>
